{"glyphs":{"0":{"ha":884,"x_min":80,"x_max":804,"o":"m 370 -13 q 146 101 212 -13 q 110 433 80 215 l 130 572 q 259 908 160 793 q 516 1023 359 1023 q 739 908 674 1023 q 774 572 804 793 l 754 433 q 626 101 723 215 q 370 -13 528 -13 m 380 67 q 571 157 503 67 q 667 441 639 246 l 684 564 q 669 853 712 763 q 504 943 626 943 q 313 853 381 943 q 217 564 245 763 l 199 441 q 215 157 172 246 q 380 67 258 67 m 431 422 q 378 434 396 422 q 364 481 359 447 l 370 528 q 397 574 375 562 q 453 587 419 587 q 506 574 487 587 q 520 528 525 562 l 514 481 q 486 434 509 447 q 431 422 463 422 z "},"1":{"ha":884,"x_min":112,"x_max":742,"o":"m 112 0 l 124 80 l 402 80 l 511 862 l 490 862 q 367 744 446 787 q 194 707 288 702 l 194 797 q 396 850 306 793 q 535 1010 487 908 l 620 1010 l 490 80 l 742 80 l 731 0 l 112 0 z "},"2":{"ha":884,"x_min":49,"x_max":806,"o":"m 49 0 l 80 215 q 153 390 95 326 q 322 482 212 455 l 530 533 q 644 590 607 552 q 691 698 681 628 l 697 750 q 669 898 712 852 q 504 943 625 943 q 335 893 389 943 q 251 716 280 843 l 164 725 q 278 951 194 880 q 514 1023 361 1023 q 737 958 669 1023 q 788 763 806 893 l 777 679 q 703 533 763 588 q 533 451 643 479 l 335 403 q 222 344 263 386 q 168 217 181 302 l 149 80 l 705 80 l 693 0 l 49 0 z "},"3":{"ha":884,"x_min":62,"x_max":794,"o":"m 357 -13 q 124 52 187 -13 q 72 255 62 116 l 163 265 q 201 106 158 148 q 367 64 244 64 q 565 112 503 64 q 643 274 628 159 l 648 308 q 616 456 663 413 q 442 499 569 499 l 331 499 l 341 578 l 452 578 q 618 612 566 578 q 682 727 670 645 l 687 768 q 657 906 701 866 q 491 946 612 946 q 332 907 383 946 q 258 764 282 867 l 170 774 q 278 964 198 905 q 503 1023 357 1023 q 725 963 657 1023 q 775 768 794 903 l 770 727 q 705 602 759 648 q 566 549 650 556 l 563 528 q 706 461 662 520 q 736 308 750 402 l 731 274 q 624 58 711 129 q 357 -13 538 -13 z "},"4":{"ha":884,"x_min":77,"x_max":807,"o":"m 187 364 l 567 364 l 645 919 l 187 364 m 797 284 l 645 284 l 605 0 l 516 0 l 557 284 l 77 284 l 87 364 l 616 1010 l 746 1010 l 655 364 l 807 364 l 797 284 z "},"5":{"ha":884,"x_min":66,"x_max":784,"o":"m 361 -13 q 131 50 196 -13 q 73 263 66 112 l 163 271 q 203 110 159 153 q 372 67 246 67 q 563 118 497 67 q 643 273 629 169 l 652 333 q 626 478 665 432 q 489 524 586 524 l 148 524 l 216 1010 l 784 1010 l 774 931 l 294 931 l 247 606 l 500 606 q 699 540 638 606 q 741 345 760 473 l 730 260 q 617 59 711 130 q 361 -13 523 -13 z "},"6":{"ha":884,"x_min":73,"x_max":792,"o":"m 370 -13 q 141 78 208 -13 q 98 348 73 168 l 141 655 q 263 930 167 837 q 518 1023 360 1023 q 720 972 658 1023 q 792 804 783 920 l 696 785 q 650 908 689 874 q 504 943 611 943 q 315 876 379 943 q 230 655 251 809 l 208 504 l 226 504 q 327 583 266 554 q 480 611 388 611 q 694 533 630 611 q 740 331 758 456 l 736 303 q 619 69 715 152 q 370 -13 524 -13 m 379 67 q 563 124 497 67 q 644 301 628 181 l 646 317 q 613 479 663 427 q 444 532 563 532 q 262 479 326 532 q 182 317 198 427 l 179 301 q 211 124 163 181 q 379 67 260 67 z "},"7":{"ha":884,"x_min":179,"x_max":835,"o":"m 264 0 q 458 501 374 308 q 735 926 543 693 l 179 926 l 191 1010 l 835 1010 l 823 926 q 532 454 621 657 q 365 0 443 251 l 264 0 z "},"8":{"ha":884,"x_min":66,"x_max":795,"o":"m 370 -13 q 135 54 205 -13 q 86 261 66 121 l 90 289 q 163 453 105 394 q 309 521 221 513 l 312 543 q 203 600 241 549 q 178 740 165 650 l 184 780 q 282 964 202 905 q 515 1023 362 1023 q 732 964 668 1023 q 778 780 795 905 l 771 740 q 707 600 759 650 q 582 543 655 549 l 580 521 q 707 453 665 513 q 734 289 749 393 l 730 261 q 622 54 710 121 q 370 -13 535 -13 m 451 568 q 618 605 566 568 q 683 734 670 643 l 687 768 q 660 906 701 866 q 504 946 619 946 q 336 906 389 946 q 270 768 284 866 l 266 734 q 295 605 254 643 q 451 568 336 568 m 380 64 q 568 111 509 64 q 643 274 628 158 l 646 295 q 615 445 662 402 q 439 489 568 489 q 253 445 311 489 q 179 295 194 402 l 176 274 q 206 111 160 158 q 380 64 251 64 z "},"9":{"ha":884,"x_min":93,"x_max":812,"o":"m 439 479 q 622 531 557 479 q 702 693 687 583 l 705 710 q 672 886 721 828 q 505 943 622 943 q 322 886 388 943 q 240 710 256 828 l 237 693 q 272 531 222 583 q 439 479 322 479 m 367 -13 q 164 39 227 -13 q 93 206 101 90 l 188 227 q 235 101 196 135 q 380 67 275 67 q 569 134 505 67 q 654 355 633 201 l 676 506 l 658 506 q 552 427 615 455 q 402 399 489 399 q 193 475 259 399 q 145 679 126 551 l 149 707 q 266 941 170 859 q 515 1023 361 1023 q 745 932 678 1023 q 787 662 812 842 l 742 355 q 625 83 718 179 q 367 -13 532 -13 z "},"\u0000":{"ha":0,"x_min":0,"x_max":0,"o":""},"\r":{"ha":0,"x_min":0,"x_max":0,"o":""}," ":{"ha":884,"x_min":0,"x_max":0,"o":""}," ":{"ha":884,"x_min":0,"x_max":0,"o":""},"A":{"ha":884,"x_min":-1,"x_max":745,"o":"m 583 385 l 495 893 l 264 385 l 583 385 m 649 0 l 596 306 l 227 306 l 90 0 l -1 0 l 473 1010 l 553 1010 l 745 0 l 649 0 z "},"À":{"ha":884,"x_min":-1,"x_max":745,"o":"m 0 0 m 583 385 l 495 893 l 264 385 l 583 385 m 649 0 l 596 306 l 227 306 l 90 0 l -1 0 l 473 1010 l 553 1010 l 745 0 l 649 0 m 547 1136 l 343 1389 l 480 1389 l 624 1136 l 547 1136 z "},"Á":{"ha":884,"x_min":-1,"x_max":769,"o":"m 0 0 m 583 385 l 495 893 l 264 385 l 583 385 m 649 0 l 596 306 l 227 306 l 90 0 l -1 0 l 473 1010 l 553 1010 l 745 0 l 649 0 m 418 1136 l 633 1389 l 769 1389 l 495 1136 l 418 1136 z "},"Â":{"ha":884,"x_min":-1,"x_max":787,"o":"m 0 0 m 583 385 l 495 893 l 264 385 l 583 385 m 649 0 l 596 306 l 227 306 l 90 0 l -1 0 l 473 1010 l 553 1010 l 745 0 l 649 0 m 313 1155 l 287 1208 l 534 1410 l 595 1410 l 787 1208 l 744 1155 l 552 1326 l 313 1155 z "},"Ã":{"ha":884,"x_min":-1,"x_max":808,"o":"m 0 0 m 583 385 l 495 893 l 264 385 l 583 385 m 649 0 l 596 306 l 227 306 l 90 0 l -1 0 l 473 1010 l 553 1010 l 745 0 l 649 0 m 635 1149 q 566 1172 592 1149 q 516 1246 540 1196 q 482 1308 497 1288 q 444 1328 466 1328 q 389 1294 412 1328 q 357 1176 366 1259 l 355 1162 l 284 1162 l 287 1181 q 346 1343 302 1284 q 458 1402 390 1402 q 530 1378 504 1402 q 576 1308 556 1355 q 614 1244 598 1265 q 649 1222 629 1222 q 703 1257 681 1222 q 736 1375 725 1292 l 737 1389 l 808 1389 l 806 1370 q 747 1208 792 1266 q 635 1149 703 1149 z "},"Ä":{"ha":884,"x_min":-1,"x_max":750,"o":"m 0 0 m 583 385 l 495 893 l 264 385 l 583 385 m 649 0 l 596 306 l 227 306 l 90 0 l -1 0 l 473 1010 l 553 1010 l 745 0 l 649 0 m 393 1164 q 346 1176 362 1164 q 335 1221 330 1188 l 336 1230 q 360 1277 341 1264 q 410 1289 380 1289 q 458 1277 441 1289 q 470 1230 475 1264 l 468 1221 q 443 1176 463 1188 q 393 1164 422 1164 m 668 1164 q 621 1176 638 1164 q 610 1221 605 1188 l 611 1230 q 636 1277 616 1264 q 686 1289 655 1289 q 733 1277 716 1289 q 745 1230 750 1264 l 744 1221 q 718 1176 739 1188 q 668 1164 697 1164 z "},"Å":{"ha":884,"x_min":-1,"x_max":755,"o":"m 0 0 m 583 385 l 495 893 l 264 385 l 583 385 m 649 0 l 596 306 l 227 306 l 90 0 l -1 0 l 473 1010 l 553 1010 l 745 0 l 649 0 m 524 1117 q 394 1164 437 1117 q 364 1301 351 1210 l 369 1341 q 438 1480 381 1433 q 582 1528 495 1528 q 712 1480 669 1528 q 742 1341 755 1433 l 737 1301 q 668 1164 725 1210 q 524 1117 611 1117 m 534 1184 q 622 1211 592 1184 q 662 1301 653 1239 l 667 1341 q 653 1432 676 1403 q 572 1461 630 1461 q 484 1432 514 1461 q 444 1341 453 1403 l 439 1301 q 453 1211 431 1239 q 534 1184 476 1184 z "},"Ā":{"ha":884,"x_min":-1,"x_max":784,"o":"m 0 0 m 583 385 l 495 893 l 264 385 l 583 385 m 649 0 l 596 306 l 227 306 l 90 0 l -1 0 l 473 1010 l 553 1010 l 745 0 l 649 0 m 306 1225 l 317 1304 l 784 1304 l 773 1225 l 306 1225 z "},"Ă":{"ha":884,"x_min":-1,"x_max":833,"o":"m 0 0 m 583 385 l 495 893 l 264 385 l 583 385 m 649 0 l 596 306 l 227 306 l 90 0 l -1 0 l 473 1010 l 553 1010 l 745 0 l 649 0 m 525 1128 q 338 1193 402 1128 q 293 1393 275 1258 l 381 1393 q 407 1246 370 1290 q 537 1202 444 1202 q 679 1246 629 1202 q 745 1393 729 1290 l 833 1393 q 731 1193 813 1258 q 525 1128 649 1128 z "},"Ą":{"ha":884,"x_min":-1,"x_max":813,"o":"m 0 0 m 583 385 l 495 893 l 264 385 l 583 385 m 649 0 l 596 306 l 227 306 l 90 0 l -1 0 l 473 1010 l 553 1010 l 745 0 l 649 0 m 689 -271 q 569 -233 614 -271 q 534 -129 524 -194 q 592 -23 542 -71 q 710 49 643 24 l 730 29 q 652 -34 678 0 q 620 -105 625 -68 q 636 -170 614 -149 q 711 -192 659 -192 q 762 -189 735 -192 q 813 -181 789 -186 l 802 -260 q 745 -268 777 -265 q 689 -271 713 -271 z "},"Ǻ":{"ha":884,"x_min":-1,"x_max":843,"o":"m 0 0 m 583 385 l 495 893 l 264 385 l 583 385 m 649 0 l 596 306 l 227 306 l 90 0 l -1 0 l 473 1010 l 553 1010 l 745 0 l 649 0 m 524 1117 q 394 1164 437 1117 q 364 1301 351 1210 l 369 1341 q 438 1480 381 1433 q 582 1528 495 1528 q 712 1480 669 1528 q 742 1341 755 1433 l 737 1301 q 668 1164 725 1210 q 524 1117 611 1117 m 534 1184 q 622 1211 592 1184 q 662 1301 653 1239 l 667 1341 q 653 1432 676 1403 q 572 1461 630 1461 q 484 1432 514 1461 q 444 1341 453 1403 l 439 1301 q 453 1211 431 1239 q 534 1184 476 1184 m 492 1515 l 707 1768 l 843 1768 l 569 1515 l 492 1515 z "},"B":{"ha":884,"x_min":74,"x_max":783,"o":"m 74 0 l 216 1010 l 518 1010 q 720 950 657 1010 q 766 773 783 890 l 759 716 q 705 603 749 649 q 597 545 662 557 l 593 524 q 714 459 673 516 q 742 314 755 402 l 735 258 q 631 65 716 130 q 395 0 545 0 l 74 0 m 242 567 l 461 567 q 612 604 563 567 q 674 729 662 641 l 679 764 q 653 891 692 852 q 513 931 615 931 l 294 931 l 242 567 m 174 80 l 418 80 q 580 122 527 80 q 646 264 633 165 l 653 304 q 625 445 667 403 q 475 487 583 487 l 231 487 l 174 80 z "},"":{"ha":884,"x_min":74,"x_max":783,"o":"m 74 0 l 216 1010 l 518 1010 q 720 950 657 1010 q 766 773 783 890 l 759 716 q 705 603 749 649 q 597 545 662 557 l 593 524 q 714 459 673 516 q 742 314 755 402 l 735 258 q 631 65 716 130 q 395 0 545 0 l 74 0 m 242 567 l 461 567 q 612 604 563 567 q 674 729 662 641 l 679 764 q 653 891 692 852 q 513 931 615 931 l 294 931 l 242 567 m 174 80 l 418 80 q 580 122 527 80 q 646 264 633 165 l 653 304 q 625 445 667 403 q 475 487 583 487 l 231 487 l 174 80 z "},"C":{"ha":884,"x_min":73,"x_max":830,"o":"m 383 -13 q 145 78 217 -13 q 97 342 73 168 l 143 663 q 265 931 167 840 q 529 1023 364 1023 q 758 945 687 1023 q 814 699 830 867 l 725 691 q 687 888 732 832 q 516 943 641 943 q 318 877 384 943 q 230 655 251 811 l 187 350 q 213 132 165 197 q 393 67 260 67 q 584 123 520 67 q 672 314 648 179 l 759 306 q 639 66 732 145 q 383 -13 545 -13 z "},"Ç":{"ha":884,"x_min":73,"x_max":830,"o":"m 73 0 m 383 -13 q 145 78 217 -13 q 97 342 73 168 l 143 663 q 265 931 167 840 q 529 1023 364 1023 q 758 945 687 1023 q 814 699 830 867 l 725 691 q 687 888 732 832 q 516 943 641 943 q 318 877 384 943 q 230 655 251 811 l 187 350 q 213 132 165 197 q 393 67 260 67 q 584 123 520 67 q 672 314 648 179 l 759 306 q 639 66 732 145 q 383 -13 545 -13 m 346 0 l 369 38 q 474 -14 436 25 q 503 -122 513 -53 q 437 -234 492 -196 q 306 -273 383 -273 q 186 -241 230 -273 q 146 -135 141 -210 l 229 -128 q 246 -183 227 -167 q 309 -199 264 -199 q 388 -181 362 -199 q 420 -112 414 -162 q 410 -39 428 -64 q 346 0 393 -14 z "},"Ć":{"ha":884,"x_min":73,"x_max":831,"o":"m 73 0 m 383 -13 q 145 78 217 -13 q 97 342 73 168 l 143 663 q 265 931 167 840 q 529 1023 364 1023 q 758 945 687 1023 q 814 699 830 867 l 725 691 q 687 888 732 832 q 516 943 641 943 q 318 877 384 943 q 230 655 251 811 l 187 350 q 213 132 165 197 q 393 67 260 67 q 584 123 520 67 q 672 314 648 179 l 759 306 q 639 66 732 145 q 383 -13 545 -13 m 480 1136 l 694 1389 l 831 1389 l 557 1136 l 480 1136 z "},"Ĉ":{"ha":884,"x_min":73,"x_max":830,"o":"m 73 0 m 383 -13 q 145 78 217 -13 q 97 342 73 168 l 143 663 q 265 931 167 840 q 529 1023 364 1023 q 758 945 687 1023 q 814 699 830 867 l 725 691 q 687 888 732 832 q 516 943 641 943 q 318 877 384 943 q 230 655 251 811 l 187 350 q 213 132 165 197 q 393 67 260 67 q 584 123 520 67 q 672 314 648 179 l 759 306 q 639 66 732 145 q 383 -13 545 -13 m 324 1155 l 298 1208 l 545 1410 l 606 1410 l 798 1208 l 755 1155 l 563 1326 l 324 1155 z "},"Ċ":{"ha":884,"x_min":73,"x_max":830,"o":"m 73 0 m 383 -13 q 145 78 217 -13 q 97 342 73 168 l 143 663 q 265 931 167 840 q 529 1023 364 1023 q 758 945 687 1023 q 814 699 830 867 l 725 691 q 687 888 732 832 q 516 943 641 943 q 318 877 384 943 q 230 655 251 811 l 187 350 q 213 132 165 197 q 393 67 260 67 q 584 123 520 67 q 672 314 648 179 l 759 306 q 639 66 732 145 q 383 -13 545 -13 m 542 1164 q 485 1176 506 1164 q 470 1221 465 1188 l 471 1230 q 500 1277 476 1264 q 559 1289 524 1289 q 616 1277 595 1289 q 633 1230 638 1264 l 631 1221 q 602 1176 626 1188 q 542 1164 577 1164 z "},"Č":{"ha":884,"x_min":73,"x_max":830,"o":"m 73 0 m 383 -13 q 145 78 217 -13 q 97 342 73 168 l 143 663 q 265 931 167 840 q 529 1023 364 1023 q 758 945 687 1023 q 814 699 830 867 l 725 691 q 687 888 732 832 q 516 943 641 943 q 318 877 384 943 q 230 655 251 811 l 187 350 q 213 132 165 197 q 393 67 260 67 q 584 123 520 67 q 672 314 648 179 l 759 306 q 639 66 732 145 q 383 -13 545 -13 m 509 1141 l 317 1343 l 359 1396 l 551 1226 l 789 1396 l 817 1343 l 569 1141 l 509 1141 z "},"D":{"ha":884,"x_min":74,"x_max":807,"o":"m 74 0 l 216 1010 l 476 1010 q 725 910 644 1010 q 784 643 807 809 l 744 362 q 612 98 721 197 q 333 0 503 0 l 74 0 m 174 80 l 345 80 q 560 158 482 80 q 655 362 638 236 l 696 643 q 657 849 712 768 q 465 931 602 931 l 294 931 l 174 80 z "},"Ď":{"ha":884,"x_min":74,"x_max":807,"o":"m 74 0 m 74 0 l 216 1010 l 476 1010 q 725 910 644 1010 q 784 643 807 809 l 744 362 q 612 98 721 197 q 333 0 503 0 l 74 0 m 174 80 l 345 80 q 560 158 482 80 q 655 362 638 236 l 696 643 q 657 849 712 768 q 465 931 602 931 l 294 931 l 174 80 m 496 1141 l 304 1343 l 346 1396 l 538 1226 l 777 1396 l 804 1343 l 557 1141 l 496 1141 z "},"E":{"ha":884,"x_min":74,"x_max":835,"o":"m 74 0 l 216 1010 l 835 1010 l 824 931 l 294 931 l 246 591 l 713 591 l 702 511 l 235 511 l 174 80 l 705 80 l 693 0 l 74 0 z "},"":{"ha":884,"x_min":74,"x_max":835,"o":"m 74 0 l 216 1010 l 835 1010 l 824 931 l 294 931 l 246 591 l 713 591 l 702 511 l 235 511 l 174 80 l 705 80 l 693 0 l 74 0 z "},"È":{"ha":884,"x_min":74,"x_max":835,"o":"m 74 0 m 74 0 l 216 1010 l 835 1010 l 824 931 l 294 931 l 246 591 l 713 591 l 702 511 l 235 511 l 174 80 l 705 80 l 693 0 l 74 0 m 558 1136 l 355 1389 l 491 1389 l 635 1136 l 558 1136 z "},"É":{"ha":884,"x_min":74,"x_max":835,"o":"m 74 0 m 74 0 l 216 1010 l 835 1010 l 824 931 l 294 931 l 246 591 l 713 591 l 702 511 l 235 511 l 174 80 l 705 80 l 693 0 l 74 0 m 455 1136 l 669 1389 l 806 1389 l 532 1136 l 455 1136 z "},"Ê":{"ha":884,"x_min":74,"x_max":835,"o":"m 74 0 m 74 0 l 216 1010 l 835 1010 l 824 931 l 294 931 l 246 591 l 713 591 l 702 511 l 235 511 l 174 80 l 705 80 l 693 0 l 74 0 m 337 1155 l 311 1208 l 558 1410 l 619 1410 l 811 1208 l 768 1155 l 576 1326 l 337 1155 z "},"Ë":{"ha":884,"x_min":74,"x_max":835,"o":"m 74 0 m 74 0 l 216 1010 l 835 1010 l 824 931 l 294 931 l 246 591 l 713 591 l 702 511 l 235 511 l 174 80 l 705 80 l 693 0 l 74 0 m 417 1164 q 370 1176 386 1164 q 359 1221 354 1188 l 360 1230 q 384 1277 365 1264 q 434 1289 404 1289 q 482 1277 465 1289 q 494 1230 499 1264 l 492 1221 q 467 1176 487 1188 q 417 1164 446 1164 m 692 1164 q 645 1176 662 1164 q 634 1221 629 1188 l 635 1230 q 660 1277 640 1264 q 710 1289 679 1289 q 757 1277 740 1289 q 769 1230 774 1264 l 768 1221 q 742 1176 763 1188 q 692 1164 721 1164 z "},"Ē":{"ha":884,"x_min":74,"x_max":835,"o":"m 74 0 m 74 0 l 216 1010 l 835 1010 l 824 931 l 294 931 l 246 591 l 713 591 l 702 511 l 235 511 l 174 80 l 705 80 l 693 0 l 74 0 m 330 1225 l 341 1304 l 808 1304 l 797 1225 l 330 1225 z "},"Ĕ":{"ha":884,"x_min":74,"x_max":857,"o":"m 74 0 m 74 0 l 216 1010 l 835 1010 l 824 931 l 294 931 l 246 591 l 713 591 l 702 511 l 235 511 l 174 80 l 705 80 l 693 0 l 74 0 m 549 1128 q 362 1193 426 1128 q 317 1393 299 1258 l 405 1393 q 431 1246 394 1290 q 561 1202 468 1202 q 703 1246 653 1202 q 769 1393 753 1290 l 857 1393 q 755 1193 837 1258 q 549 1128 673 1128 z "},"Ė":{"ha":884,"x_min":74,"x_max":835,"o":"m 74 0 m 74 0 l 216 1010 l 835 1010 l 824 931 l 294 931 l 246 591 l 713 591 l 702 511 l 235 511 l 174 80 l 705 80 l 693 0 l 74 0 m 554 1164 q 498 1176 519 1164 q 482 1221 477 1188 l 484 1230 q 513 1277 489 1264 q 572 1289 537 1289 q 629 1277 607 1289 q 645 1230 650 1264 l 644 1221 q 614 1176 639 1188 q 554 1164 590 1164 z "},"Ę":{"ha":884,"x_min":74,"x_max":835,"o":"m 74 0 m 74 0 l 216 1010 l 835 1010 l 824 931 l 294 931 l 246 591 l 713 591 l 702 511 l 235 511 l 174 80 l 705 80 l 693 0 l 74 0 m 548 -271 q 427 -233 472 -271 q 393 -129 383 -194 q 451 -23 400 -71 q 568 49 501 24 l 588 29 q 510 -34 537 0 q 479 -105 484 -68 q 495 -170 472 -149 q 569 -192 518 -192 q 621 -189 593 -192 q 672 -181 648 -186 l 660 -260 q 604 -268 635 -265 q 548 -271 572 -271 z "},"Ě":{"ha":884,"x_min":74,"x_max":842,"o":"m 74 0 m 74 0 l 216 1010 l 835 1010 l 824 931 l 294 931 l 246 591 l 713 591 l 702 511 l 235 511 l 174 80 l 705 80 l 693 0 l 74 0 m 534 1141 l 342 1343 l 384 1396 l 576 1226 l 814 1396 l 842 1343 l 595 1141 l 534 1141 z "},"F":{"ha":884,"x_min":74,"x_max":835,"o":"m 74 0 l 216 1010 l 835 1010 l 824 931 l 294 931 l 231 486 l 673 486 l 662 407 l 220 407 l 163 0 l 74 0 z "},"G":{"ha":884,"x_min":73,"x_max":808,"o":"m 395 -13 q 150 80 226 -13 q 98 350 73 173 l 141 655 q 266 928 167 833 q 529 1023 366 1023 q 744 951 681 1023 q 795 723 808 880 l 705 713 q 672 894 712 845 q 516 943 631 943 q 319 876 386 943 q 230 655 251 808 l 187 350 q 217 133 165 199 q 405 67 269 67 q 597 143 533 67 q 687 404 660 220 l 428 404 l 439 484 l 787 484 l 774 395 q 652 88 745 189 q 395 -13 558 -13 z "},"Ĝ":{"ha":884,"x_min":73,"x_max":811,"o":"m 73 0 m 395 -13 q 150 80 226 -13 q 98 350 73 173 l 141 655 q 266 928 167 833 q 529 1023 366 1023 q 744 951 681 1023 q 795 723 808 880 l 705 713 q 672 894 712 845 q 516 943 631 943 q 319 876 386 943 q 230 655 251 808 l 187 350 q 217 133 165 199 q 405 67 269 67 q 597 143 533 67 q 687 404 660 220 l 428 404 l 439 484 l 787 484 l 774 395 q 652 88 745 189 q 395 -13 558 -13 m 337 1155 l 311 1208 l 558 1410 l 619 1410 l 811 1208 l 768 1155 l 576 1326 l 337 1155 z "},"Ğ":{"ha":884,"x_min":73,"x_max":857,"o":"m 73 0 m 395 -13 q 150 80 226 -13 q 98 350 73 173 l 141 655 q 266 928 167 833 q 529 1023 366 1023 q 744 951 681 1023 q 795 723 808 880 l 705 713 q 672 894 712 845 q 516 943 631 943 q 319 876 386 943 q 230 655 251 808 l 187 350 q 217 133 165 199 q 405 67 269 67 q 597 143 533 67 q 687 404 660 220 l 428 404 l 439 484 l 787 484 l 774 395 q 652 88 745 189 q 395 -13 558 -13 m 549 1128 q 362 1193 426 1128 q 317 1393 299 1258 l 405 1393 q 431 1246 394 1290 q 561 1202 468 1202 q 703 1246 653 1202 q 769 1393 753 1290 l 857 1393 q 755 1193 837 1258 q 549 1128 673 1128 z "},"Ġ":{"ha":884,"x_min":73,"x_max":808,"o":"m 73 0 m 395 -13 q 150 80 226 -13 q 98 350 73 173 l 141 655 q 266 928 167 833 q 529 1023 366 1023 q 744 951 681 1023 q 795 723 808 880 l 705 713 q 672 894 712 845 q 516 943 631 943 q 319 876 386 943 q 230 655 251 808 l 187 350 q 217 133 165 199 q 405 67 269 67 q 597 143 533 67 q 687 404 660 220 l 428 404 l 439 484 l 787 484 l 774 395 q 652 88 745 189 q 395 -13 558 -13 m 542 1164 q 485 1176 506 1164 q 470 1221 465 1188 l 471 1230 q 500 1277 476 1264 q 559 1289 524 1289 q 616 1277 595 1289 q 633 1230 638 1264 l 631 1221 q 602 1176 626 1188 q 542 1164 577 1164 z "},"Ģ":{"ha":884,"x_min":73,"x_max":808,"o":"m 73 0 m 395 -13 q 150 80 226 -13 q 98 350 73 173 l 141 655 q 266 928 167 833 q 529 1023 366 1023 q 744 951 681 1023 q 795 723 808 880 l 705 713 q 672 894 712 845 q 516 943 631 943 q 319 876 386 943 q 230 655 251 808 l 187 350 q 217 133 165 199 q 405 67 269 67 q 597 143 533 67 q 687 404 660 220 l 428 404 l 439 484 l 787 484 l 774 395 q 652 88 745 189 q 395 -13 558 -13 m 177 -379 l 333 -126 l 470 -126 l 254 -379 l 177 -379 z "},"H":{"ha":884,"x_min":74,"x_max":809,"o":"m 74 0 l 216 1010 l 304 1010 l 246 591 l 663 591 l 721 1010 l 809 1010 l 668 0 l 580 0 l 652 511 l 235 511 l 163 0 l 74 0 z "},"Ĥ":{"ha":884,"x_min":74,"x_max":809,"o":"m 74 0 m 74 0 l 216 1010 l 304 1010 l 246 591 l 663 591 l 721 1010 l 809 1010 l 668 0 l 580 0 l 652 511 l 235 511 l 163 0 l 74 0 m 312 1155 l 285 1208 l 533 1410 l 593 1410 l 785 1208 l 742 1155 l 551 1326 l 312 1155 z "},"I":{"ha":884,"x_min":74,"x_max":809,"o":"m 74 0 l 86 80 l 338 80 l 458 931 l 206 931 l 216 1010 l 809 1010 l 799 931 l 547 931 l 427 80 l 679 80 l 668 0 l 74 0 z "},"Ì":{"ha":884,"x_min":74,"x_max":809,"o":"m 74 0 m 74 0 l 86 80 l 338 80 l 458 931 l 206 931 l 216 1010 l 809 1010 l 799 931 l 547 931 l 427 80 l 679 80 l 668 0 l 74 0 m 545 1136 l 342 1389 l 479 1389 l 622 1136 l 545 1136 z "},"Í":{"ha":884,"x_min":74,"x_max":809,"o":"m 74 0 m 74 0 l 86 80 l 338 80 l 458 931 l 206 931 l 216 1010 l 809 1010 l 799 931 l 547 931 l 427 80 l 679 80 l 668 0 l 74 0 m 417 1136 l 631 1389 l 768 1389 l 494 1136 l 417 1136 z "},"Î":{"ha":884,"x_min":74,"x_max":809,"o":"m 74 0 m 74 0 l 86 80 l 338 80 l 458 931 l 206 931 l 216 1010 l 809 1010 l 799 931 l 547 931 l 427 80 l 679 80 l 668 0 l 74 0 m 312 1155 l 285 1208 l 533 1410 l 593 1410 l 785 1208 l 742 1155 l 551 1326 l 312 1155 z "},"Ï":{"ha":884,"x_min":74,"x_max":809,"o":"m 74 0 m 74 0 l 86 80 l 338 80 l 458 931 l 206 931 l 216 1010 l 809 1010 l 799 931 l 547 931 l 427 80 l 679 80 l 668 0 l 74 0 m 391 1164 q 345 1176 361 1164 q 333 1221 328 1188 l 335 1230 q 359 1277 340 1264 q 409 1289 379 1289 q 456 1277 439 1289 q 468 1230 473 1264 l 467 1221 q 441 1176 462 1188 q 391 1164 420 1164 m 667 1164 q 620 1176 636 1164 q 609 1221 604 1188 l 610 1230 q 634 1277 615 1264 q 684 1289 654 1289 q 732 1277 715 1289 q 744 1230 749 1264 l 742 1221 q 717 1176 737 1188 q 667 1164 696 1164 z "},"Ĩ":{"ha":884,"x_min":74,"x_max":809,"o":"m 74 0 m 74 0 l 86 80 l 338 80 l 458 931 l 206 931 l 216 1010 l 809 1010 l 799 931 l 547 931 l 427 80 l 679 80 l 668 0 l 74 0 m 634 1149 q 565 1172 591 1149 q 515 1246 539 1196 q 480 1308 496 1288 q 443 1328 465 1328 q 388 1294 410 1328 q 356 1176 365 1259 l 354 1162 l 283 1162 l 285 1181 q 345 1343 301 1284 q 457 1402 389 1402 q 528 1378 503 1402 q 574 1308 554 1355 q 612 1244 597 1265 q 648 1222 628 1222 q 701 1257 679 1222 q 735 1375 723 1292 l 736 1389 l 807 1389 l 804 1370 q 746 1208 790 1266 q 634 1149 702 1149 z "},"Ī":{"ha":884,"x_min":74,"x_max":809,"o":"m 74 0 m 74 0 l 86 80 l 338 80 l 458 931 l 206 931 l 216 1010 l 809 1010 l 799 931 l 547 931 l 427 80 l 679 80 l 668 0 l 74 0 m 304 1225 l 316 1304 l 783 1304 l 771 1225 l 304 1225 z "},"Ĭ":{"ha":884,"x_min":74,"x_max":832,"o":"m 74 0 m 74 0 l 86 80 l 338 80 l 458 931 l 206 931 l 216 1010 l 809 1010 l 799 931 l 547 931 l 427 80 l 679 80 l 668 0 l 74 0 m 524 1128 q 337 1193 400 1128 q 292 1393 274 1258 l 380 1393 q 406 1246 369 1290 q 535 1202 443 1202 q 677 1246 628 1202 q 744 1393 727 1290 l 832 1393 q 730 1193 812 1258 q 524 1128 648 1128 z "},"Į":{"ha":884,"x_min":74,"x_max":809,"o":"m 74 0 m 74 0 l 86 80 l 338 80 l 458 931 l 206 931 l 216 1010 l 809 1010 l 799 931 l 547 931 l 427 80 l 679 80 l 668 0 l 74 0 m 428 -271 q 307 -233 352 -271 q 273 -129 263 -194 q 331 -23 280 -71 q 448 49 381 24 l 468 29 q 390 -34 417 0 q 359 -105 364 -68 q 375 -170 352 -149 q 449 -192 398 -192 q 501 -189 473 -192 q 552 -181 528 -186 l 540 -260 q 484 -268 515 -265 q 428 -271 452 -271 z "},"İ":{"ha":884,"x_min":74,"x_max":809,"o":"m 74 0 m 74 0 l 86 80 l 338 80 l 458 931 l 206 931 l 216 1010 l 809 1010 l 799 931 l 547 931 l 427 80 l 679 80 l 668 0 l 74 0 m 529 1164 q 473 1176 494 1164 q 457 1221 452 1188 l 458 1230 q 487 1277 463 1264 q 547 1289 511 1289 q 604 1277 582 1289 q 620 1230 625 1264 l 619 1221 q 589 1176 614 1188 q 529 1164 564 1164 z "},"J":{"ha":884,"x_min":52,"x_max":809,"o":"m 343 -13 q 119 65 186 -13 q 67 308 52 143 l 157 318 q 189 121 148 176 q 352 67 231 67 q 541 129 476 67 q 625 327 606 192 l 711 931 l 439 931 l 449 1010 l 809 1010 l 715 328 q 597 73 691 159 q 343 -13 504 -13 z "},"Ĵ":{"ha":884,"x_min":52,"x_max":899,"o":"m 52 0 m 343 -13 q 119 65 186 -13 q 67 308 52 143 l 157 318 q 189 121 148 176 q 352 67 231 67 q 541 129 476 67 q 625 327 606 192 l 711 931 l 439 931 l 449 1010 l 809 1010 l 715 328 q 597 73 691 159 q 343 -13 504 -13 m 426 1155 l 399 1208 l 646 1410 l 707 1410 l 899 1208 l 856 1155 l 664 1326 l 426 1155 z "},"K":{"ha":884,"x_min":74,"x_max":884,"o":"m 232 495 l 163 0 l 74 0 l 216 1010 l 304 1010 l 244 574 l 324 574 l 775 1010 l 884 1010 l 399 543 l 739 0 l 630 0 l 322 495 l 232 495 z "},"Ķ":{"ha":884,"x_min":74,"x_max":884,"o":"m 74 0 m 232 495 l 163 0 l 74 0 l 216 1010 l 304 1010 l 244 574 l 324 574 l 775 1010 l 884 1010 l 399 543 l 739 0 l 630 0 l 322 495 l 232 495 m 164 -379 l 321 -126 l 457 -126 l 241 -379 l 164 -379 z "},"L":{"ha":884,"x_min":138,"x_max":679,"o":"m 138 0 l 279 1010 l 367 1010 l 237 80 l 679 80 l 668 0 l 138 0 z "},"Ĺ":{"ha":884,"x_min":138,"x_max":705,"o":"m 138 0 m 138 0 l 279 1010 l 367 1010 l 237 80 l 679 80 l 668 0 l 138 0 m 354 1136 l 568 1389 l 705 1389 l 431 1136 l 354 1136 z "},"Ļ":{"ha":884,"x_min":138,"x_max":679,"o":"m 138 0 m 138 0 l 279 1010 l 367 1010 l 237 80 l 679 80 l 668 0 l 138 0 m 183 -379 l 340 -126 l 476 -126 l 260 -379 l 183 -379 z "},"Ľ":{"ha":884,"x_min":138,"x_max":838,"o":"m 138 0 m 138 0 l 279 1010 l 367 1010 l 237 80 l 679 80 l 668 0 l 138 0 m 564 676 l 713 1010 l 838 1010 l 633 676 l 564 676 z "},"M":{"ha":884,"x_min":33,"x_max":851,"o":"m 362 253 l 239 866 l 116 0 l 33 0 l 174 1010 l 293 1010 l 423 352 l 736 1010 l 851 1010 l 710 0 l 626 0 l 747 865 l 451 253 l 362 253 z "},"N":{"ha":884,"x_min":74,"x_max":809,"o":"m 552 0 l 279 871 l 157 0 l 74 0 l 216 1010 l 324 1010 l 604 120 l 727 1010 l 809 1010 l 668 0 l 552 0 z "},"Ñ":{"ha":884,"x_min":74,"x_max":832,"o":"m 74 0 m 552 0 l 279 871 l 157 0 l 74 0 l 216 1010 l 324 1010 l 604 120 l 727 1010 l 809 1010 l 668 0 l 552 0 m 659 1149 q 590 1172 616 1149 q 540 1246 564 1196 q 506 1308 521 1288 q 468 1328 490 1328 q 413 1294 436 1328 q 381 1176 390 1259 l 379 1162 l 308 1162 l 311 1181 q 370 1343 326 1284 q 482 1402 414 1402 q 554 1378 528 1402 q 600 1308 580 1355 q 638 1244 622 1265 q 673 1222 653 1222 q 727 1257 705 1222 q 760 1375 749 1292 l 761 1389 l 832 1389 l 830 1370 q 771 1208 816 1266 q 659 1149 727 1149 z "},"Ń":{"ha":884,"x_min":74,"x_max":809,"o":"m 74 0 m 552 0 l 279 871 l 157 0 l 74 0 l 216 1010 l 324 1010 l 604 120 l 727 1010 l 809 1010 l 668 0 l 552 0 m 442 1136 l 657 1389 l 793 1389 l 519 1136 l 442 1136 z "},"Ņ":{"ha":884,"x_min":74,"x_max":809,"o":"m 74 0 m 552 0 l 279 871 l 157 0 l 74 0 l 216 1010 l 324 1010 l 604 120 l 727 1010 l 809 1010 l 668 0 l 552 0 m 139 -379 l 295 -126 l 432 -126 l 216 -379 l 139 -379 z "},"Ň":{"ha":884,"x_min":74,"x_max":830,"o":"m 74 0 m 552 0 l 279 871 l 157 0 l 74 0 l 216 1010 l 324 1010 l 604 120 l 727 1010 l 809 1010 l 668 0 l 552 0 m 521 1141 l 330 1343 l 371 1396 l 563 1226 l 802 1396 l 830 1343 l 582 1141 l 521 1141 z "},"O":{"ha":884,"x_min":73,"x_max":811,"o":"m 370 -13 q 142 78 211 -13 q 98 350 73 168 l 141 655 q 262 931 167 840 q 516 1023 357 1023 q 742 931 674 1023 q 785 655 811 840 l 742 350 q 623 78 717 168 q 370 -13 529 -13 m 380 67 q 569 133 505 67 q 654 350 633 199 l 697 655 q 674 876 718 809 q 504 943 629 943 q 315 876 379 943 q 230 655 251 809 l 187 350 q 210 133 165 199 q 380 67 255 67 z "},"Ò":{"ha":884,"x_min":73,"x_max":811,"o":"m 73 0 m 370 -13 q 142 78 211 -13 q 98 350 73 168 l 141 655 q 262 931 167 840 q 516 1023 357 1023 q 742 931 674 1023 q 785 655 811 840 l 742 350 q 623 78 717 168 q 370 -13 529 -13 m 380 67 q 569 133 505 67 q 654 350 633 199 l 697 655 q 674 876 718 809 q 504 943 629 943 q 315 876 379 943 q 230 655 251 809 l 187 350 q 210 133 165 199 q 380 67 255 67 m 545 1136 l 342 1389 l 479 1389 l 622 1136 l 545 1136 z "},"Ó":{"ha":884,"x_min":73,"x_max":818,"o":"m 73 0 m 370 -13 q 142 78 211 -13 q 98 350 73 168 l 141 655 q 262 931 167 840 q 516 1023 357 1023 q 742 931 674 1023 q 785 655 811 840 l 742 350 q 623 78 717 168 q 370 -13 529 -13 m 380 67 q 569 133 505 67 q 654 350 633 199 l 697 655 q 674 876 718 809 q 504 943 629 943 q 315 876 379 943 q 230 655 251 809 l 187 350 q 210 133 165 199 q 380 67 255 67 m 467 1136 l 682 1389 l 818 1389 l 544 1136 l 467 1136 z "},"Ô":{"ha":884,"x_min":73,"x_max":811,"o":"m 73 0 m 370 -13 q 142 78 211 -13 q 98 350 73 168 l 141 655 q 262 931 167 840 q 516 1023 357 1023 q 742 931 674 1023 q 785 655 811 840 l 742 350 q 623 78 717 168 q 370 -13 529 -13 m 380 67 q 569 133 505 67 q 654 350 633 199 l 697 655 q 674 876 718 809 q 504 943 629 943 q 315 876 379 943 q 230 655 251 809 l 187 350 q 210 133 165 199 q 380 67 255 67 m 312 1155 l 285 1208 l 533 1410 l 593 1410 l 785 1208 l 742 1155 l 551 1326 l 312 1155 z "},"Õ":{"ha":884,"x_min":73,"x_max":811,"o":"m 73 0 m 370 -13 q 142 78 211 -13 q 98 350 73 168 l 141 655 q 262 931 167 840 q 516 1023 357 1023 q 742 931 674 1023 q 785 655 811 840 l 742 350 q 623 78 717 168 q 370 -13 529 -13 m 380 67 q 569 133 505 67 q 654 350 633 199 l 697 655 q 674 876 718 809 q 504 943 629 943 q 315 876 379 943 q 230 655 251 809 l 187 350 q 210 133 165 199 q 380 67 255 67 m 634 1149 q 565 1172 591 1149 q 515 1246 539 1196 q 480 1308 496 1288 q 443 1328 465 1328 q 388 1294 410 1328 q 356 1176 365 1259 l 354 1162 l 283 1162 l 285 1181 q 345 1343 301 1284 q 457 1402 389 1402 q 528 1378 503 1402 q 574 1308 554 1355 q 612 1244 597 1265 q 648 1222 628 1222 q 701 1257 679 1222 q 735 1375 723 1292 l 736 1389 l 807 1389 l 804 1370 q 746 1208 790 1266 q 634 1149 702 1149 z "},"Ö":{"ha":884,"x_min":73,"x_max":811,"o":"m 73 0 m 370 -13 q 142 78 211 -13 q 98 350 73 168 l 141 655 q 262 931 167 840 q 516 1023 357 1023 q 742 931 674 1023 q 785 655 811 840 l 742 350 q 623 78 717 168 q 370 -13 529 -13 m 380 67 q 569 133 505 67 q 654 350 633 199 l 697 655 q 674 876 718 809 q 504 943 629 943 q 315 876 379 943 q 230 655 251 809 l 187 350 q 210 133 165 199 q 380 67 255 67 m 391 1164 q 345 1176 361 1164 q 333 1221 328 1188 l 335 1230 q 359 1277 340 1264 q 409 1289 379 1289 q 456 1277 439 1289 q 468 1230 473 1264 l 467 1221 q 441 1176 462 1188 q 391 1164 420 1164 m 667 1164 q 620 1176 636 1164 q 609 1221 604 1188 l 610 1230 q 634 1277 615 1264 q 684 1289 654 1289 q 732 1277 715 1289 q 744 1230 749 1264 l 742 1221 q 717 1176 737 1188 q 667 1164 696 1164 z "},"Ō":{"ha":884,"x_min":73,"x_max":811,"o":"m 73 0 m 370 -13 q 142 78 211 -13 q 98 350 73 168 l 141 655 q 262 931 167 840 q 516 1023 357 1023 q 742 931 674 1023 q 785 655 811 840 l 742 350 q 623 78 717 168 q 370 -13 529 -13 m 380 67 q 569 133 505 67 q 654 350 633 199 l 697 655 q 674 876 718 809 q 504 943 629 943 q 315 876 379 943 q 230 655 251 809 l 187 350 q 210 133 165 199 q 380 67 255 67 m 304 1225 l 316 1304 l 783 1304 l 771 1225 l 304 1225 z "},"Ŏ":{"ha":884,"x_min":73,"x_max":832,"o":"m 73 0 m 370 -13 q 142 78 211 -13 q 98 350 73 168 l 141 655 q 262 931 167 840 q 516 1023 357 1023 q 742 931 674 1023 q 785 655 811 840 l 742 350 q 623 78 717 168 q 370 -13 529 -13 m 380 67 q 569 133 505 67 q 654 350 633 199 l 697 655 q 674 876 718 809 q 504 943 629 943 q 315 876 379 943 q 230 655 251 809 l 187 350 q 210 133 165 199 q 380 67 255 67 m 524 1128 q 337 1193 400 1128 q 292 1393 274 1258 l 380 1393 q 406 1246 369 1290 q 535 1202 443 1202 q 677 1246 628 1202 q 744 1393 727 1290 l 832 1393 q 730 1193 812 1258 q 524 1128 648 1128 z "},"Ő":{"ha":884,"x_min":73,"x_max":841,"o":"m 73 0 m 370 -13 q 142 78 211 -13 q 98 350 73 168 l 141 655 q 262 931 167 840 q 516 1023 357 1023 q 742 931 674 1023 q 785 655 811 840 l 742 350 q 623 78 717 168 q 370 -13 529 -13 m 380 67 q 569 133 505 67 q 654 350 633 199 l 697 655 q 674 876 718 809 q 504 943 629 943 q 315 876 379 943 q 230 655 251 809 l 187 350 q 210 133 165 199 q 380 67 255 67 m 596 1136 l 702 1389 l 841 1389 l 663 1136 l 596 1136 m 336 1136 l 442 1389 l 581 1389 l 403 1136 l 336 1136 z "},"P":{"ha":884,"x_min":74,"x_max":828,"o":"m 74 0 l 216 1010 l 552 1010 q 763 943 698 1010 q 811 744 828 875 l 793 620 q 689 421 774 489 q 458 354 605 354 l 212 354 l 163 0 l 74 0 m 223 432 l 470 432 q 636 476 582 432 q 705 622 691 520 l 721 739 q 694 886 736 841 q 540 931 653 931 l 294 931 l 223 432 z "},"Q":{"ha":884,"x_min":73,"x_max":811,"o":"m 693 -241 q 426 -221 513 -279 q 357 -13 340 -163 q 138 83 203 -9 q 98 350 73 174 l 141 655 q 261 930 167 837 q 516 1023 356 1023 q 742 930 674 1023 q 785 655 811 837 l 742 350 q 645 102 720 192 q 446 -6 569 11 q 494 -155 433 -121 q 691 -163 556 -188 l 693 -241 m 381 72 q 569 137 506 72 q 654 350 633 202 l 697 655 q 673 872 718 806 q 503 938 628 938 q 314 872 378 938 q 230 655 251 806 l 187 350 q 211 137 165 202 q 381 72 256 72 z "},"R":{"ha":884,"x_min":74,"x_max":854,"o":"m 229 473 l 500 473 q 667 518 612 473 q 736 665 721 562 l 746 741 q 719 886 761 842 q 566 931 677 931 l 294 931 l 229 473 m 163 0 l 74 0 l 216 1010 l 577 1010 q 790 943 726 1010 q 836 744 854 875 l 824 664 q 737 475 807 543 q 542 396 667 407 l 746 0 l 646 0 l 444 394 l 218 394 l 163 0 z "},"Ŕ":{"ha":884,"x_min":74,"x_max":862,"o":"m 74 0 m 229 473 l 500 473 q 667 518 612 473 q 736 665 721 562 l 746 741 q 719 886 761 842 q 566 931 677 931 l 294 931 l 229 473 m 163 0 l 74 0 l 216 1010 l 577 1010 q 790 943 726 1010 q 836 744 854 875 l 824 664 q 737 475 807 543 q 542 396 667 407 l 746 0 l 646 0 l 444 394 l 218 394 l 163 0 m 511 1136 l 726 1389 l 862 1389 l 588 1136 l 511 1136 z "},"Ŗ":{"ha":884,"x_min":74,"x_max":854,"o":"m 74 0 m 229 473 l 500 473 q 667 518 612 473 q 736 665 721 562 l 746 741 q 719 886 761 842 q 566 931 677 931 l 294 931 l 229 473 m 163 0 l 74 0 l 216 1010 l 577 1010 q 790 943 726 1010 q 836 744 854 875 l 824 664 q 737 475 807 543 q 542 396 667 407 l 746 0 l 646 0 l 444 394 l 218 394 l 163 0 m 145 -379 l 302 -126 l 438 -126 l 222 -379 l 145 -379 z "},"Ř":{"ha":884,"x_min":74,"x_max":854,"o":"m 74 0 m 229 473 l 500 473 q 667 518 612 473 q 736 665 721 562 l 746 741 q 719 886 761 842 q 566 931 677 931 l 294 931 l 229 473 m 163 0 l 74 0 l 216 1010 l 577 1010 q 790 943 726 1010 q 836 744 854 875 l 824 664 q 737 475 807 543 q 542 396 667 407 l 746 0 l 646 0 l 444 394 l 218 394 l 163 0 m 503 1141 l 311 1343 l 352 1396 l 544 1226 l 783 1396 l 811 1343 l 563 1141 l 503 1141 z "},"S":{"ha":884,"x_min":49,"x_max":808,"o":"m 389 -8 q 191 33 274 -8 q 49 160 107 73 l 120 218 q 235 108 168 144 q 403 72 302 72 q 576 124 505 72 q 658 261 646 176 q 622 394 670 348 q 436 477 573 439 q 214 584 273 521 q 170 758 155 646 q 280 946 188 876 q 497 1015 372 1015 q 678 975 602 1015 q 808 852 754 936 l 739 792 q 633 900 694 864 q 487 936 572 936 q 333 891 395 936 q 259 768 270 847 q 296 641 247 684 q 486 558 345 597 q 703 451 645 514 q 745 269 761 389 q 625 68 727 143 q 389 -8 523 -8 z "},"":{"ha":884,"x_min":49,"x_max":808,"o":"m 389 -8 q 191 33 274 -8 q 49 160 107 73 l 120 218 q 235 108 168 144 q 403 72 302 72 q 576 124 505 72 q 658 261 646 176 q 622 394 670 348 q 436 477 573 439 q 214 584 273 521 q 170 758 155 646 q 280 946 188 876 q 497 1015 372 1015 q 678 975 602 1015 q 808 852 754 936 l 739 792 q 633 900 694 864 q 487 936 572 936 q 333 891 395 936 q 259 768 270 847 q 296 641 247 684 q 486 558 345 597 q 703 451 645 514 q 745 269 761 389 q 625 68 727 143 q 389 -8 523 -8 z "},"Ś":{"ha":884,"x_min":49,"x_max":808,"o":"m 49 0 m 389 -8 q 191 33 274 -8 q 49 160 107 73 l 120 218 q 235 108 168 144 q 403 72 302 72 q 576 124 505 72 q 658 261 646 176 q 622 394 670 348 q 436 477 573 439 q 214 584 273 521 q 170 758 155 646 q 280 946 188 876 q 497 1015 372 1015 q 678 975 602 1015 q 808 852 754 936 l 739 792 q 633 900 694 864 q 487 936 572 936 q 333 891 395 936 q 259 768 270 847 q 296 641 247 684 q 486 558 345 597 q 703 451 645 514 q 745 269 761 389 q 625 68 727 143 q 389 -8 523 -8 m 418 1136 l 633 1389 l 769 1389 l 495 1136 l 418 1136 z "},"Ŝ":{"ha":884,"x_min":49,"x_max":808,"o":"m 49 0 m 389 -8 q 191 33 274 -8 q 49 160 107 73 l 120 218 q 235 108 168 144 q 403 72 302 72 q 576 124 505 72 q 658 261 646 176 q 622 394 670 348 q 436 477 573 439 q 214 584 273 521 q 170 758 155 646 q 280 946 188 876 q 497 1015 372 1015 q 678 975 602 1015 q 808 852 754 936 l 739 792 q 633 900 694 864 q 487 936 572 936 q 333 891 395 936 q 259 768 270 847 q 296 641 247 684 q 486 558 345 597 q 703 451 645 514 q 745 269 761 389 q 625 68 727 143 q 389 -8 523 -8 m 313 1155 l 287 1208 l 534 1410 l 595 1410 l 787 1208 l 744 1155 l 552 1326 l 313 1155 z "},"Ş":{"ha":884,"x_min":49,"x_max":808,"o":"m 49 0 m 389 -8 q 191 33 274 -8 q 49 160 107 73 l 120 218 q 235 108 168 144 q 403 72 302 72 q 576 124 505 72 q 658 261 646 176 q 622 394 670 348 q 436 477 573 439 q 214 584 273 521 q 170 758 155 646 q 280 946 188 876 q 497 1015 372 1015 q 678 975 602 1015 q 808 852 754 936 l 739 792 q 633 900 694 864 q 487 936 572 936 q 333 891 395 936 q 259 768 270 847 q 296 641 247 684 q 486 558 345 597 q 703 451 645 514 q 745 269 761 389 q 625 68 727 143 q 389 -8 523 -8 m 335 0 l 357 38 q 463 -14 424 25 q 491 -122 501 -53 q 426 -234 481 -196 q 294 -273 371 -273 q 174 -241 218 -273 q 135 -135 130 -210 l 217 -128 q 234 -183 216 -167 q 298 -199 253 -199 q 377 -181 351 -199 q 409 -112 403 -162 q 399 -39 417 -64 q 335 0 381 -14 z "},"Š":{"ha":884,"x_min":49,"x_max":808,"o":"m 49 0 m 389 -8 q 191 33 274 -8 q 49 160 107 73 l 120 218 q 235 108 168 144 q 403 72 302 72 q 576 124 505 72 q 658 261 646 176 q 622 394 670 348 q 436 477 573 439 q 214 584 273 521 q 170 758 155 646 q 280 946 188 876 q 497 1015 372 1015 q 678 975 602 1015 q 808 852 754 936 l 739 792 q 633 900 694 864 q 487 936 572 936 q 333 891 395 936 q 259 768 270 847 q 296 641 247 684 q 486 558 345 597 q 703 451 645 514 q 745 269 761 389 q 625 68 727 143 q 389 -8 523 -8 m 497 1141 l 306 1343 l 347 1396 l 539 1226 l 778 1396 l 806 1343 l 558 1141 l 497 1141 z "},"Ș":{"ha":884,"x_min":49,"x_max":808,"o":"m 49 0 m 389 -8 q 191 33 274 -8 q 49 160 107 73 l 120 218 q 235 108 168 144 q 403 72 302 72 q 576 124 505 72 q 658 261 646 176 q 622 394 670 348 q 436 477 573 439 q 214 584 273 521 q 170 758 155 646 q 280 946 188 876 q 497 1015 372 1015 q 678 975 602 1015 q 808 852 754 936 l 739 792 q 633 900 694 864 q 487 936 572 936 q 333 891 395 936 q 259 768 270 847 q 296 641 247 684 q 486 558 345 597 q 703 451 645 514 q 745 269 761 389 q 625 68 727 143 q 389 -8 523 -8 m 139 -379 l 295 -126 l 432 -126 l 216 -379 l 139 -379 z "},"T":{"ha":884,"x_min":143,"x_max":872,"o":"m 327 0 l 458 931 l 143 931 l 153 1010 l 872 1010 l 862 931 l 547 931 l 415 0 l 327 0 z "},"Ţ":{"ha":884,"x_min":125,"x_max":872,"o":"m 125 0 m 327 0 l 458 931 l 143 931 l 153 1010 l 872 1010 l 862 931 l 547 931 l 415 0 l 327 0 m 330 0 l 352 38 q 458 -14 419 25 q 486 -122 496 -53 q 421 -234 476 -196 q 289 -273 366 -273 q 169 -241 213 -273 q 130 -135 125 -210 l 212 -128 q 229 -183 211 -167 q 293 -199 247 -199 q 372 -181 346 -199 q 404 -112 398 -162 q 394 -39 412 -64 q 330 0 376 -14 z "},"Ť":{"ha":884,"x_min":143,"x_max":872,"o":"m 143 0 m 327 0 l 458 931 l 143 931 l 153 1010 l 872 1010 l 862 931 l 547 931 l 415 0 l 327 0 m 496 1141 l 304 1343 l 346 1396 l 538 1226 l 777 1396 l 804 1343 l 557 1141 l 496 1141 z "},"Ț":{"ha":884,"x_min":138,"x_max":872,"o":"m 138 0 m 327 0 l 458 931 l 143 931 l 153 1010 l 872 1010 l 862 931 l 547 931 l 415 0 l 327 0 m 138 -379 l 294 -126 l 431 -126 l 215 -379 l 138 -379 z "},"U":{"ha":884,"x_min":97,"x_max":809,"o":"m 370 -13 q 158 76 220 -13 q 124 350 97 165 l 216 1010 l 304 1010 l 212 350 q 229 133 191 198 q 380 67 268 67 q 550 133 492 67 q 629 350 607 198 l 721 1010 l 809 1010 l 717 350 q 605 76 691 165 q 370 -13 520 -13 z "},"Ù":{"ha":884,"x_min":97,"x_max":809,"o":"m 97 0 m 370 -13 q 158 76 220 -13 q 124 350 97 165 l 216 1010 l 304 1010 l 212 350 q 229 133 191 198 q 380 67 268 67 q 550 133 492 67 q 629 350 607 198 l 721 1010 l 809 1010 l 717 350 q 605 76 691 165 q 370 -13 520 -13 m 545 1136 l 342 1389 l 479 1389 l 622 1136 l 545 1136 z "},"Ú":{"ha":884,"x_min":97,"x_max":809,"o":"m 97 0 m 370 -13 q 158 76 220 -13 q 124 350 97 165 l 216 1010 l 304 1010 l 212 350 q 229 133 191 198 q 380 67 268 67 q 550 133 492 67 q 629 350 607 198 l 721 1010 l 809 1010 l 717 350 q 605 76 691 165 q 370 -13 520 -13 m 417 1136 l 631 1389 l 768 1389 l 494 1136 l 417 1136 z "},"Û":{"ha":884,"x_min":97,"x_max":809,"o":"m 97 0 m 370 -13 q 158 76 220 -13 q 124 350 97 165 l 216 1010 l 304 1010 l 212 350 q 229 133 191 198 q 380 67 268 67 q 550 133 492 67 q 629 350 607 198 l 721 1010 l 809 1010 l 717 350 q 605 76 691 165 q 370 -13 520 -13 m 312 1155 l 285 1208 l 533 1410 l 593 1410 l 785 1208 l 742 1155 l 551 1326 l 312 1155 z "},"Ü":{"ha":884,"x_min":97,"x_max":809,"o":"m 97 0 m 370 -13 q 158 76 220 -13 q 124 350 97 165 l 216 1010 l 304 1010 l 212 350 q 229 133 191 198 q 380 67 268 67 q 550 133 492 67 q 629 350 607 198 l 721 1010 l 809 1010 l 717 350 q 605 76 691 165 q 370 -13 520 -13 m 391 1164 q 345 1176 361 1164 q 333 1221 328 1188 l 335 1230 q 359 1277 340 1264 q 409 1289 379 1289 q 456 1277 439 1289 q 468 1230 473 1264 l 467 1221 q 441 1176 462 1188 q 391 1164 420 1164 m 667 1164 q 620 1176 636 1164 q 609 1221 604 1188 l 610 1230 q 634 1277 615 1264 q 684 1289 654 1289 q 732 1277 715 1289 q 744 1230 749 1264 l 742 1221 q 717 1176 737 1188 q 667 1164 696 1164 z "},"Ũ":{"ha":884,"x_min":97,"x_max":809,"o":"m 97 0 m 370 -13 q 158 76 220 -13 q 124 350 97 165 l 216 1010 l 304 1010 l 212 350 q 229 133 191 198 q 380 67 268 67 q 550 133 492 67 q 629 350 607 198 l 721 1010 l 809 1010 l 717 350 q 605 76 691 165 q 370 -13 520 -13 m 634 1149 q 565 1172 591 1149 q 515 1246 539 1196 q 480 1308 496 1288 q 443 1328 465 1328 q 388 1294 410 1328 q 356 1176 365 1259 l 354 1162 l 283 1162 l 285 1181 q 345 1343 301 1284 q 457 1402 389 1402 q 528 1378 503 1402 q 574 1308 554 1355 q 612 1244 597 1265 q 648 1222 628 1222 q 701 1257 679 1222 q 735 1375 723 1292 l 736 1389 l 807 1389 l 804 1370 q 746 1208 790 1266 q 634 1149 702 1149 z "},"Ū":{"ha":884,"x_min":97,"x_max":809,"o":"m 97 0 m 370 -13 q 158 76 220 -13 q 124 350 97 165 l 216 1010 l 304 1010 l 212 350 q 229 133 191 198 q 380 67 268 67 q 550 133 492 67 q 629 350 607 198 l 721 1010 l 809 1010 l 717 350 q 605 76 691 165 q 370 -13 520 -13 m 304 1225 l 316 1304 l 783 1304 l 771 1225 l 304 1225 z "},"Ŭ":{"ha":884,"x_min":97,"x_max":832,"o":"m 97 0 m 370 -13 q 158 76 220 -13 q 124 350 97 165 l 216 1010 l 304 1010 l 212 350 q 229 133 191 198 q 380 67 268 67 q 550 133 492 67 q 629 350 607 198 l 721 1010 l 809 1010 l 717 350 q 605 76 691 165 q 370 -13 520 -13 m 524 1128 q 337 1193 400 1128 q 292 1393 274 1258 l 380 1393 q 406 1246 369 1290 q 535 1202 443 1202 q 677 1246 628 1202 q 744 1393 727 1290 l 832 1393 q 730 1193 812 1258 q 524 1128 648 1128 z "},"Ů":{"ha":884,"x_min":97,"x_max":809,"o":"m 97 0 m 370 -13 q 158 76 220 -13 q 124 350 97 165 l 216 1010 l 304 1010 l 212 350 q 229 133 191 198 q 380 67 268 67 q 550 133 492 67 q 629 350 607 198 l 721 1010 l 809 1010 l 717 350 q 605 76 691 165 q 370 -13 520 -13 m 523 1117 q 393 1164 436 1117 q 362 1301 350 1210 l 367 1341 q 437 1480 380 1433 q 581 1528 494 1528 q 711 1480 668 1528 q 741 1341 754 1433 l 736 1301 q 667 1164 723 1210 q 523 1117 610 1117 m 533 1184 q 621 1211 591 1184 q 660 1301 652 1239 l 665 1341 q 652 1432 674 1403 q 571 1461 629 1461 q 482 1432 513 1461 q 443 1341 452 1403 l 438 1301 q 452 1211 429 1239 q 533 1184 475 1184 z "},"Ű":{"ha":884,"x_min":97,"x_max":854,"o":"m 97 0 m 370 -13 q 158 76 220 -13 q 124 350 97 165 l 216 1010 l 304 1010 l 212 350 q 229 133 191 198 q 380 67 268 67 q 550 133 492 67 q 629 350 607 198 l 721 1010 l 809 1010 l 717 350 q 605 76 691 165 q 370 -13 520 -13 m 609 1136 l 715 1389 l 854 1389 l 676 1136 l 609 1136 m 348 1136 l 455 1389 l 593 1389 l 415 1136 l 348 1136 z "},"Ų":{"ha":884,"x_min":97,"x_max":809,"o":"m 97 0 m 370 -13 q 158 76 220 -13 q 124 350 97 165 l 216 1010 l 304 1010 l 212 350 q 229 133 191 198 q 380 67 268 67 q 550 133 492 67 q 629 350 607 198 l 721 1010 l 809 1010 l 717 350 q 605 76 691 165 q 370 -13 520 -13 m 415 -271 q 295 -233 340 -271 q 260 -129 250 -194 q 318 -23 268 -71 q 436 49 369 24 l 456 29 q 378 -34 404 0 q 346 -105 351 -68 q 362 -170 340 -149 q 437 -192 385 -192 q 488 -189 461 -192 q 539 -181 515 -186 l 528 -260 q 471 -268 503 -265 q 415 -271 439 -271 z "},"V":{"ha":884,"x_min":140,"x_max":886,"o":"m 412 0 l 332 0 l 140 1010 l 239 1010 l 391 129 l 792 1010 l 886 1010 l 412 0 z "},"W":{"ha":884,"x_min":119,"x_max":898,"o":"m 535 0 l 465 657 l 207 0 l 119 0 l 128 1010 l 212 1010 l 197 141 l 436 765 l 528 765 l 591 146 l 813 1010 l 898 1010 l 624 0 l 535 0 z "},"Ŵ":{"ha":884,"x_min":119,"x_max":898,"o":"m 119 0 m 535 0 l 465 657 l 207 0 l 119 0 l 128 1010 l 212 1010 l 197 141 l 436 765 l 528 765 l 591 146 l 813 1010 l 898 1010 l 624 0 l 535 0 m 312 1155 l 285 1208 l 533 1410 l 593 1410 l 785 1208 l 742 1155 l 551 1326 l 312 1155 z "},"Ẁ":{"ha":884,"x_min":119,"x_max":898,"o":"m 119 0 m 535 0 l 465 657 l 207 0 l 119 0 l 128 1010 l 212 1010 l 197 141 l 436 765 l 528 765 l 591 146 l 813 1010 l 898 1010 l 624 0 l 535 0 m 558 1136 l 355 1389 l 491 1389 l 635 1136 l 558 1136 z "},"Ẃ":{"ha":884,"x_min":119,"x_max":898,"o":"m 119 0 m 535 0 l 465 657 l 207 0 l 119 0 l 128 1010 l 212 1010 l 197 141 l 436 765 l 528 765 l 591 146 l 813 1010 l 898 1010 l 624 0 l 535 0 m 429 1136 l 644 1389 l 780 1389 l 506 1136 l 429 1136 z "},"Ẅ":{"ha":884,"x_min":119,"x_max":898,"o":"m 119 0 m 535 0 l 465 657 l 207 0 l 119 0 l 128 1010 l 212 1010 l 197 141 l 436 765 l 528 765 l 591 146 l 813 1010 l 898 1010 l 624 0 l 535 0 m 391 1164 q 345 1176 361 1164 q 333 1221 328 1188 l 335 1230 q 359 1277 340 1264 q 409 1289 379 1289 q 456 1277 439 1289 q 468 1230 473 1264 l 467 1221 q 441 1176 462 1188 q 391 1164 420 1164 m 667 1164 q 620 1176 636 1164 q 609 1221 604 1188 l 610 1230 q 634 1277 615 1264 q 684 1289 654 1289 q 732 1277 715 1289 q 744 1230 749 1264 l 742 1221 q 717 1176 737 1188 q 667 1164 696 1164 z "},"X":{"ha":884,"x_min":-24,"x_max":910,"o":"m 668 0 l 439 447 l 80 0 l -24 0 l 400 518 l 149 1010 l 246 1010 l 465 585 l 807 1010 l 910 1010 l 503 514 l 765 0 l 668 0 z "},"Y":{"ha":884,"x_min":107,"x_max":917,"o":"m 415 0 l 327 0 l 380 379 l 107 1010 l 207 1010 l 439 461 l 819 1010 l 917 1010 l 468 379 l 415 0 z "},"Ý":{"ha":884,"x_min":107,"x_max":917,"o":"m 107 0 m 415 0 l 327 0 l 380 379 l 107 1010 l 207 1010 l 439 461 l 819 1010 l 917 1010 l 468 379 l 415 0 m 417 1136 l 631 1389 l 768 1389 l 494 1136 l 417 1136 z "},"Ŷ":{"ha":884,"x_min":107,"x_max":917,"o":"m 107 0 m 415 0 l 327 0 l 380 379 l 107 1010 l 207 1010 l 439 461 l 819 1010 l 917 1010 l 468 379 l 415 0 m 312 1155 l 285 1208 l 533 1410 l 593 1410 l 785 1208 l 742 1155 l 551 1326 l 312 1155 z "},"Ÿ":{"ha":884,"x_min":107,"x_max":917,"o":"m 107 0 m 415 0 l 327 0 l 380 379 l 107 1010 l 207 1010 l 439 461 l 819 1010 l 917 1010 l 468 379 l 415 0 m 391 1164 q 345 1176 361 1164 q 333 1221 328 1188 l 335 1230 q 359 1277 340 1264 q 409 1289 379 1289 q 456 1277 439 1289 q 468 1230 473 1264 l 467 1221 q 441 1176 462 1188 q 391 1164 420 1164 m 667 1164 q 620 1176 636 1164 q 609 1221 604 1188 l 610 1230 q 634 1277 615 1264 q 684 1289 654 1289 q 732 1277 715 1289 q 744 1230 749 1264 l 742 1221 q 717 1176 737 1188 q 667 1164 696 1164 z "},"Ỳ":{"ha":884,"x_min":107,"x_max":917,"o":"m 107 0 m 415 0 l 327 0 l 380 379 l 107 1010 l 207 1010 l 439 461 l 819 1010 l 917 1010 l 468 379 l 415 0 m 545 1136 l 342 1389 l 479 1389 l 622 1136 l 545 1136 z "},"Z":{"ha":884,"x_min":49,"x_max":842,"o":"m 701 0 l 49 0 l 61 80 l 727 931 l 181 931 l 191 1010 l 842 1010 l 832 931 l 164 80 l 712 80 l 701 0 z "},"Ź":{"ha":884,"x_min":49,"x_max":842,"o":"m 49 0 m 701 0 l 49 0 l 61 80 l 727 931 l 181 931 l 191 1010 l 842 1010 l 832 931 l 164 80 l 712 80 l 701 0 m 455 1136 l 669 1389 l 806 1389 l 532 1136 l 455 1136 z "},"Ż":{"ha":884,"x_min":49,"x_max":842,"o":"m 49 0 m 701 0 l 49 0 l 61 80 l 727 931 l 181 931 l 191 1010 l 842 1010 l 832 931 l 164 80 l 712 80 l 701 0 m 529 1164 q 473 1176 494 1164 q 457 1221 452 1188 l 458 1230 q 487 1277 463 1264 q 547 1289 511 1289 q 604 1277 582 1289 q 620 1230 625 1264 l 619 1221 q 589 1176 614 1188 q 529 1164 564 1164 z "},"Ž":{"ha":884,"x_min":49,"x_max":842,"o":"m 49 0 m 701 0 l 49 0 l 61 80 l 727 931 l 181 931 l 191 1010 l 842 1010 l 832 931 l 164 80 l 712 80 l 701 0 m 496 1141 l 304 1343 l 346 1396 l 538 1226 l 777 1396 l 804 1343 l 557 1141 l 496 1141 z "},"Æ":{"ha":884,"x_min":-56,"x_max":923,"o":"m 429 936 l 188 380 l 452 380 l 530 936 l 429 936 m 442 306 l 155 306 l 23 0 l -56 0 l 389 1010 l 923 1010 l 913 936 l 614 936 l 564 580 l 851 580 l 840 505 l 553 505 l 492 74 l 792 74 l 782 0 l 399 0 l 442 306 z "},"Ǽ":{"ha":884,"x_min":-56,"x_max":932,"o":"m 0 0 m 429 936 l 188 380 l 452 380 l 530 936 l 429 936 m 442 306 l 155 306 l 23 0 l -56 0 l 389 1010 l 923 1010 l 913 936 l 614 936 l 564 580 l 851 580 l 840 505 l 553 505 l 492 74 l 792 74 l 782 0 l 399 0 l 442 306 m 581 1136 l 795 1389 l 932 1389 l 658 1136 l 581 1136 z "},"Ð":{"ha":884,"x_min":20,"x_max":807,"o":"m 20 514 l 32 593 l 436 593 l 424 514 l 20 514 m 74 0 l 216 1010 l 476 1010 q 725 910 644 1010 q 784 643 807 809 l 744 362 q 612 98 721 197 q 333 0 503 0 l 74 0 m 174 80 l 345 80 q 560 158 482 80 q 655 362 638 236 l 696 643 q 657 849 712 768 q 465 931 602 931 l 294 931 l 174 80 z "},"Ø":{"ha":884,"x_min":54,"x_max":804,"o":"m 199 152 l 616 924 q 567 938 595 933 q 504 943 539 943 q 314 877 378 943 q 230 655 251 811 l 187 350 q 181 234 177 283 q 199 152 184 184 m 380 67 q 569 132 506 67 q 654 350 633 197 l 697 655 q 702 791 708 735 q 672 881 696 847 l 249 96 q 304 74 271 81 q 380 67 337 67 m 370 -13 q 282 -4 322 -13 q 211 20 242 4 l 143 -107 l 54 -107 l 149 68 q 98 184 111 112 q 98 350 85 255 l 141 655 q 262 931 167 840 q 516 1023 357 1023 q 590 1017 556 1023 q 653 999 625 1011 l 716 1117 l 804 1117 l 718 958 q 783 838 766 914 q 785 655 801 761 l 742 350 q 622 78 717 168 q 370 -13 528 -13 z "},"Ǿ":{"ha":884,"x_min":54,"x_max":818,"o":"m 54 0 m 199 152 l 616 924 q 567 938 595 933 q 504 943 539 943 q 314 877 378 943 q 230 655 251 811 l 187 350 q 181 234 177 283 q 199 152 184 184 m 380 67 q 569 132 506 67 q 654 350 633 197 l 697 655 q 702 791 708 735 q 672 881 696 847 l 249 96 q 304 74 271 81 q 380 67 337 67 m 370 -13 q 282 -4 322 -13 q 211 20 242 4 l 143 -107 l 54 -107 l 149 68 q 98 184 111 112 q 98 350 85 255 l 141 655 q 262 931 167 840 q 516 1023 357 1023 q 590 1017 556 1023 q 653 999 625 1011 l 716 1117 l 804 1117 l 718 958 q 783 838 766 914 q 785 655 801 761 l 742 350 q 622 78 717 168 q 370 -13 528 -13 m 467 1136 l 682 1389 l 818 1389 l 544 1136 l 467 1136 z "},"Þ":{"ha":884,"x_min":74,"x_max":806,"o":"m 74 0 l 216 1010 l 304 1010 l 282 846 l 529 846 q 740 778 674 846 q 788 580 806 711 l 771 463 q 667 259 753 330 q 436 189 582 189 l 189 189 l 163 0 l 74 0 m 201 268 l 447 268 q 614 313 559 268 q 683 463 668 357 l 699 580 q 671 723 713 681 q 516 766 629 766 l 270 766 l 201 268 z "},"Đ":{"ha":884,"x_min":20,"x_max":807,"o":"m 20 514 l 32 593 l 436 593 l 424 514 l 20 514 m 74 0 l 216 1010 l 476 1010 q 725 910 644 1010 q 784 643 807 809 l 744 362 q 612 98 721 197 q 333 0 503 0 l 74 0 m 174 80 l 345 80 q 560 158 482 80 q 655 362 638 236 l 696 643 q 657 849 712 768 q 465 931 602 931 l 294 931 l 174 80 z "},"Ħ":{"ha":884,"x_min":51,"x_max":908,"o":"m 235 513 l 652 513 l 682 726 l 265 726 l 235 513 m 223 433 l 163 0 l 74 0 l 177 726 l 51 726 l 62 806 l 188 806 l 216 1010 l 304 1010 l 277 806 l 693 806 l 721 1010 l 809 1010 l 782 806 l 908 806 l 896 726 l 770 726 l 668 0 l 580 0 l 640 433 l 223 433 z "},"Ĳ":{"ha":884,"x_min":24,"x_max":861,"o":"m 112 0 l 24 0 l 165 1010 l 254 1010 l 112 0 m 486 -13 q 328 59 375 -13 q 295 306 280 131 l 385 316 q 399 122 375 177 q 497 67 423 67 q 617 126 577 67 q 674 302 658 186 l 763 931 l 504 931 l 514 1010 l 861 1010 l 763 303 q 674 66 740 144 q 486 -13 607 -13 z "},"Ŀ":{"ha":884,"x_min":138,"x_max":898,"o":"m 138 0 m 138 0 l 279 1010 l 367 1010 l 237 80 l 679 80 l 668 0 l 138 0 m 802 533 q 746 545 766 533 q 730 590 725 557 l 731 598 q 760 645 736 633 q 819 658 784 658 q 876 645 855 658 q 893 598 898 633 l 891 590 q 862 545 886 557 q 802 533 837 533 z "},"Ł":{"ha":884,"x_min":72,"x_max":679,"o":"m 72 428 l 82 503 l 638 679 l 626 605 l 72 428 m 138 0 l 279 1010 l 367 1010 l 237 80 l 679 80 l 668 0 l 138 0 z "},"Ŋ":{"ha":884,"x_min":74,"x_max":792,"o":"m 357 -263 q 273 -254 316 -263 q 183 -230 230 -246 l 216 -148 q 295 -172 259 -164 q 365 -181 331 -181 q 513 -123 456 -181 q 587 57 571 -66 l 682 725 q 660 886 697 835 q 543 937 622 937 q 407 896 468 937 q 273 779 346 856 l 163 0 l 74 0 l 216 1010 l 304 1010 l 284 859 l 307 859 q 432 980 361 937 q 581 1023 503 1023 q 740 951 688 1023 q 774 755 792 880 l 673 40 q 567 -184 653 -106 q 357 -263 481 -263 z "},"Œ":{"ha":884,"x_min":-15,"x_max":936,"o":"m 274 0 q 55 97 125 0 q 8 362 -15 194 l 48 643 q 169 911 71 812 q 414 1010 266 1010 l 936 1010 l 926 936 l 614 936 l 566 591 l 878 591 l 866 516 l 554 516 l 492 74 l 804 74 l 794 0 l 274 0 m 284 74 l 409 74 l 530 936 l 405 936 q 220 858 289 936 q 131 643 150 780 l 91 362 q 120 150 72 226 q 284 74 168 74 z "},"Ŧ":{"ha":884,"x_min":133,"x_max":872,"o":"m 133 410 l 144 490 l 737 490 l 726 410 l 133 410 m 327 0 l 458 931 l 143 931 l 153 1010 l 872 1010 l 862 931 l 547 931 l 415 0 l 327 0 z "},"Α":{"ha":884,"x_min":-1,"x_max":745,"o":"m 0 0 m 583 385 l 495 893 l 264 385 l 583 385 m 649 0 l 596 306 l 227 306 l 90 0 l -1 0 l 473 1010 l 553 1010 l 745 0 l 649 0 z "},"Ά":{"ha":884,"x_min":-1,"x_max":745,"o":"m 0 0 m 583 385 l 495 893 l 264 385 l 583 385 m 649 0 l 596 306 l 227 306 l 90 0 l -1 0 l 473 1010 l 553 1010 l 745 0 l 649 0 m 102 884 l 241 1136 l 372 1136 l 174 884 l 102 884 z "},"Β":{"ha":884,"x_min":74,"x_max":783,"o":"m 74 0 m 74 0 l 216 1010 l 518 1010 q 720 950 657 1010 q 766 773 783 890 l 759 716 q 705 603 749 649 q 597 545 662 557 l 593 524 q 714 459 673 516 q 742 314 755 402 l 735 258 q 631 65 716 130 q 395 0 545 0 l 74 0 m 242 567 l 461 567 q 612 604 563 567 q 674 729 662 641 l 679 764 q 653 891 692 852 q 513 931 615 931 l 294 931 l 242 567 m 174 80 l 418 80 q 580 122 527 80 q 646 264 633 165 l 653 304 q 625 445 667 403 q 475 487 583 487 l 231 487 l 174 80 z "},"Γ":{"ha":884,"x_min":74,"x_max":835,"o":"m 74 0 l 216 1010 l 835 1010 l 824 931 l 294 931 l 163 0 l 74 0 z "},"Δ":{"ha":884,"x_min":-1,"x_max":755,"o":"m -1 0 l 10 80 l 467 1010 l 547 1010 l 755 80 l 744 0 l -1 0 m 664 80 l 495 903 l 96 80 l 664 80 z "},"Ε":{"ha":884,"x_min":74,"x_max":835,"o":"m 74 0 m 74 0 l 216 1010 l 835 1010 l 824 931 l 294 931 l 246 591 l 713 591 l 702 511 l 235 511 l 174 80 l 705 80 l 693 0 l 74 0 z "},"Έ":{"ha":884,"x_min":-74,"x_max":835,"o":"m 0 0 m 74 0 l 216 1010 l 835 1010 l 824 931 l 294 931 l 246 591 l 713 591 l 702 511 l 235 511 l 174 80 l 705 80 l 693 0 l 74 0 m -74 884 l 64 1136 l 196 1136 l -3 884 l -74 884 z "},"Ζ":{"ha":884,"x_min":49,"x_max":842,"o":"m 49 0 m 701 0 l 49 0 l 61 80 l 727 931 l 181 931 l 191 1010 l 842 1010 l 832 931 l 164 80 l 712 80 l 701 0 z "},"Η":{"ha":884,"x_min":74,"x_max":809,"o":"m 74 0 m 74 0 l 216 1010 l 304 1010 l 246 591 l 663 591 l 721 1010 l 809 1010 l 668 0 l 580 0 l 652 511 l 235 511 l 163 0 l 74 0 z "},"Ή":{"ha":884,"x_min":-87,"x_max":809,"o":"m 0 0 m 74 0 l 216 1010 l 304 1010 l 246 591 l 663 591 l 721 1010 l 809 1010 l 668 0 l 580 0 l 652 511 l 235 511 l 163 0 l 74 0 m -87 884 l 52 1136 l 183 1136 l -15 884 l -87 884 z "},"Θ":{"ha":884,"x_min":58,"x_max":826,"o":"m 370 -13 q 131 79 203 -13 q 83 350 58 170 l 126 655 q 251 930 152 837 q 516 1023 350 1023 q 754 930 682 1023 q 801 655 826 837 l 758 350 q 634 79 732 170 q 370 -13 537 -13 m 380 67 q 581 132 515 67 q 669 350 648 197 l 712 655 q 686 877 734 811 q 504 943 639 943 q 302 877 369 943 q 215 655 236 811 l 172 350 q 198 132 150 197 q 380 67 245 67 m 327 473 l 338 553 l 561 553 l 549 473 l 327 473 z "},"Ι":{"ha":884,"x_min":74,"x_max":809,"o":"m 74 0 m 74 0 l 86 80 l 338 80 l 458 931 l 206 931 l 216 1010 l 809 1010 l 799 931 l 547 931 l 427 80 l 679 80 l 668 0 l 74 0 z "},"Ί":{"ha":884,"x_min":-87,"x_max":809,"o":"m 0 0 m 74 0 l 86 80 l 338 80 l 458 931 l 206 931 l 216 1010 l 809 1010 l 799 931 l 547 931 l 427 80 l 679 80 l 668 0 l 74 0 m -87 884 l 52 1136 l 183 1136 l -15 884 l -87 884 z "},"Ϊ":{"ha":884,"x_min":74,"x_max":809,"o":"m 74 0 m 74 0 l 86 80 l 338 80 l 458 931 l 206 931 l 216 1010 l 809 1010 l 799 931 l 547 931 l 427 80 l 679 80 l 668 0 l 74 0 m 391 1164 q 345 1176 361 1164 q 333 1221 328 1188 l 335 1230 q 359 1277 340 1264 q 409 1289 379 1289 q 456 1277 439 1289 q 468 1230 473 1264 l 467 1221 q 441 1176 462 1188 q 391 1164 420 1164 m 667 1164 q 620 1176 636 1164 q 609 1221 604 1188 l 610 1230 q 634 1277 615 1264 q 684 1289 654 1289 q 732 1277 715 1289 q 744 1230 749 1264 l 742 1221 q 717 1176 737 1188 q 667 1164 696 1164 z "},"Κ":{"ha":884,"x_min":74,"x_max":884,"o":"m 74 0 m 232 495 l 163 0 l 74 0 l 216 1010 l 304 1010 l 244 574 l 324 574 l 775 1010 l 884 1010 l 399 543 l 739 0 l 630 0 l 322 495 l 232 495 z "},"Λ":{"ha":884,"x_min":-1,"x_max":745,"o":"m 649 0 l 495 893 l 90 0 l -1 0 l 473 1010 l 553 1010 l 745 0 l 649 0 z "},"Μ":{"ha":884,"x_min":33,"x_max":851,"o":"m 33 0 m 362 253 l 239 866 l 116 0 l 33 0 l 174 1010 l 293 1010 l 423 352 l 736 1010 l 851 1010 l 710 0 l 626 0 l 747 865 l 451 253 l 362 253 z "},"Ν":{"ha":884,"x_min":74,"x_max":809,"o":"m 74 0 m 552 0 l 279 871 l 157 0 l 74 0 l 216 1010 l 324 1010 l 604 120 l 727 1010 l 809 1010 l 668 0 l 552 0 z "},"Ξ":{"ha":884,"x_min":49,"x_max":835,"o":"m 181 931 l 191 1010 l 835 1010 l 824 931 l 181 931 m 153 511 l 164 591 l 745 591 l 734 511 l 153 511 m 49 0 l 61 80 l 705 80 l 693 0 l 49 0 z "},"Ο":{"ha":884,"x_min":73,"x_max":811,"o":"m 73 0 m 370 -13 q 142 78 211 -13 q 98 350 73 168 l 141 655 q 262 931 167 840 q 516 1023 357 1023 q 742 931 674 1023 q 785 655 811 840 l 742 350 q 623 78 717 168 q 370 -13 529 -13 m 380 67 q 569 133 505 67 q 654 350 633 199 l 697 655 q 674 876 718 809 q 504 943 629 943 q 315 876 379 943 q 230 655 251 809 l 187 350 q 210 133 165 199 q 380 67 255 67 z "},"Ό":{"ha":884,"x_min":20,"x_max":817,"o":"m 20 0 m 376 -13 q 148 78 217 -13 q 105 350 80 168 l 148 655 q 268 931 173 840 q 523 1023 364 1023 q 749 931 681 1023 q 792 655 817 840 l 749 350 q 629 78 723 168 q 376 -13 535 -13 m 386 67 q 575 133 511 67 q 660 350 639 199 l 703 655 q 680 876 725 809 q 510 943 635 943 q 321 876 385 943 q 236 655 258 809 l 193 350 q 217 133 172 199 q 386 67 261 67 m 20 884 l 159 1136 l 290 1136 l 92 884 l 20 884 z "},"Π":{"ha":884,"x_min":74,"x_max":809,"o":"m 74 0 l 216 1010 l 809 1010 l 668 0 l 580 0 l 711 931 l 294 931 l 163 0 l 74 0 z "},"Ρ":{"ha":884,"x_min":74,"x_max":828,"o":"m 74 0 m 74 0 l 216 1010 l 552 1010 q 763 943 698 1010 q 811 744 828 875 l 793 620 q 689 421 774 489 q 458 354 605 354 l 212 354 l 163 0 l 74 0 m 223 432 l 470 432 q 636 476 582 432 q 705 622 691 520 l 721 739 q 694 886 736 841 q 540 931 653 931 l 294 931 l 223 432 z "},"Σ":{"ha":884,"x_min":37,"x_max":835,"o":"m 693 0 l 37 0 l 48 80 l 548 520 l 168 931 l 178 1010 l 835 1010 l 824 931 l 284 931 l 620 561 l 610 484 l 158 80 l 705 80 l 693 0 z "},"Τ":{"ha":884,"x_min":143,"x_max":872,"o":"m 143 0 m 327 0 l 458 931 l 143 931 l 153 1010 l 872 1010 l 862 931 l 547 931 l 415 0 l 327 0 z "},"Υ":{"ha":884,"x_min":107,"x_max":917,"o":"m 107 0 m 415 0 l 327 0 l 380 379 l 107 1010 l 207 1010 l 439 461 l 819 1010 l 917 1010 l 468 379 l 415 0 z "},"Ύ":{"ha":884,"x_min":-125,"x_max":917,"o":"m 0 0 m 415 0 l 327 0 l 380 379 l 107 1010 l 207 1010 l 439 461 l 819 1010 l 917 1010 l 468 379 l 415 0 m -125 884 l 14 1136 l 145 1136 l -53 884 l -125 884 z "},"Ϋ":{"ha":884,"x_min":107,"x_max":917,"o":"m 107 0 m 415 0 l 327 0 l 380 379 l 107 1010 l 207 1010 l 439 461 l 819 1010 l 917 1010 l 468 379 l 415 0 m 391 1164 q 345 1176 361 1164 q 333 1221 328 1188 l 335 1230 q 359 1277 340 1264 q 409 1289 379 1289 q 456 1277 439 1289 q 468 1230 473 1264 l 467 1221 q 441 1176 462 1188 q 391 1164 420 1164 m 667 1164 q 620 1176 636 1164 q 609 1221 604 1188 l 610 1230 q 634 1277 615 1264 q 684 1289 654 1289 q 732 1277 715 1289 q 744 1230 749 1264 l 742 1221 q 717 1176 737 1188 q 667 1164 696 1164 z "},"Φ":{"ha":884,"x_min":52,"x_max":833,"o":"m 52 0 m 492 114 l 432 114 l 413 -20 l 324 -20 l 343 114 l 284 114 q 104 199 157 114 q 72 436 52 284 l 91 569 q 190 810 114 723 q 394 896 266 896 l 453 896 l 472 1030 l 561 1030 l 542 896 l 602 896 q 782 810 730 896 q 811 569 833 723 l 792 436 q 696 199 771 284 q 492 114 620 114 m 591 817 l 528 817 l 441 193 l 504 193 q 639 250 592 193 q 703 436 686 307 l 722 569 q 710 759 741 701 q 591 817 679 817 m 295 193 l 357 193 l 444 817 l 383 817 q 246 759 294 817 q 179 569 198 701 l 160 436 q 175 250 143 307 q 295 193 207 193 z "},"Χ":{"ha":884,"x_min":-24,"x_max":910,"o":"m 0 0 m 668 0 l 439 447 l 80 0 l -24 0 l 400 518 l 149 1010 l 246 1010 l 465 585 l 807 1010 l 910 1010 l 503 514 l 765 0 l 668 0 z "},"Ψ":{"ha":884,"x_min":107,"x_max":838,"o":"m 415 0 l 327 0 l 364 258 q 163 356 218 270 q 126 577 107 442 l 187 1010 l 273 1010 l 212 577 q 235 412 197 467 q 376 347 274 356 l 468 1010 l 557 1010 l 465 347 q 624 412 571 356 q 692 577 677 467 l 753 1010 l 838 1010 l 778 577 q 679 356 759 442 q 452 258 600 270 l 415 0 z "},"Ω":{"ha":884,"x_min":37,"x_max":823,"o":"m 289 0 l 37 0 l 48 80 l 212 80 l 234 235 q 122 339 150 261 q 110 519 95 417 l 129 655 q 250 929 154 836 q 515 1023 346 1023 q 754 929 684 1023 q 798 655 823 836 l 779 519 q 715 339 764 417 q 574 235 665 261 l 553 80 l 717 80 l 706 0 l 453 0 l 492 283 q 634 364 591 303 q 691 519 677 424 l 710 655 q 684 876 731 809 q 504 943 636 943 q 305 876 371 943 q 217 655 239 809 l 198 519 q 211 364 184 424 q 328 283 237 303 l 289 0 z "},"Ώ":{"ha":884,"x_min":-11,"x_max":823,"o":"m 0 0 m 289 0 l 37 0 l 48 80 l 212 80 l 234 235 q 122 339 150 261 q 110 519 95 417 l 129 655 q 250 929 154 836 q 515 1023 346 1023 q 754 929 684 1023 q 798 655 823 836 l 779 519 q 715 339 764 417 q 574 235 665 261 l 553 80 l 717 80 l 706 0 l 453 0 l 492 283 q 634 364 591 303 q 691 519 677 424 l 710 655 q 684 876 731 809 q 504 943 636 943 q 305 876 371 943 q 217 655 239 809 l 198 519 q 211 364 184 424 q 328 283 237 303 l 289 0 m -11 884 l 128 1136 l 259 1136 l 61 884 l -11 884 z "},"Ω":{"ha":884,"x_min":37,"x_max":823,"o":"m 37 0 m 289 0 l 37 0 l 48 80 l 212 80 l 234 235 q 122 339 150 261 q 110 519 95 417 l 129 655 q 250 929 154 836 q 515 1023 346 1023 q 754 929 684 1023 q 798 655 823 836 l 779 519 q 715 339 764 417 q 574 235 665 261 l 553 80 l 717 80 l 706 0 l 453 0 l 492 283 q 634 364 591 303 q 691 519 677 424 l 710 655 q 684 876 731 809 q 504 943 636 943 q 305 876 371 943 q 217 655 239 809 l 198 519 q 211 364 184 424 q 328 283 237 303 l 289 0 z "},"Ђ":{"ha":884,"x_min":117,"x_max":790,"o":"m 176 0 l 307 931 l 117 931 l 128 1010 l 721 1010 l 711 931 l 395 931 l 354 641 l 521 641 q 727 578 664 641 q 773 390 790 515 l 756 266 q 660 68 737 135 q 447 0 582 0 l 458 77 q 602 121 551 77 q 668 269 653 164 l 684 388 q 655 525 698 485 q 511 564 612 564 l 343 564 l 264 0 l 176 0 z "},"Є":{"ha":884,"x_min":73,"x_max":828,"o":"m 759 306 q 634 68 729 149 q 383 -13 540 -13 q 146 78 218 -13 q 98 350 73 169 l 141 655 q 265 931 167 838 q 529 1023 364 1023 q 757 941 686 1023 q 814 699 828 859 l 725 691 q 684 884 732 826 q 516 943 636 943 q 318 876 385 943 q 230 655 251 809 l 221 591 l 508 591 l 496 511 l 210 511 l 187 350 q 213 133 165 198 q 393 67 261 67 q 578 124 514 67 q 672 314 641 182 l 759 306 z "},"Ѕ":{"ha":884,"x_min":49,"x_max":808,"o":"m 49 0 m 389 -8 q 191 33 274 -8 q 49 160 107 73 l 120 218 q 235 108 168 144 q 403 72 302 72 q 576 124 505 72 q 658 261 646 176 q 622 394 670 348 q 436 477 573 439 q 214 584 273 521 q 170 758 155 646 q 280 946 188 876 q 497 1015 372 1015 q 678 975 602 1015 q 808 852 754 936 l 739 792 q 633 900 694 864 q 487 936 572 936 q 333 891 395 936 q 259 768 270 847 q 296 641 247 684 q 486 558 345 597 q 703 451 645 514 q 745 269 761 389 q 625 68 727 143 q 389 -8 523 -8 z "},"І":{"ha":884,"x_min":74,"x_max":809,"o":"m 74 0 m 74 0 l 86 80 l 338 80 l 458 931 l 206 931 l 216 1010 l 809 1010 l 799 931 l 547 931 l 427 80 l 679 80 l 668 0 l 74 0 z "},"Ї":{"ha":884,"x_min":74,"x_max":809,"o":"m 74 0 m 74 0 l 86 80 l 338 80 l 458 931 l 206 931 l 216 1010 l 809 1010 l 799 931 l 547 931 l 427 80 l 679 80 l 668 0 l 74 0 m 391 1164 q 345 1176 361 1164 q 333 1221 328 1188 l 335 1230 q 359 1277 340 1264 q 409 1289 379 1289 q 456 1277 439 1289 q 468 1230 473 1264 l 467 1221 q 441 1176 462 1188 q 391 1164 420 1164 m 667 1164 q 620 1176 636 1164 q 609 1221 604 1188 l 610 1230 q 634 1277 615 1264 q 684 1289 654 1289 q 732 1277 715 1289 q 744 1230 749 1264 l 742 1221 q 717 1176 737 1188 q 667 1164 696 1164 z "},"Ј":{"ha":884,"x_min":52,"x_max":809,"o":"m 52 0 m 343 -13 q 119 65 186 -13 q 67 308 52 143 l 157 318 q 189 121 148 176 q 352 67 231 67 q 541 129 476 67 q 625 327 606 192 l 711 931 l 439 931 l 449 1010 l 809 1010 l 715 328 q 597 73 691 159 q 343 -13 504 -13 z "},"Љ":{"ha":884,"x_min":-81,"x_max":794,"o":"m 163 207 q 98 42 145 92 q -8 -8 51 -8 q -44 -5 -27 -9 q -81 5 -62 -1 l -49 90 q -27 83 -38 86 q -5 80 -16 80 q 45 105 21 78 q 82 217 69 131 l 208 1010 l 554 1010 l 505 657 l 585 657 q 746 589 698 657 q 775 390 794 521 l 759 266 q 674 68 740 135 q 494 0 607 0 l 330 0 l 461 931 l 278 931 l 163 207 m 424 80 l 504 80 q 615 121 569 80 q 676 271 660 162 l 692 388 q 673 537 707 496 q 573 578 639 578 l 494 578 l 424 80 z "},"Њ":{"ha":884,"x_min":21,"x_max":794,"o":"m 424 80 l 509 80 q 616 121 572 80 q 676 271 660 163 l 692 388 q 674 537 707 496 q 578 578 641 578 l 494 578 l 424 80 m 179 527 l 105 0 l 21 0 l 163 1010 l 246 1010 l 189 606 l 414 606 l 471 1010 l 554 1010 l 505 657 l 590 657 q 747 589 701 657 q 775 390 794 521 l 759 266 q 675 68 740 135 q 499 0 610 0 l 330 0 l 404 527 l 179 527 z "},"Ћ":{"ha":884,"x_min":105,"x_max":787,"o":"m 251 0 l 163 0 l 294 931 l 105 931 l 115 1010 l 708 1010 l 698 931 l 383 931 l 338 619 l 534 619 q 728 551 669 619 q 768 352 787 484 l 718 0 l 630 0 l 679 350 q 658 497 694 455 q 523 540 622 540 l 327 540 l 251 0 z "},"Џ":{"ha":884,"x_min":74,"x_max":809,"o":"m 301 -189 l 327 0 l 74 0 l 216 1010 l 304 1010 l 174 80 l 591 80 l 721 1010 l 809 1010 l 668 0 l 415 0 l 389 -189 l 301 -189 z "},"А":{"ha":884,"x_min":-1,"x_max":745,"o":"m 0 0 m 583 385 l 495 893 l 264 385 l 583 385 m 649 0 l 596 306 l 227 306 l 90 0 l -1 0 l 473 1010 l 553 1010 l 745 0 l 649 0 z "},"Б":{"ha":884,"x_min":74,"x_max":778,"o":"m 74 0 l 216 1010 l 778 1010 l 768 931 l 294 931 l 246 596 l 490 596 q 687 531 622 596 q 735 347 751 466 l 723 266 q 622 70 706 140 q 408 0 539 0 l 74 0 m 174 80 l 400 80 q 565 126 509 80 q 635 273 621 173 l 644 328 q 614 472 658 427 q 462 518 571 518 l 236 518 l 174 80 z "},"В":{"ha":884,"x_min":74,"x_max":783,"o":"m 74 0 m 74 0 l 216 1010 l 518 1010 q 720 950 657 1010 q 766 773 783 890 l 759 716 q 705 603 749 649 q 597 545 662 557 l 593 524 q 714 459 673 516 q 742 314 755 402 l 735 258 q 631 65 716 130 q 395 0 545 0 l 74 0 m 242 567 l 461 567 q 612 604 563 567 q 674 729 662 641 l 679 764 q 653 891 692 852 q 513 931 615 931 l 294 931 l 242 567 m 174 80 l 418 80 q 580 122 527 80 q 646 264 633 165 l 653 304 q 625 445 667 403 q 475 487 583 487 l 231 487 l 174 80 z "},"Г":{"ha":884,"x_min":74,"x_max":835,"o":"m 74 0 m 74 0 l 216 1010 l 835 1010 l 824 931 l 294 931 l 163 0 l 74 0 z "},"Ѓ":{"ha":884,"x_min":74,"x_max":835,"o":"m 74 0 m 74 0 l 216 1010 l 835 1010 l 824 931 l 294 931 l 163 0 l 74 0 m 473 1136 l 688 1389 l 824 1389 l 551 1136 l 473 1136 z "},"Д":{"ha":884,"x_min":-66,"x_max":785,"o":"m 148 98 l 145 80 l 567 80 l 687 931 l 343 931 l 263 383 q 220 203 245 269 q 148 98 196 138 m 49 0 l 23 -189 l -66 -189 l -28 80 l 45 80 q 129 188 97 114 q 179 390 160 263 l 270 1010 l 785 1010 l 655 80 l 782 80 l 744 -189 l 655 -189 l 682 0 l 49 0 z "},"Е":{"ha":884,"x_min":74,"x_max":835,"o":"m 74 0 m 74 0 l 216 1010 l 835 1010 l 824 931 l 294 931 l 246 591 l 713 591 l 702 511 l 235 511 l 174 80 l 705 80 l 693 0 l 74 0 z "},"Ѐ":{"ha":884,"x_min":74,"x_max":835,"o":"m 74 0 m 74 0 l 216 1010 l 835 1010 l 824 931 l 294 931 l 246 591 l 713 591 l 702 511 l 235 511 l 174 80 l 705 80 l 693 0 l 74 0 m 583 1136 l 380 1389 l 516 1389 l 660 1136 l 583 1136 z "},"Ё":{"ha":884,"x_min":74,"x_max":835,"o":"m 74 0 m 74 0 l 216 1010 l 835 1010 l 824 931 l 294 931 l 246 591 l 713 591 l 702 511 l 235 511 l 174 80 l 705 80 l 693 0 l 74 0 m 429 1164 q 383 1176 399 1164 q 371 1221 366 1188 l 372 1230 q 397 1277 378 1264 q 447 1289 417 1289 q 494 1277 477 1289 q 506 1230 511 1264 l 505 1221 q 479 1176 500 1188 q 429 1164 458 1164 m 705 1164 q 658 1176 674 1164 q 646 1221 641 1188 l 648 1230 q 672 1277 653 1264 q 722 1289 692 1289 q 770 1277 753 1289 q 782 1230 787 1264 l 780 1221 q 754 1176 775 1188 q 705 1164 734 1164 z "},"Ж":{"ha":884,"x_min":-47,"x_max":933,"o":"m 323 503 l 42 0 l -47 0 l 260 540 l 93 1010 l 178 1010 l 331 574 l 412 574 l 473 1010 l 554 1010 l 494 574 l 572 574 l 848 1010 l 933 1010 l 634 543 l 790 0 l 702 0 l 562 503 l 484 503 l 413 0 l 332 0 l 402 503 l 323 503 z "},"З":{"ha":884,"x_min":62,"x_max":794,"o":"m 365 -13 q 133 52 203 -13 q 73 256 62 117 l 163 266 q 206 110 158 157 q 375 64 255 64 q 573 112 509 64 q 652 274 636 160 l 657 308 q 628 450 670 408 q 470 492 586 492 l 333 492 l 345 572 l 481 572 q 624 607 578 572 q 682 727 670 643 l 687 768 q 656 905 701 864 q 491 946 611 946 q 335 903 388 946 q 258 763 282 861 l 170 773 q 277 961 197 900 q 503 1023 357 1023 q 724 961 654 1023 q 775 768 794 900 l 770 727 q 710 598 759 644 q 586 543 660 552 l 583 521 q 715 455 673 514 q 745 308 758 395 l 740 274 q 631 59 721 131 q 365 -13 542 -13 z "},"И":{"ha":884,"x_min":74,"x_max":809,"o":"m 585 0 l 707 869 l 191 0 l 74 0 l 216 1010 l 299 1010 l 176 122 l 705 1010 l 809 1010 l 668 0 l 585 0 z "},"Ѝ":{"ha":884,"x_min":74,"x_max":809,"o":"m 74 0 m 585 0 l 707 869 l 191 0 l 74 0 l 216 1010 l 299 1010 l 176 122 l 705 1010 l 809 1010 l 668 0 l 585 0 m 533 1136 l 330 1389 l 466 1389 l 610 1136 l 533 1136 z "},"Й":{"ha":884,"x_min":74,"x_max":833,"o":"m 74 0 m 585 0 l 707 869 l 191 0 l 74 0 l 216 1010 l 299 1010 l 176 122 l 705 1010 l 809 1010 l 668 0 l 585 0 m 537 1128 q 361 1185 428 1128 q 313 1384 294 1242 l 403 1393 q 424 1245 390 1289 q 548 1201 457 1201 q 684 1245 639 1201 q 746 1393 729 1289 l 833 1384 q 729 1185 812 1242 q 537 1128 645 1128 z "},"К":{"ha":884,"x_min":74,"x_max":884,"o":"m 74 0 m 232 495 l 163 0 l 74 0 l 216 1010 l 304 1010 l 244 574 l 324 574 l 775 1010 l 884 1010 l 399 543 l 739 0 l 630 0 l 322 495 l 232 495 z "},"Ќ":{"ha":884,"x_min":74,"x_max":884,"o":"m 74 0 m 232 495 l 163 0 l 74 0 l 216 1010 l 304 1010 l 244 574 l 324 574 l 775 1010 l 884 1010 l 399 543 l 739 0 l 630 0 l 322 495 l 232 495 m 503 1136 l 717 1389 l 854 1389 l 580 1136 l 503 1136 z "},"Л":{"ha":884,"x_min":-63,"x_max":809,"o":"m 580 0 l 711 931 l 369 931 l 275 297 q 187 61 251 135 q 28 -13 122 -13 q -21 -9 1 -13 q -63 1 -44 -6 l -35 78 q -4 69 -19 72 q 27 67 11 67 q 135 126 95 67 q 194 313 176 184 l 295 1010 l 809 1010 l 668 0 l 580 0 z "},"М":{"ha":884,"x_min":33,"x_max":851,"o":"m 33 0 m 362 253 l 239 866 l 116 0 l 33 0 l 174 1010 l 293 1010 l 423 352 l 736 1010 l 851 1010 l 710 0 l 626 0 l 747 865 l 451 253 l 362 253 z "},"Н":{"ha":884,"x_min":74,"x_max":809,"o":"m 74 0 m 74 0 l 216 1010 l 304 1010 l 246 591 l 663 591 l 721 1010 l 809 1010 l 668 0 l 580 0 l 652 511 l 235 511 l 163 0 l 74 0 z "},"О":{"ha":884,"x_min":73,"x_max":811,"o":"m 73 0 m 370 -13 q 142 78 211 -13 q 98 350 73 168 l 141 655 q 262 931 167 840 q 516 1023 357 1023 q 742 931 674 1023 q 785 655 811 840 l 742 350 q 623 78 717 168 q 370 -13 529 -13 m 380 67 q 569 133 505 67 q 654 350 633 199 l 697 655 q 674 876 718 809 q 504 943 629 943 q 315 876 379 943 q 230 655 251 809 l 187 350 q 210 133 165 199 q 380 67 255 67 z "},"П":{"ha":884,"x_min":74,"x_max":809,"o":"m 74 0 m 74 0 l 216 1010 l 809 1010 l 668 0 l 580 0 l 711 931 l 294 931 l 163 0 l 74 0 z "},"Р":{"ha":884,"x_min":74,"x_max":828,"o":"m 74 0 m 74 0 l 216 1010 l 552 1010 q 763 943 698 1010 q 811 744 828 875 l 793 620 q 689 421 774 489 q 458 354 605 354 l 212 354 l 163 0 l 74 0 m 223 432 l 470 432 q 636 476 582 432 q 705 622 691 520 l 721 739 q 694 886 736 841 q 540 931 653 931 l 294 931 l 223 432 z "},"С":{"ha":884,"x_min":73,"x_max":830,"o":"m 73 0 m 383 -13 q 145 78 217 -13 q 97 342 73 168 l 143 663 q 265 931 167 840 q 529 1023 364 1023 q 758 945 687 1023 q 814 699 830 867 l 725 691 q 687 888 732 832 q 516 943 641 943 q 318 877 384 943 q 230 655 251 811 l 187 350 q 213 132 165 197 q 393 67 260 67 q 584 123 520 67 q 672 314 648 179 l 759 306 q 639 66 732 145 q 383 -13 545 -13 z "},"Т":{"ha":884,"x_min":143,"x_max":872,"o":"m 143 0 m 327 0 l 458 931 l 143 931 l 153 1010 l 872 1010 l 862 931 l 547 931 l 415 0 l 327 0 z "},"У":{"ha":884,"x_min":92,"x_max":878,"o":"m 183 -6 q 138 -3 160 -6 q 92 5 115 0 l 119 85 q 159 76 141 78 q 196 74 177 74 q 298 107 256 74 q 380 221 340 140 l 388 237 l 355 237 l 146 1010 l 239 1010 l 422 304 l 788 1010 l 878 1010 l 443 193 q 321 36 381 78 q 183 -6 260 -6 z "},"Ў":{"ha":884,"x_min":92,"x_max":878,"o":"m 92 0 m 183 -6 q 138 -3 160 -6 q 92 5 115 0 l 119 85 q 159 76 141 78 q 196 74 177 74 q 298 107 256 74 q 380 221 340 140 l 388 237 l 355 237 l 146 1010 l 239 1010 l 422 304 l 788 1010 l 878 1010 l 443 193 q 321 36 381 78 q 183 -6 260 -6 m 524 1128 q 348 1185 415 1128 q 301 1384 282 1242 l 390 1393 q 411 1245 378 1289 q 535 1201 444 1201 q 671 1245 626 1201 q 734 1393 716 1289 l 821 1384 q 716 1185 799 1242 q 524 1128 633 1128 z "},"Ф":{"ha":884,"x_min":52,"x_max":833,"o":"m 492 114 l 432 114 l 413 -20 l 324 -20 l 343 114 l 284 114 q 104 199 157 114 q 72 436 52 284 l 91 569 q 190 810 114 723 q 394 896 266 896 l 453 896 l 472 1030 l 561 1030 l 542 896 l 602 896 q 782 810 730 896 q 811 569 833 723 l 792 436 q 696 199 771 284 q 492 114 620 114 m 591 817 l 528 817 l 441 193 l 504 193 q 639 250 592 193 q 703 436 686 307 l 722 569 q 710 759 741 701 q 591 817 679 817 m 295 193 l 357 193 l 444 817 l 383 817 q 246 759 294 817 q 179 569 198 701 l 160 436 q 175 250 143 307 q 295 193 207 193 z "},"Х":{"ha":884,"x_min":-24,"x_max":910,"o":"m 0 0 m 668 0 l 439 447 l 80 0 l -24 0 l 400 518 l 149 1010 l 246 1010 l 465 585 l 807 1010 l 910 1010 l 503 514 l 765 0 l 668 0 z "},"Ц":{"ha":884,"x_min":74,"x_max":746,"o":"m 616 -189 l 643 0 l 74 0 l 216 1010 l 304 1010 l 174 80 l 528 80 l 658 1010 l 746 1010 l 616 80 l 742 80 l 705 -189 l 616 -189 z "},"Ч":{"ha":884,"x_min":141,"x_max":809,"o":"m 809 1010 l 668 0 l 580 0 l 629 354 l 420 354 q 202 415 263 354 q 162 620 141 477 l 216 1010 l 304 1010 l 250 622 q 278 475 236 519 q 432 431 319 431 l 640 431 l 721 1010 l 809 1010 z "},"Ш":{"ha":884,"x_min":16,"x_max":867,"o":"m 16 0 l 158 1010 l 242 1010 l 112 77 l 341 77 l 471 1010 l 554 1010 l 424 77 l 653 77 l 783 1010 l 867 1010 l 726 0 l 16 0 z "},"Щ":{"ha":884,"x_min":16,"x_max":869,"o":"m 754 -189 l 669 -189 l 696 0 l 16 0 l 158 1010 l 242 1010 l 112 77 l 341 77 l 471 1010 l 554 1010 l 424 77 l 654 77 l 784 1010 l 869 1010 l 739 77 l 792 77 l 754 -189 z "},"Ъ":{"ha":884,"x_min":85,"x_max":804,"o":"m 468 0 l 201 0 l 332 931 l 85 931 l 95 1010 l 431 1010 l 381 657 l 559 657 q 747 591 691 657 q 785 390 804 525 l 769 266 q 675 66 750 131 q 468 0 600 0 m 301 80 l 479 80 q 620 124 573 80 q 681 271 667 168 l 697 388 q 678 535 712 491 q 549 580 644 580 l 371 580 l 301 80 z "},"Ы":{"ha":884,"x_min":45,"x_max":838,"o":"m 45 0 l 187 1010 l 271 1010 l 222 657 l 323 657 q 489 590 444 657 q 515 390 534 523 l 499 266 q 416 67 480 134 q 232 0 352 0 l 45 0 m 612 0 l 754 1010 l 838 1010 l 697 0 l 612 0 m 141 77 l 242 77 q 357 121 316 77 q 414 271 399 165 l 431 388 q 416 538 446 494 q 313 582 386 582 l 212 582 l 141 77 z "},"Ь":{"ha":884,"x_min":74,"x_max":779,"o":"m 74 0 l 216 1010 l 304 1010 l 255 657 l 501 657 q 714 590 649 657 q 760 390 779 523 l 744 266 q 641 67 725 134 q 410 0 557 0 l 74 0 m 174 80 l 420 80 q 583 123 525 80 q 655 271 641 167 l 672 388 q 642 536 687 492 q 491 580 597 580 l 245 580 l 174 80 z "},"Э":{"ha":884,"x_min":78,"x_max":836,"o":"m 383 -13 q 152 68 225 -13 q 92 307 78 148 l 182 317 q 223 124 176 182 q 393 67 271 67 q 591 133 524 67 q 679 350 658 198 l 702 511 l 361 511 l 372 591 l 713 591 l 722 655 q 696 876 744 809 q 516 943 648 943 q 331 884 395 943 q 235 688 266 826 l 148 698 q 275 941 179 860 q 527 1023 370 1023 q 766 931 697 1023 q 811 655 836 838 l 768 350 q 647 78 742 169 q 383 -13 552 -13 z "},"Ю":{"ha":884,"x_min":20,"x_max":842,"o":"m 486 -13 q 326 69 370 -13 q 303 304 282 150 l 332 514 l 177 514 l 105 0 l 20 0 l 162 1010 l 246 1010 l 187 588 l 342 588 l 359 701 q 448 940 380 857 q 633 1023 516 1023 q 797 940 751 1023 q 821 701 842 857 l 765 304 q 676 69 744 150 q 486 -13 607 -13 m 496 64 q 619 121 576 64 q 681 304 663 177 l 736 701 q 727 888 754 831 q 620 944 699 944 q 503 888 544 944 q 443 701 461 831 l 388 304 q 395 121 370 177 q 496 64 420 64 z "},"Я":{"ha":884,"x_min":-5,"x_max":808,"o":"m 374 473 l 645 473 l 710 931 l 438 931 q 272 886 327 931 q 203 741 217 842 l 192 665 q 220 518 178 562 q 374 473 263 473 m 634 394 l 408 394 l 98 0 l -5 0 l 311 396 q 137 474 188 407 q 104 664 86 542 l 115 744 q 215 943 134 876 q 447 1010 297 1010 l 808 1010 l 667 0 l 578 0 l 634 394 z "},"Ґ":{"ha":884,"x_min":74,"x_max":862,"o":"m 74 0 l 216 1010 l 746 1010 l 774 1199 l 862 1199 l 824 931 l 294 931 l 163 0 l 74 0 z "},"a":{"ha":884,"x_min":51,"x_max":768,"o":"m 297 62 q 427 89 366 62 q 542 178 487 116 l 564 337 l 311 337 q 204 310 247 337 q 150 211 160 283 q 176 101 141 140 q 297 62 210 62 m 277 -13 q 111 42 172 -13 q 66 203 51 97 q 145 352 78 298 q 306 407 211 407 l 573 407 l 591 534 q 563 646 601 601 q 433 691 524 691 q 296 662 342 691 q 212 551 250 634 l 138 572 q 252 722 178 674 q 443 770 326 770 q 631 711 564 770 q 681 540 697 653 l 633 202 q 652 90 621 115 q 768 78 682 64 l 756 -4 q 619 11 670 -16 q 572 122 567 38 l 554 122 q 435 25 508 63 q 277 -13 362 -13 z "},"à":{"ha":884,"x_min":51,"x_max":768,"o":"m 51 0 m 297 62 q 427 89 366 62 q 542 178 487 116 l 564 337 l 311 337 q 204 310 247 337 q 150 211 160 283 q 176 101 141 140 q 297 62 210 62 m 277 -13 q 111 42 172 -13 q 66 203 51 97 q 145 352 78 298 q 306 407 211 407 l 573 407 l 591 534 q 563 646 601 601 q 433 691 524 691 q 296 662 342 691 q 212 551 250 634 l 138 572 q 252 722 178 674 q 443 770 326 770 q 631 711 564 770 q 681 540 697 653 l 633 202 q 652 90 621 115 q 768 78 682 64 l 756 -4 q 619 11 670 -16 q 572 122 567 38 l 554 122 q 435 25 508 63 q 277 -13 362 -13 m 490 884 l 287 1136 l 423 1136 l 567 884 l 490 884 z "},"á":{"ha":884,"x_min":51,"x_max":768,"o":"m 51 0 m 297 62 q 427 89 366 62 q 542 178 487 116 l 564 337 l 311 337 q 204 310 247 337 q 150 211 160 283 q 176 101 141 140 q 297 62 210 62 m 277 -13 q 111 42 172 -13 q 66 203 51 97 q 145 352 78 298 q 306 407 211 407 l 573 407 l 591 534 q 563 646 601 601 q 433 691 524 691 q 296 662 342 691 q 212 551 250 634 l 138 572 q 252 722 178 674 q 443 770 326 770 q 631 711 564 770 q 681 540 697 653 l 633 202 q 652 90 621 115 q 768 78 682 64 l 756 -4 q 619 11 670 -16 q 572 122 567 38 l 554 122 q 435 25 508 63 q 277 -13 362 -13 m 361 884 l 576 1136 l 712 1136 l 438 884 l 361 884 z "},"â":{"ha":884,"x_min":51,"x_max":768,"o":"m 51 0 m 297 62 q 427 89 366 62 q 542 178 487 116 l 564 337 l 311 337 q 204 310 247 337 q 150 211 160 283 q 176 101 141 140 q 297 62 210 62 m 277 -13 q 111 42 172 -13 q 66 203 51 97 q 145 352 78 298 q 306 407 211 407 l 573 407 l 591 534 q 563 646 601 601 q 433 691 524 691 q 296 662 342 691 q 212 551 250 634 l 138 572 q 252 722 178 674 q 443 770 326 770 q 631 711 564 770 q 681 540 697 653 l 633 202 q 652 90 621 115 q 768 78 682 64 l 756 -4 q 619 11 670 -16 q 572 122 567 38 l 554 122 q 435 25 508 63 q 277 -13 362 -13 m 269 903 l 242 956 l 490 1158 l 551 1158 l 742 956 l 699 903 l 508 1073 l 269 903 z "},"ã":{"ha":884,"x_min":51,"x_max":768,"o":"m 51 0 m 297 62 q 427 89 366 62 q 542 178 487 116 l 564 337 l 311 337 q 204 310 247 337 q 150 211 160 283 q 176 101 141 140 q 297 62 210 62 m 277 -13 q 111 42 172 -13 q 66 203 51 97 q 145 352 78 298 q 306 407 211 407 l 573 407 l 591 534 q 563 646 601 601 q 433 691 524 691 q 296 662 342 691 q 212 551 250 634 l 138 572 q 252 722 178 674 q 443 770 326 770 q 631 711 564 770 q 681 540 697 653 l 633 202 q 652 90 621 115 q 768 78 682 64 l 756 -4 q 619 11 670 -16 q 572 122 567 38 l 554 122 q 435 25 508 63 q 277 -13 362 -13 m 578 896 q 509 920 535 896 q 460 994 484 943 q 425 1056 441 1035 q 388 1076 409 1076 q 332 1041 355 1076 q 301 923 309 1006 l 298 909 l 227 909 l 230 928 q 289 1090 245 1032 q 402 1149 333 1149 q 473 1126 447 1149 q 519 1056 499 1102 q 557 991 542 1013 q 592 970 572 970 q 646 1004 624 970 q 679 1122 668 1039 l 681 1136 l 751 1136 l 749 1117 q 691 955 735 1014 q 578 896 646 896 z "},"ä":{"ha":884,"x_min":51,"x_max":768,"o":"m 51 0 m 297 62 q 427 89 366 62 q 542 178 487 116 l 564 337 l 311 337 q 204 310 247 337 q 150 211 160 283 q 176 101 141 140 q 297 62 210 62 m 277 -13 q 111 42 172 -13 q 66 203 51 97 q 145 352 78 298 q 306 407 211 407 l 573 407 l 591 534 q 563 646 601 601 q 433 691 524 691 q 296 662 342 691 q 212 551 250 634 l 138 572 q 252 722 178 674 q 443 770 326 770 q 631 711 564 770 q 681 540 697 653 l 633 202 q 652 90 621 115 q 768 78 682 64 l 756 -4 q 619 11 670 -16 q 572 122 567 38 l 554 122 q 435 25 508 63 q 277 -13 362 -13 m 336 912 q 289 924 306 912 q 278 968 273 936 l 279 977 q 304 1024 284 1011 q 354 1037 323 1037 q 401 1024 384 1037 q 413 977 418 1011 l 412 968 q 386 924 407 936 q 336 912 365 912 m 611 912 q 564 924 581 912 q 553 968 548 936 l 554 977 q 579 1024 559 1011 q 629 1037 598 1037 q 676 1024 659 1037 q 688 977 693 1011 l 687 968 q 661 924 682 936 q 611 912 640 912 z "},"å":{"ha":884,"x_min":51,"x_max":768,"o":"m 51 0 m 297 62 q 427 89 366 62 q 542 178 487 116 l 564 337 l 311 337 q 204 310 247 337 q 150 211 160 283 q 176 101 141 140 q 297 62 210 62 m 277 -13 q 111 42 172 -13 q 66 203 51 97 q 145 352 78 298 q 306 407 211 407 l 573 407 l 591 534 q 563 646 601 601 q 433 691 524 691 q 296 662 342 691 q 212 551 250 634 l 138 572 q 252 722 178 674 q 443 770 326 770 q 631 711 564 770 q 681 540 697 653 l 633 202 q 652 90 621 115 q 768 78 682 64 l 756 -4 q 619 11 670 -16 q 572 122 567 38 l 554 122 q 435 25 508 63 q 277 -13 362 -13 m 467 865 q 337 911 380 865 q 307 1048 294 957 l 312 1088 q 381 1228 324 1181 q 525 1275 438 1275 q 655 1228 612 1275 q 686 1088 698 1181 l 681 1048 q 611 911 668 957 q 467 865 554 865 m 477 932 q 566 959 535 932 q 605 1048 596 986 l 610 1088 q 596 1179 619 1150 q 515 1208 573 1208 q 427 1179 457 1208 q 388 1088 396 1150 l 383 1048 q 396 959 374 986 q 477 932 419 932 z "},"ā":{"ha":884,"x_min":51,"x_max":768,"o":"m 51 0 m 297 62 q 427 89 366 62 q 542 178 487 116 l 564 337 l 311 337 q 204 310 247 337 q 150 211 160 283 q 176 101 141 140 q 297 62 210 62 m 277 -13 q 111 42 172 -13 q 66 203 51 97 q 145 352 78 298 q 306 407 211 407 l 573 407 l 591 534 q 563 646 601 601 q 433 691 524 691 q 296 662 342 691 q 212 551 250 634 l 138 572 q 252 722 178 674 q 443 770 326 770 q 631 711 564 770 q 681 540 697 653 l 633 202 q 652 90 621 115 q 768 78 682 64 l 756 -4 q 619 11 670 -16 q 572 122 567 38 l 554 122 q 435 25 508 63 q 277 -13 362 -13 m 249 972 l 260 1052 l 727 1052 l 716 972 l 249 972 z "},"ă":{"ha":884,"x_min":51,"x_max":777,"o":"m 51 0 m 297 62 q 427 89 366 62 q 542 178 487 116 l 564 337 l 311 337 q 204 310 247 337 q 150 211 160 283 q 176 101 141 140 q 297 62 210 62 m 277 -13 q 111 42 172 -13 q 66 203 51 97 q 145 352 78 298 q 306 407 211 407 l 573 407 l 591 534 q 563 646 601 601 q 433 691 524 691 q 296 662 342 691 q 212 551 250 634 l 138 572 q 252 722 178 674 q 443 770 326 770 q 631 711 564 770 q 681 540 697 653 l 633 202 q 652 90 621 115 q 768 78 682 64 l 756 -4 q 619 11 670 -16 q 572 122 567 38 l 554 122 q 435 25 508 63 q 277 -13 362 -13 m 468 875 q 282 940 345 875 q 236 1140 218 1005 l 324 1140 q 350 994 313 1038 q 480 949 388 949 q 622 994 572 949 q 688 1140 672 1038 l 777 1140 q 674 940 756 1005 q 468 875 592 875 z "},"ą":{"ha":884,"x_min":51,"x_max":773,"o":"m 51 0 m 297 62 q 427 89 366 62 q 542 178 487 116 l 564 337 l 311 337 q 204 310 247 337 q 150 211 160 283 q 176 101 141 140 q 297 62 210 62 m 277 -13 q 111 42 172 -13 q 66 203 51 97 q 145 352 78 298 q 306 407 211 407 l 573 407 l 591 534 q 563 646 601 601 q 433 691 524 691 q 296 662 342 691 q 212 551 250 634 l 138 572 q 252 722 178 674 q 443 770 326 770 q 631 711 564 770 q 681 540 697 653 l 633 202 q 652 90 621 115 q 768 78 682 64 l 756 -4 q 619 11 670 -16 q 572 122 567 38 l 554 122 q 435 25 508 63 q 277 -13 362 -13 m 649 -271 q 528 -233 573 -271 q 494 -129 484 -194 q 552 -23 501 -71 q 669 49 602 24 l 689 29 q 611 -34 638 0 q 580 -105 585 -68 q 596 -170 573 -149 q 670 -192 619 -192 q 722 -189 694 -192 q 773 -181 749 -186 l 761 -260 q 705 -268 736 -265 q 649 -271 673 -271 z "},"ǻ":{"ha":884,"x_min":51,"x_max":788,"o":"m 51 0 m 297 62 q 427 89 366 62 q 542 178 487 116 l 564 337 l 311 337 q 204 310 247 337 q 150 211 160 283 q 176 101 141 140 q 297 62 210 62 m 277 -13 q 111 42 172 -13 q 66 203 51 97 q 145 352 78 298 q 306 407 211 407 l 573 407 l 591 534 q 563 646 601 601 q 433 691 524 691 q 296 662 342 691 q 212 551 250 634 l 138 572 q 252 722 178 674 q 443 770 326 770 q 631 711 564 770 q 681 540 697 653 l 633 202 q 652 90 621 115 q 768 78 682 64 l 756 -4 q 619 11 670 -16 q 572 122 567 38 l 554 122 q 435 25 508 63 q 277 -13 362 -13 m 467 865 q 337 911 380 865 q 307 1048 294 957 l 312 1088 q 381 1228 324 1181 q 525 1275 438 1275 q 655 1228 612 1275 q 686 1088 698 1181 l 681 1048 q 611 911 668 957 q 467 865 554 865 m 477 932 q 566 959 535 932 q 605 1048 596 986 l 610 1088 q 596 1179 619 1150 q 515 1208 573 1208 q 427 1179 457 1208 q 388 1088 396 1150 l 383 1048 q 396 959 374 986 q 477 932 419 932 m 437 1263 l 652 1515 l 788 1515 l 514 1263 l 437 1263 z "},"b":{"ha":884,"x_min":85,"x_max":755,"o":"m 360 -13 q 214 8 288 -13 q 85 68 140 29 l 216 1010 l 304 1010 l 253 639 l 275 639 q 386 734 316 697 q 538 770 457 770 q 701 695 648 770 q 736 482 755 620 l 707 277 q 595 65 688 143 q 360 -13 503 -13 m 369 64 q 541 118 479 64 q 619 279 604 172 l 648 481 q 628 637 662 586 q 506 688 593 688 q 372 655 438 688 q 240 552 307 622 l 179 115 q 265 77 218 90 q 369 64 311 64 z "},"":{"ha":884,"x_min":85,"x_max":755,"o":"m 360 -13 q 214 8 288 -13 q 85 68 140 29 l 216 1010 l 304 1010 l 253 639 l 275 639 q 386 734 316 697 q 538 770 457 770 q 701 695 648 770 q 736 482 755 620 l 707 277 q 595 65 688 143 q 360 -13 503 -13 m 369 64 q 541 118 479 64 q 619 279 604 172 l 648 481 q 628 637 662 586 q 506 688 593 688 q 372 655 438 688 q 240 552 307 622 l 179 115 q 265 77 218 90 q 369 64 311 64 z "},"c":{"ha":884,"x_min":93,"x_max":764,"o":"m 388 -13 q 164 61 234 -13 q 112 274 93 134 l 141 479 q 252 696 162 621 q 496 770 342 770 q 701 710 638 770 q 756 529 764 650 l 669 523 q 631 652 673 614 q 484 691 590 691 q 307 639 370 691 q 230 479 245 587 l 201 274 q 235 117 187 168 q 398 66 283 66 q 557 99 504 66 q 625 210 610 133 l 711 203 q 608 40 687 93 q 388 -13 529 -13 z "},"ç":{"ha":884,"x_min":93,"x_max":764,"o":"m 93 0 m 388 -13 q 164 61 234 -13 q 112 274 93 134 l 141 479 q 252 696 162 621 q 496 770 342 770 q 701 710 638 770 q 756 529 764 650 l 669 523 q 631 652 673 614 q 484 691 590 691 q 307 639 370 691 q 230 479 245 587 l 201 274 q 235 117 187 168 q 398 66 283 66 q 557 99 504 66 q 625 210 610 133 l 711 203 q 608 40 687 93 q 388 -13 529 -13 m 328 0 l 351 38 q 456 -14 418 25 q 485 -122 495 -53 q 420 -234 475 -196 q 288 -273 365 -273 q 168 -241 212 -273 q 129 -135 124 -210 l 211 -128 q 228 -183 210 -167 q 292 -199 246 -199 q 371 -181 345 -199 q 403 -112 396 -162 q 393 -39 410 -64 q 328 0 375 -14 z "},"ć":{"ha":884,"x_min":93,"x_max":764,"o":"m 93 0 m 388 -13 q 164 61 234 -13 q 112 274 93 134 l 141 479 q 252 696 162 621 q 496 770 342 770 q 701 710 638 770 q 756 529 764 650 l 669 523 q 631 652 673 614 q 484 691 590 691 q 307 639 370 691 q 230 479 245 587 l 201 274 q 235 117 187 168 q 398 66 283 66 q 557 99 504 66 q 625 210 610 133 l 711 203 q 608 40 687 93 q 388 -13 529 -13 m 394 884 l 609 1136 l 745 1136 l 471 884 l 394 884 z "},"ĉ":{"ha":884,"x_min":93,"x_max":775,"o":"m 93 0 m 388 -13 q 164 61 234 -13 q 112 274 93 134 l 141 479 q 252 696 162 621 q 496 770 342 770 q 701 710 638 770 q 756 529 764 650 l 669 523 q 631 652 673 614 q 484 691 590 691 q 307 639 370 691 q 230 479 245 587 l 201 274 q 235 117 187 168 q 398 66 283 66 q 557 99 504 66 q 625 210 610 133 l 711 203 q 608 40 687 93 q 388 -13 529 -13 m 302 903 l 275 956 l 523 1158 l 583 1158 l 775 956 l 732 903 l 540 1073 l 302 903 z "},"ċ":{"ha":884,"x_min":93,"x_max":764,"o":"m 93 0 m 388 -13 q 164 61 234 -13 q 112 274 93 134 l 141 479 q 252 696 162 621 q 496 770 342 770 q 701 710 638 770 q 756 529 764 650 l 669 523 q 631 652 673 614 q 484 691 590 691 q 307 639 370 691 q 230 479 245 587 l 201 274 q 235 117 187 168 q 398 66 283 66 q 557 99 504 66 q 625 210 610 133 l 711 203 q 608 40 687 93 q 388 -13 529 -13 m 506 912 q 450 924 471 912 q 434 968 429 936 l 436 977 q 465 1024 441 1011 q 524 1037 489 1037 q 581 1024 559 1037 q 597 977 602 1011 l 596 968 q 566 924 591 936 q 506 912 542 912 z "},"č":{"ha":884,"x_min":93,"x_max":782,"o":"m 93 0 m 388 -13 q 164 61 234 -13 q 112 274 93 134 l 141 479 q 252 696 162 621 q 496 770 342 770 q 701 710 638 770 q 756 529 764 650 l 669 523 q 631 652 673 614 q 484 691 590 691 q 307 639 370 691 q 230 479 245 587 l 201 274 q 235 117 187 168 q 398 66 283 66 q 557 99 504 66 q 625 210 610 133 l 711 203 q 608 40 687 93 q 388 -13 529 -13 m 473 889 l 282 1091 l 323 1144 l 515 973 l 754 1144 l 782 1091 l 534 889 l 473 889 z "},"d":{"ha":884,"x_min":93,"x_max":809,"o":"m 343 69 q 477 102 412 69 q 609 206 542 135 l 669 639 q 581 680 628 667 q 480 693 534 693 q 308 639 371 693 q 230 479 245 585 l 202 275 q 221 119 187 168 q 343 69 255 69 m 573 119 q 464 24 534 61 q 312 -13 394 -13 q 145 62 197 -13 q 114 275 93 136 l 143 481 q 254 693 162 616 q 490 770 347 770 q 591 758 543 770 q 682 727 639 746 l 721 1010 l 809 1010 l 668 0 l 580 0 l 596 119 l 573 119 z "},"ď":{"ha":884,"x_min":93,"x_max":1199,"o":"m 93 0 m 343 69 q 477 102 412 69 q 609 206 542 135 l 669 639 q 581 680 628 667 q 480 693 534 693 q 308 639 371 693 q 230 479 245 585 l 202 275 q 221 119 187 168 q 343 69 255 69 m 573 119 q 464 24 534 61 q 312 -13 394 -13 q 145 62 197 -13 q 114 275 93 136 l 143 481 q 254 693 162 616 q 490 770 347 770 q 591 758 543 770 q 682 727 639 746 l 721 1010 l 809 1010 l 668 0 l 580 0 l 596 119 l 573 119 m 926 928 l 1074 1263 l 1199 1263 l 994 928 l 926 928 z "},"e":{"ha":884,"x_min":93,"x_max":755,"o":"m 686 157 q 570 27 641 67 q 371 -13 499 -13 q 162 60 231 -13 q 114 275 93 133 l 141 479 q 256 698 163 625 q 481 770 348 770 q 685 696 615 770 q 734 470 755 622 l 720 365 l 215 365 l 201 274 q 230 114 186 163 q 380 64 275 64 q 523 92 476 64 q 604 183 571 120 l 686 157 m 230 479 l 223 434 l 640 434 l 645 467 q 617 638 662 585 q 468 692 572 692 q 305 640 365 692 q 230 479 245 588 z "},"è":{"ha":884,"x_min":93,"x_max":755,"o":"m 93 0 m 686 157 q 570 27 641 67 q 371 -13 499 -13 q 162 60 231 -13 q 114 275 93 133 l 141 479 q 256 698 163 625 q 481 770 348 770 q 685 696 615 770 q 734 470 755 622 l 720 365 l 215 365 l 201 274 q 230 114 186 163 q 380 64 275 64 q 523 92 476 64 q 604 183 571 120 l 686 157 m 230 479 l 223 434 l 640 434 l 645 467 q 617 638 662 585 q 468 692 572 692 q 305 640 365 692 q 230 479 245 588 m 516 884 l 313 1136 l 449 1136 l 593 884 l 516 884 z "},"é":{"ha":884,"x_min":93,"x_max":755,"o":"m 93 0 m 686 157 q 570 27 641 67 q 371 -13 499 -13 q 162 60 231 -13 q 114 275 93 133 l 141 479 q 256 698 163 625 q 481 770 348 770 q 685 696 615 770 q 734 470 755 622 l 720 365 l 215 365 l 201 274 q 230 114 186 163 q 380 64 275 64 q 523 92 476 64 q 604 183 571 120 l 686 157 m 230 479 l 223 434 l 640 434 l 645 467 q 617 638 662 585 q 468 692 572 692 q 305 640 365 692 q 230 479 245 588 m 388 884 l 602 1136 l 739 1136 l 465 884 l 388 884 z "},"ê":{"ha":884,"x_min":93,"x_max":756,"o":"m 93 0 m 686 157 q 570 27 641 67 q 371 -13 499 -13 q 162 60 231 -13 q 114 275 93 133 l 141 479 q 256 698 163 625 q 481 770 348 770 q 685 696 615 770 q 734 470 755 622 l 720 365 l 215 365 l 201 274 q 230 114 186 163 q 380 64 275 64 q 523 92 476 64 q 604 183 571 120 l 686 157 m 230 479 l 223 434 l 640 434 l 645 467 q 617 638 662 585 q 468 692 572 692 q 305 640 365 692 q 230 479 245 588 m 283 903 l 256 956 l 504 1158 l 564 1158 l 756 956 l 713 903 l 521 1073 l 283 903 z "},"ë":{"ha":884,"x_min":93,"x_max":755,"o":"m 93 0 m 686 157 q 570 27 641 67 q 371 -13 499 -13 q 162 60 231 -13 q 114 275 93 133 l 141 479 q 256 698 163 625 q 481 770 348 770 q 685 696 615 770 q 734 470 755 622 l 720 365 l 215 365 l 201 274 q 230 114 186 163 q 380 64 275 64 q 523 92 476 64 q 604 183 571 120 l 686 157 m 230 479 l 223 434 l 640 434 l 645 467 q 617 638 662 585 q 468 692 572 692 q 305 640 365 692 q 230 479 245 588 m 362 912 q 316 924 332 912 q 304 968 299 936 l 306 977 q 330 1024 311 1011 q 380 1037 350 1037 q 427 1024 410 1037 q 439 977 444 1011 l 438 968 q 412 924 433 936 q 362 912 391 912 m 638 912 q 591 924 607 912 q 580 968 574 936 l 581 977 q 605 1024 586 1011 q 655 1037 625 1037 q 703 1024 686 1037 q 715 977 720 1011 l 713 968 q 688 924 708 936 q 638 912 667 912 z "},"ē":{"ha":884,"x_min":93,"x_max":755,"o":"m 93 0 m 686 157 q 570 27 641 67 q 371 -13 499 -13 q 162 60 231 -13 q 114 275 93 133 l 141 479 q 256 698 163 625 q 481 770 348 770 q 685 696 615 770 q 734 470 755 622 l 720 365 l 215 365 l 201 274 q 230 114 186 163 q 380 64 275 64 q 523 92 476 64 q 604 183 571 120 l 686 157 m 230 479 l 223 434 l 640 434 l 645 467 q 617 638 662 585 q 468 692 572 692 q 305 640 365 692 q 230 479 245 588 m 275 972 l 287 1052 l 754 1052 l 742 972 l 275 972 z "},"ĕ":{"ha":884,"x_min":93,"x_max":803,"o":"m 93 0 m 686 157 q 570 27 641 67 q 371 -13 499 -13 q 162 60 231 -13 q 114 275 93 133 l 141 479 q 256 698 163 625 q 481 770 348 770 q 685 696 615 770 q 734 470 755 622 l 720 365 l 215 365 l 201 274 q 230 114 186 163 q 380 64 275 64 q 523 92 476 64 q 604 183 571 120 l 686 157 m 230 479 l 223 434 l 640 434 l 645 467 q 617 638 662 585 q 468 692 572 692 q 305 640 365 692 q 230 479 245 588 m 495 875 q 308 940 371 875 q 263 1140 245 1005 l 351 1140 q 377 994 340 1038 q 506 949 414 949 q 648 994 598 949 q 715 1140 698 1038 l 803 1140 q 701 940 783 1005 q 495 875 619 875 z "},"ė":{"ha":884,"x_min":93,"x_max":755,"o":"m 93 0 m 686 157 q 570 27 641 67 q 371 -13 499 -13 q 162 60 231 -13 q 114 275 93 133 l 141 479 q 256 698 163 625 q 481 770 348 770 q 685 696 615 770 q 734 470 755 622 l 720 365 l 215 365 l 201 274 q 230 114 186 163 q 380 64 275 64 q 523 92 476 64 q 604 183 571 120 l 686 157 m 230 479 l 223 434 l 640 434 l 645 467 q 617 638 662 585 q 468 692 572 692 q 305 640 365 692 q 230 479 245 588 m 500 912 q 444 924 465 912 q 428 968 423 936 l 429 977 q 458 1024 434 1011 q 518 1037 482 1037 q 574 1024 553 1037 q 591 977 596 1011 l 590 968 q 560 924 585 936 q 500 912 535 912 z "},"ę":{"ha":884,"x_min":93,"x_max":755,"o":"m 93 0 m 686 157 q 570 27 641 67 q 371 -13 499 -13 q 162 60 231 -13 q 114 275 93 133 l 141 479 q 256 698 163 625 q 481 770 348 770 q 685 696 615 770 q 734 470 755 622 l 720 365 l 215 365 l 201 274 q 230 114 186 163 q 380 64 275 64 q 523 92 476 64 q 604 183 571 120 l 686 157 m 230 479 l 223 434 l 640 434 l 645 467 q 617 638 662 585 q 468 692 572 692 q 305 640 365 692 q 230 479 245 588 m 511 -271 q 391 -233 436 -271 q 356 -129 346 -194 q 414 -23 364 -71 q 532 49 465 24 l 552 29 q 473 -34 500 0 q 442 -105 447 -68 q 458 -170 436 -149 q 533 -192 481 -192 q 584 -189 557 -192 q 635 -181 611 -186 l 624 -260 q 567 -268 598 -265 q 511 -271 535 -271 z "},"ě":{"ha":884,"x_min":93,"x_max":775,"o":"m 93 0 m 686 157 q 570 27 641 67 q 371 -13 499 -13 q 162 60 231 -13 q 114 275 93 133 l 141 479 q 256 698 163 625 q 481 770 348 770 q 685 696 615 770 q 734 470 755 622 l 720 365 l 215 365 l 201 274 q 230 114 186 163 q 380 64 275 64 q 523 92 476 64 q 604 183 571 120 l 686 157 m 230 479 l 223 434 l 640 434 l 645 467 q 617 638 662 585 q 468 692 572 692 q 305 640 365 692 q 230 479 245 588 m 467 889 l 275 1091 l 317 1144 l 509 973 l 747 1144 l 775 1091 l 528 889 l 467 889 z "},"f":{"ha":884,"x_min":136,"x_max":824,"o":"m 229 -253 l 359 678 l 136 678 l 148 758 l 370 758 l 378 808 q 472 967 391 910 q 658 1023 552 1023 q 748 1015 703 1023 q 824 994 793 1006 l 795 919 q 727 937 766 931 q 645 943 687 943 q 524 912 572 943 q 466 809 476 880 l 458 758 l 782 758 l 770 678 l 447 678 l 317 -253 l 229 -253 z "},"g":{"ha":884,"x_min":-13,"x_max":806,"o":"m 722 -61 q 632 -214 708 -163 q 453 -265 556 -265 l 216 -265 q 49 -216 110 -265 q 3 -64 -13 -167 q 47 35 11 -3 q 141 77 82 72 l 143 92 q 80 129 101 98 q 66 211 59 159 q 116 315 74 273 q 229 362 158 357 l 231 375 q 164 429 182 391 q 153 515 146 467 l 159 557 q 249 701 172 644 q 452 758 326 758 l 806 758 l 794 678 l 610 698 l 607 684 q 673 628 655 672 q 684 542 691 585 l 679 501 q 597 364 667 417 q 385 311 527 311 l 232 311 q 172 289 194 311 q 141 217 149 268 q 158 147 135 170 q 235 124 182 124 l 521 124 q 681 78 625 124 q 722 -61 736 32 m 399 380 q 535 411 486 380 q 593 506 585 442 l 600 547 q 569 651 610 619 q 442 683 529 683 q 306 651 355 683 q 246 547 256 619 l 240 506 q 271 411 231 442 q 399 380 312 380 m 225 -191 l 481 -191 q 589 -161 549 -191 q 638 -68 629 -131 q 617 15 646 -11 q 525 40 587 40 l 105 40 l 93 -45 q 117 -154 83 -117 q 225 -191 150 -191 z "},"ĝ":{"ha":884,"x_min":-13,"x_max":806,"o":"m 0 0 m 722 -61 q 632 -214 708 -163 q 453 -265 556 -265 l 216 -265 q 49 -216 110 -265 q 3 -64 -13 -167 q 47 35 11 -3 q 141 77 82 72 l 143 92 q 80 129 101 98 q 66 211 59 159 q 116 315 74 273 q 229 362 158 357 l 231 375 q 164 429 182 391 q 153 515 146 467 l 159 557 q 249 701 172 644 q 452 758 326 758 l 806 758 l 794 678 l 610 698 l 607 684 q 673 628 655 672 q 684 542 691 585 l 679 501 q 597 364 667 417 q 385 311 527 311 l 232 311 q 172 289 194 311 q 141 217 149 268 q 158 147 135 170 q 235 124 182 124 l 521 124 q 681 78 625 124 q 722 -61 736 32 m 399 380 q 535 411 486 380 q 593 506 585 442 l 600 547 q 569 651 610 619 q 442 683 529 683 q 306 651 355 683 q 246 547 256 619 l 240 506 q 271 411 231 442 q 399 380 312 380 m 225 -191 l 481 -191 q 589 -161 549 -191 q 638 -68 629 -131 q 617 15 646 -11 q 525 40 587 40 l 105 40 l 93 -45 q 117 -154 83 -117 q 225 -191 150 -191 m 269 903 l 242 956 l 490 1158 l 551 1158 l 742 956 l 699 903 l 508 1073 l 269 903 z "},"ğ":{"ha":884,"x_min":-13,"x_max":806,"o":"m 0 0 m 722 -61 q 632 -214 708 -163 q 453 -265 556 -265 l 216 -265 q 49 -216 110 -265 q 3 -64 -13 -167 q 47 35 11 -3 q 141 77 82 72 l 143 92 q 80 129 101 98 q 66 211 59 159 q 116 315 74 273 q 229 362 158 357 l 231 375 q 164 429 182 391 q 153 515 146 467 l 159 557 q 249 701 172 644 q 452 758 326 758 l 806 758 l 794 678 l 610 698 l 607 684 q 673 628 655 672 q 684 542 691 585 l 679 501 q 597 364 667 417 q 385 311 527 311 l 232 311 q 172 289 194 311 q 141 217 149 268 q 158 147 135 170 q 235 124 182 124 l 521 124 q 681 78 625 124 q 722 -61 736 32 m 399 380 q 535 411 486 380 q 593 506 585 442 l 600 547 q 569 651 610 619 q 442 683 529 683 q 306 651 355 683 q 246 547 256 619 l 240 506 q 271 411 231 442 q 399 380 312 380 m 225 -191 l 481 -191 q 589 -161 549 -191 q 638 -68 629 -131 q 617 15 646 -11 q 525 40 587 40 l 105 40 l 93 -45 q 117 -154 83 -117 q 225 -191 150 -191 m 494 875 q 307 940 370 875 q 261 1140 244 1005 l 350 1140 q 376 994 338 1038 q 505 949 413 949 q 647 994 597 949 q 713 1140 697 1038 l 802 1140 q 699 940 782 1005 q 494 875 617 875 z "},"ġ":{"ha":884,"x_min":-13,"x_max":806,"o":"m 0 0 m 722 -61 q 632 -214 708 -163 q 453 -265 556 -265 l 216 -265 q 49 -216 110 -265 q 3 -64 -13 -167 q 47 35 11 -3 q 141 77 82 72 l 143 92 q 80 129 101 98 q 66 211 59 159 q 116 315 74 273 q 229 362 158 357 l 231 375 q 164 429 182 391 q 153 515 146 467 l 159 557 q 249 701 172 644 q 452 758 326 758 l 806 758 l 794 678 l 610 698 l 607 684 q 673 628 655 672 q 684 542 691 585 l 679 501 q 597 364 667 417 q 385 311 527 311 l 232 311 q 172 289 194 311 q 141 217 149 268 q 158 147 135 170 q 235 124 182 124 l 521 124 q 681 78 625 124 q 722 -61 736 32 m 399 380 q 535 411 486 380 q 593 506 585 442 l 600 547 q 569 651 610 619 q 442 683 529 683 q 306 651 355 683 q 246 547 256 619 l 240 506 q 271 411 231 442 q 399 380 312 380 m 225 -191 l 481 -191 q 589 -161 549 -191 q 638 -68 629 -131 q 617 15 646 -11 q 525 40 587 40 l 105 40 l 93 -45 q 117 -154 83 -117 q 225 -191 150 -191 m 499 912 q 443 924 463 912 q 427 968 422 936 l 428 977 q 457 1024 433 1011 q 516 1037 481 1037 q 573 1024 552 1037 q 590 977 595 1011 l 588 968 q 559 924 583 936 q 499 912 534 912 z "},"ģ":{"ha":884,"x_min":-13,"x_max":806,"o":"m 0 0 m 722 -61 q 632 -214 708 -163 q 453 -265 556 -265 l 216 -265 q 49 -216 110 -265 q 3 -64 -13 -167 q 47 35 11 -3 q 141 77 82 72 l 143 92 q 80 129 101 98 q 66 211 59 159 q 116 315 74 273 q 229 362 158 357 l 231 375 q 164 429 182 391 q 153 515 146 467 l 159 557 q 249 701 172 644 q 452 758 326 758 l 806 758 l 794 678 l 610 698 l 607 684 q 673 628 655 672 q 684 542 691 585 l 679 501 q 597 364 667 417 q 385 311 527 311 l 232 311 q 172 289 194 311 q 141 217 149 268 q 158 147 135 170 q 235 124 182 124 l 521 124 q 681 78 625 124 q 722 -61 736 32 m 399 380 q 535 411 486 380 q 593 506 585 442 l 600 547 q 569 651 610 619 q 442 683 529 683 q 306 651 355 683 q 246 547 256 619 l 240 506 q 271 411 231 442 q 399 380 312 380 m 225 -191 l 481 -191 q 589 -161 549 -191 q 638 -68 629 -131 q 617 15 646 -11 q 525 40 587 40 l 105 40 l 93 -45 q 117 -154 83 -117 q 225 -191 150 -191 m 414 884 l 630 1136 l 707 1136 l 551 884 l 414 884 z "},"h":{"ha":884,"x_min":74,"x_max":758,"o":"m 74 0 l 216 1010 l 304 1010 l 251 631 l 274 631 q 386 733 322 696 q 535 770 451 770 q 701 702 645 770 q 741 520 758 634 l 668 0 l 580 0 l 650 501 q 626 639 663 590 q 509 688 588 688 q 376 654 441 688 q 240 548 312 620 l 163 0 l 74 0 z "},"ĥ":{"ha":884,"x_min":53,"x_max":758,"o":"m 53 0 m 74 0 l 216 1010 l 304 1010 l 251 631 l 274 631 q 386 733 322 696 q 535 770 451 770 q 701 702 645 770 q 741 520 758 634 l 668 0 l 580 0 l 650 501 q 626 639 663 590 q 509 688 588 688 q 376 654 441 688 q 240 548 312 620 l 163 0 l 74 0 m 80 1155 l 53 1208 l 301 1410 l 361 1410 l 553 1208 l 510 1155 l 318 1326 l 80 1155 z "},"i":{"ha":884,"x_min":74,"x_max":679,"o":"m 74 0 m 74 0 l 86 80 l 338 80 l 422 678 l 169 678 l 181 758 l 521 758 l 427 80 l 679 80 l 668 0 l 74 0 m 499 912 q 443 924 463 912 q 427 968 422 936 l 428 977 q 457 1024 433 1011 q 516 1037 481 1037 q 573 1024 552 1037 q 590 977 595 1011 l 588 968 q 559 924 583 936 q 499 912 534 912 z "},"ì":{"ha":884,"x_min":74,"x_max":679,"o":"m 74 0 m 74 0 l 86 80 l 338 80 l 422 678 l 169 678 l 181 758 l 521 758 l 427 80 l 679 80 l 668 0 l 74 0 m 515 884 l 312 1136 l 448 1136 l 592 884 l 515 884 z "},"í":{"ha":884,"x_min":74,"x_max":737,"o":"m 74 0 m 74 0 l 86 80 l 338 80 l 422 678 l 169 678 l 181 758 l 521 758 l 427 80 l 679 80 l 668 0 l 74 0 m 386 884 l 601 1136 l 737 1136 l 463 884 l 386 884 z "},"î":{"ha":884,"x_min":74,"x_max":755,"o":"m 74 0 m 74 0 l 86 80 l 338 80 l 422 678 l 169 678 l 181 758 l 521 758 l 427 80 l 679 80 l 668 0 l 74 0 m 282 903 l 255 956 l 503 1158 l 563 1158 l 755 956 l 712 903 l 520 1073 l 282 903 z "},"ï":{"ha":884,"x_min":74,"x_max":718,"o":"m 74 0 m 74 0 l 86 80 l 338 80 l 422 678 l 169 678 l 181 758 l 521 758 l 427 80 l 679 80 l 668 0 l 74 0 m 361 912 q 314 924 331 912 q 303 968 298 936 l 304 977 q 329 1024 309 1011 q 379 1037 348 1037 q 426 1024 409 1037 q 438 977 443 1011 l 437 968 q 411 924 432 936 q 361 912 390 912 m 636 912 q 590 924 606 912 q 578 968 573 936 l 580 977 q 604 1024 585 1011 q 654 1037 624 1037 q 701 1024 684 1037 q 713 977 718 1011 l 712 968 q 686 924 707 936 q 636 912 665 912 z "},"ĩ":{"ha":884,"x_min":74,"x_max":777,"o":"m 74 0 m 74 0 l 86 80 l 338 80 l 422 678 l 169 678 l 181 758 l 521 758 l 427 80 l 679 80 l 668 0 l 74 0 m 604 896 q 535 920 561 896 q 485 994 509 943 q 450 1056 466 1035 q 413 1076 434 1076 q 357 1041 380 1076 q 326 923 335 1006 l 323 909 l 253 909 l 255 928 q 314 1090 270 1032 q 427 1149 359 1149 q 498 1126 472 1149 q 544 1056 524 1102 q 582 991 567 1013 q 617 970 597 970 q 671 1004 649 970 q 705 1122 693 1039 l 706 1136 l 777 1136 l 774 1117 q 716 955 760 1014 q 604 896 672 896 z "},"ī":{"ha":884,"x_min":74,"x_max":753,"o":"m 74 0 m 74 0 l 86 80 l 338 80 l 422 678 l 169 678 l 181 758 l 521 758 l 427 80 l 679 80 l 668 0 l 74 0 m 274 972 l 285 1052 l 753 1052 l 741 972 l 274 972 z "},"ĭ":{"ha":884,"x_min":74,"x_max":802,"o":"m 74 0 m 74 0 l 86 80 l 338 80 l 422 678 l 169 678 l 181 758 l 521 758 l 427 80 l 679 80 l 668 0 l 74 0 m 494 875 q 307 940 370 875 q 261 1140 244 1005 l 350 1140 q 376 994 338 1038 q 505 949 413 949 q 647 994 597 949 q 713 1140 697 1038 l 802 1140 q 699 940 782 1005 q 494 875 617 875 z "},"į":{"ha":884,"x_min":74,"x_max":679,"o":"m 74 0 m 74 0 l 86 80 l 338 80 l 422 678 l 169 678 l 181 758 l 521 758 l 427 80 l 679 80 l 668 0 l 74 0 m 499 912 q 443 924 463 912 q 427 968 422 936 l 428 977 q 457 1024 433 1011 q 516 1037 481 1037 q 573 1024 552 1037 q 590 977 595 1011 l 588 968 q 559 924 583 936 q 499 912 534 912 m 453 -271 q 333 -233 378 -271 q 298 -129 288 -194 q 356 -23 306 -71 q 473 49 407 24 l 494 29 q 415 -34 442 0 q 384 -105 389 -68 q 400 -170 378 -149 q 475 -192 423 -192 q 526 -189 499 -192 q 577 -181 553 -186 l 566 -260 q 509 -268 540 -265 q 453 -271 477 -271 z "},"j":{"ha":884,"x_min":42,"x_max":717,"o":"m 42 0 m 226 -263 q 133 -256 179 -263 q 42 -236 86 -249 l 72 -153 q 153 -174 112 -168 q 234 -179 194 -179 q 385 -131 328 -179 q 456 20 442 -82 l 548 678 l 194 678 l 206 758 l 648 758 l 543 8 q 438 -193 524 -124 q 226 -263 352 -263 m 621 912 q 565 924 586 912 q 549 968 544 936 l 551 977 q 580 1024 556 1011 q 639 1037 604 1037 q 696 1024 674 1037 q 712 977 717 1011 l 711 968 q 681 924 706 936 q 621 912 657 912 z "},"ĵ":{"ha":884,"x_min":42,"x_max":838,"o":"m 42 0 m 226 -263 q 133 -256 179 -263 q 42 -236 86 -249 l 72 -153 q 153 -174 112 -168 q 234 -179 194 -179 q 385 -131 328 -179 q 456 20 442 -82 l 548 678 l 194 678 l 206 758 l 648 758 l 543 8 q 438 -193 524 -124 q 226 -263 352 -263 m 365 903 l 338 956 l 586 1158 l 646 1158 l 838 956 l 795 903 l 604 1073 l 365 903 z "},"k":{"ha":884,"x_min":138,"x_max":793,"o":"m 277 360 l 226 0 l 138 0 l 279 1010 l 367 1010 l 288 437 l 390 437 l 686 758 l 793 758 l 457 404 l 683 0 l 582 0 l 380 360 l 277 360 z "},"ķ":{"ha":884,"x_min":138,"x_max":793,"o":"m 138 0 m 277 360 l 226 0 l 138 0 l 279 1010 l 367 1010 l 288 437 l 390 437 l 686 758 l 793 758 l 457 404 l 683 0 l 582 0 l 380 360 l 277 360 m 155 -379 l 312 -126 l 448 -126 l 232 -379 l 155 -379 z "},"l":{"ha":884,"x_min":74,"x_max":679,"o":"m 74 0 l 86 80 l 338 80 l 458 931 l 206 931 l 216 1010 l 557 1010 l 427 80 l 679 80 l 668 0 l 74 0 z "},"ĺ":{"ha":884,"x_min":74,"x_max":756,"o":"m 74 0 m 74 0 l 86 80 l 338 80 l 458 931 l 206 931 l 216 1010 l 557 1010 l 427 80 l 679 80 l 668 0 l 74 0 m 405 1136 l 620 1389 l 756 1389 l 482 1136 l 405 1136 z "},"ļ":{"ha":884,"x_min":74,"x_max":679,"o":"m 74 0 m 74 0 l 86 80 l 338 80 l 458 931 l 206 931 l 216 1010 l 557 1010 l 427 80 l 679 80 l 668 0 l 74 0 m 133 -379 l 289 -126 l 426 -126 l 210 -379 l 133 -379 z "},"ľ":{"ha":884,"x_min":74,"x_max":947,"o":"m 74 0 m 74 0 l 86 80 l 338 80 l 458 931 l 206 931 l 216 1010 l 557 1010 l 427 80 l 679 80 l 668 0 l 74 0 m 673 928 l 822 1263 l 947 1263 l 741 928 l 673 928 z "},"m":{"ha":884,"x_min":16,"x_max":819,"o":"m 183 581 l 101 0 l 16 0 l 122 758 l 207 758 l 193 657 l 211 657 q 283 739 242 708 q 372 770 323 770 q 454 741 423 770 q 494 657 485 711 l 513 657 q 588 739 544 708 q 686 770 633 770 q 787 715 754 770 q 806 566 819 660 l 726 0 l 641 0 l 718 549 q 713 661 730 625 q 653 697 697 697 q 580 667 619 697 q 495 581 542 636 l 413 0 l 330 0 l 407 549 q 401 661 418 625 q 340 697 384 697 q 268 667 306 697 q 183 581 230 638 z "},"n":{"ha":884,"x_min":74,"x_max":758,"o":"m 74 0 l 181 758 l 269 758 l 251 631 l 274 631 q 386 733 314 696 q 535 770 457 770 q 702 703 646 770 q 741 519 758 635 l 668 0 l 580 0 l 650 501 q 626 640 663 592 q 508 687 590 687 q 375 653 442 687 q 240 552 308 619 l 163 0 l 74 0 z "},"ñ":{"ha":884,"x_min":74,"x_max":802,"o":"m 74 0 m 74 0 l 181 758 l 269 758 l 251 631 l 274 631 q 386 733 314 696 q 535 770 457 770 q 702 703 646 770 q 741 519 758 635 l 668 0 l 580 0 l 650 501 q 626 640 663 592 q 508 687 590 687 q 375 653 442 687 q 240 552 308 619 l 163 0 l 74 0 m 629 896 q 560 920 586 896 q 510 994 534 943 q 475 1056 491 1035 q 438 1076 460 1076 q 383 1041 405 1076 q 351 923 360 1006 l 348 909 l 278 909 l 280 928 q 340 1090 295 1032 q 452 1149 384 1149 q 523 1126 497 1149 q 569 1056 549 1102 q 607 991 592 1013 q 643 970 622 970 q 696 1004 674 970 q 730 1122 718 1039 l 731 1136 l 802 1136 l 799 1117 q 741 955 785 1014 q 629 896 697 896 z "},"ń":{"ha":884,"x_min":74,"x_max":763,"o":"m 74 0 m 74 0 l 181 758 l 269 758 l 251 631 l 274 631 q 386 733 314 696 q 535 770 457 770 q 702 703 646 770 q 741 519 758 635 l 668 0 l 580 0 l 650 501 q 626 640 663 592 q 508 687 590 687 q 375 653 442 687 q 240 552 308 619 l 163 0 l 74 0 m 412 884 l 626 1136 l 763 1136 l 489 884 l 412 884 z "},"ņ":{"ha":884,"x_min":74,"x_max":758,"o":"m 74 0 m 74 0 l 181 758 l 269 758 l 251 631 l 274 631 q 386 733 314 696 q 535 770 457 770 q 702 703 646 770 q 741 519 758 635 l 668 0 l 580 0 l 650 501 q 626 640 663 592 q 508 687 590 687 q 375 653 442 687 q 240 552 308 619 l 163 0 l 74 0 m 164 -379 l 321 -126 l 457 -126 l 241 -379 l 164 -379 z "},"ň":{"ha":884,"x_min":74,"x_max":799,"o":"m 74 0 m 74 0 l 181 758 l 269 758 l 251 631 l 274 631 q 386 733 314 696 q 535 770 457 770 q 702 703 646 770 q 741 519 758 635 l 668 0 l 580 0 l 650 501 q 626 640 663 592 q 508 687 590 687 q 375 653 442 687 q 240 552 308 619 l 163 0 l 74 0 m 491 889 l 299 1091 l 341 1144 l 533 973 l 771 1144 l 799 1091 l 552 889 l 491 889 z "},"o":{"ha":884,"x_min":93,"x_max":755,"o":"m 370 -13 q 160 61 227 -13 q 112 274 93 135 l 141 479 q 250 695 162 620 q 481 770 338 770 q 689 695 624 770 q 735 479 755 620 l 706 274 q 600 61 687 135 q 370 -13 513 -13 m 380 67 q 545 117 486 67 q 617 274 604 168 l 646 479 q 618 639 662 587 q 468 691 574 691 q 304 639 362 691 q 230 479 245 587 l 201 274 q 230 117 187 168 q 380 67 274 67 z "},"ò":{"ha":884,"x_min":93,"x_max":755,"o":"m 93 0 m 370 -13 q 160 61 227 -13 q 112 274 93 135 l 141 479 q 250 695 162 620 q 481 770 338 770 q 689 695 624 770 q 735 479 755 620 l 706 274 q 600 61 687 135 q 370 -13 513 -13 m 380 67 q 545 117 486 67 q 617 274 604 168 l 646 479 q 618 639 662 587 q 468 691 574 691 q 304 639 362 691 q 230 479 245 587 l 201 274 q 230 117 187 168 q 380 67 274 67 m 515 884 l 312 1136 l 448 1136 l 592 884 l 515 884 z "},"ó":{"ha":884,"x_min":93,"x_max":755,"o":"m 93 0 m 370 -13 q 160 61 227 -13 q 112 274 93 135 l 141 479 q 250 695 162 620 q 481 770 338 770 q 689 695 624 770 q 735 479 755 620 l 706 274 q 600 61 687 135 q 370 -13 513 -13 m 380 67 q 545 117 486 67 q 617 274 604 168 l 646 479 q 618 639 662 587 q 468 691 574 691 q 304 639 362 691 q 230 479 245 587 l 201 274 q 230 117 187 168 q 380 67 274 67 m 386 884 l 601 1136 l 737 1136 l 463 884 l 386 884 z "},"ô":{"ha":884,"x_min":93,"x_max":755,"o":"m 93 0 m 370 -13 q 160 61 227 -13 q 112 274 93 135 l 141 479 q 250 695 162 620 q 481 770 338 770 q 689 695 624 770 q 735 479 755 620 l 706 274 q 600 61 687 135 q 370 -13 513 -13 m 380 67 q 545 117 486 67 q 617 274 604 168 l 646 479 q 618 639 662 587 q 468 691 574 691 q 304 639 362 691 q 230 479 245 587 l 201 274 q 230 117 187 168 q 380 67 274 67 m 282 903 l 255 956 l 503 1158 l 563 1158 l 755 956 l 712 903 l 520 1073 l 282 903 z "},"õ":{"ha":884,"x_min":93,"x_max":777,"o":"m 93 0 m 370 -13 q 160 61 227 -13 q 112 274 93 135 l 141 479 q 250 695 162 620 q 481 770 338 770 q 689 695 624 770 q 735 479 755 620 l 706 274 q 600 61 687 135 q 370 -13 513 -13 m 380 67 q 545 117 486 67 q 617 274 604 168 l 646 479 q 618 639 662 587 q 468 691 574 691 q 304 639 362 691 q 230 479 245 587 l 201 274 q 230 117 187 168 q 380 67 274 67 m 604 896 q 535 920 561 896 q 485 994 509 943 q 450 1056 466 1035 q 413 1076 434 1076 q 357 1041 380 1076 q 326 923 335 1006 l 323 909 l 253 909 l 255 928 q 314 1090 270 1032 q 427 1149 359 1149 q 498 1126 472 1149 q 544 1056 524 1102 q 582 991 567 1013 q 617 970 597 970 q 671 1004 649 970 q 705 1122 693 1039 l 706 1136 l 777 1136 l 774 1117 q 716 955 760 1014 q 604 896 672 896 z "},"ö":{"ha":884,"x_min":93,"x_max":755,"o":"m 93 0 m 370 -13 q 160 61 227 -13 q 112 274 93 135 l 141 479 q 250 695 162 620 q 481 770 338 770 q 689 695 624 770 q 735 479 755 620 l 706 274 q 600 61 687 135 q 370 -13 513 -13 m 380 67 q 545 117 486 67 q 617 274 604 168 l 646 479 q 618 639 662 587 q 468 691 574 691 q 304 639 362 691 q 230 479 245 587 l 201 274 q 230 117 187 168 q 380 67 274 67 m 361 912 q 314 924 331 912 q 303 968 298 936 l 304 977 q 329 1024 309 1011 q 379 1037 348 1037 q 426 1024 409 1037 q 438 977 443 1011 l 437 968 q 411 924 432 936 q 361 912 390 912 m 636 912 q 590 924 606 912 q 578 968 573 936 l 580 977 q 604 1024 585 1011 q 654 1037 624 1037 q 701 1024 684 1037 q 713 977 718 1011 l 712 968 q 686 924 707 936 q 636 912 665 912 z "},"ō":{"ha":884,"x_min":93,"x_max":755,"o":"m 93 0 m 370 -13 q 160 61 227 -13 q 112 274 93 135 l 141 479 q 250 695 162 620 q 481 770 338 770 q 689 695 624 770 q 735 479 755 620 l 706 274 q 600 61 687 135 q 370 -13 513 -13 m 380 67 q 545 117 486 67 q 617 274 604 168 l 646 479 q 618 639 662 587 q 468 691 574 691 q 304 639 362 691 q 230 479 245 587 l 201 274 q 230 117 187 168 q 380 67 274 67 m 274 972 l 285 1052 l 753 1052 l 741 972 l 274 972 z "},"ŏ":{"ha":884,"x_min":93,"x_max":802,"o":"m 93 0 m 370 -13 q 160 61 227 -13 q 112 274 93 135 l 141 479 q 250 695 162 620 q 481 770 338 770 q 689 695 624 770 q 735 479 755 620 l 706 274 q 600 61 687 135 q 370 -13 513 -13 m 380 67 q 545 117 486 67 q 617 274 604 168 l 646 479 q 618 639 662 587 q 468 691 574 691 q 304 639 362 691 q 230 479 245 587 l 201 274 q 230 117 187 168 q 380 67 274 67 m 494 875 q 307 940 370 875 q 261 1140 244 1005 l 350 1140 q 376 994 338 1038 q 505 949 413 949 q 647 994 597 949 q 713 1140 697 1038 l 802 1140 q 699 940 782 1005 q 494 875 617 875 z "},"ő":{"ha":884,"x_min":93,"x_max":811,"o":"m 93 0 m 370 -13 q 160 61 227 -13 q 112 274 93 135 l 141 479 q 250 695 162 620 q 481 770 338 770 q 689 695 624 770 q 735 479 755 620 l 706 274 q 600 61 687 135 q 370 -13 513 -13 m 380 67 q 545 117 486 67 q 617 274 604 168 l 646 479 q 618 639 662 587 q 468 691 574 691 q 304 639 362 691 q 230 479 245 587 l 201 274 q 230 117 187 168 q 380 67 274 67 m 566 884 l 672 1136 l 811 1136 l 633 884 l 566 884 m 306 884 l 412 1136 l 551 1136 l 372 884 l 306 884 z "},"p":{"ha":884,"x_min":39,"x_max":755,"o":"m 369 64 q 543 116 482 64 q 619 279 604 168 l 648 484 q 628 639 663 590 q 506 688 593 688 q 372 656 437 688 q 240 552 308 624 l 179 120 q 268 78 221 92 q 369 64 314 64 m 360 -13 q 265 -1 317 -13 q 167 30 213 10 l 128 -253 l 39 -253 l 181 758 l 269 758 l 251 631 l 274 631 q 387 734 317 698 q 534 770 457 770 q 701 693 648 770 q 736 482 755 616 l 707 277 q 595 64 688 141 q 360 -13 503 -13 z "},"q":{"ha":884,"x_min":93,"x_max":766,"o":"m 544 -253 l 597 126 l 574 126 q 457 24 527 61 q 308 -13 388 -13 q 145 63 196 -13 q 114 275 93 139 l 143 481 q 256 694 162 619 q 490 770 351 770 q 641 752 568 770 q 766 699 713 734 l 633 -253 l 544 -253 m 343 69 q 478 103 413 69 q 609 206 543 136 l 670 645 q 584 681 630 669 q 480 693 538 693 q 310 641 375 693 q 230 479 245 588 l 203 288 q 222 123 188 177 q 343 69 256 69 z "},"r":{"ha":884,"x_min":138,"x_max":770,"o":"m 138 0 l 244 758 l 332 758 l 314 631 l 337 631 q 449 738 388 706 q 582 770 511 770 q 722 714 674 770 q 756 556 770 658 l 742 461 l 657 461 l 668 535 q 648 648 678 607 q 544 688 619 688 q 420 655 480 688 q 304 553 361 621 l 226 0 l 138 0 z "},"ŕ":{"ha":884,"x_min":138,"x_max":788,"o":"m 138 0 m 138 0 l 244 758 l 332 758 l 314 631 l 337 631 q 449 738 388 706 q 582 770 511 770 q 722 714 674 770 q 756 556 770 658 l 742 461 l 657 461 l 668 535 q 648 648 678 607 q 544 688 619 688 q 420 655 480 688 q 304 553 361 621 l 226 0 l 138 0 m 437 884 l 652 1136 l 788 1136 l 514 884 l 437 884 z "},"ŗ":{"ha":884,"x_min":0,"x_max":770,"o":"m 0 0 m 138 0 l 244 758 l 332 758 l 314 631 l 337 631 q 449 738 388 706 q 582 770 511 770 q 722 714 674 770 q 756 556 770 658 l 742 461 l 657 461 l 668 535 q 648 648 678 607 q 544 688 619 688 q 420 655 480 688 q 304 553 361 621 l 226 0 l 138 0 m 0 -379 l 157 -126 l 293 -126 l 77 -379 l 0 -379 z "},"ř":{"ha":884,"x_min":138,"x_max":824,"o":"m 138 0 m 138 0 l 244 758 l 332 758 l 314 631 l 337 631 q 449 738 388 706 q 582 770 511 770 q 722 714 674 770 q 756 556 770 658 l 742 461 l 657 461 l 668 535 q 648 648 678 607 q 544 688 619 688 q 420 655 480 688 q 304 553 361 621 l 226 0 l 138 0 m 516 889 l 324 1091 l 366 1144 l 558 973 l 797 1144 l 824 1091 l 577 889 l 516 889 z "},"s":{"ha":884,"x_min":62,"x_max":734,"o":"m 388 -13 q 210 15 294 -13 q 62 101 126 43 l 115 172 q 243 94 170 121 q 398 67 316 67 q 542 98 481 67 q 614 197 604 129 q 577 288 622 259 q 399 338 532 317 q 199 410 259 361 q 152 552 139 458 q 249 712 167 654 q 442 770 332 770 q 600 741 527 770 q 734 659 673 711 l 683 590 q 568 662 631 634 q 431 691 504 691 q 303 659 356 691 q 241 563 250 628 q 276 469 232 499 q 452 419 319 439 q 655 347 595 396 q 702 206 715 297 q 597 44 687 101 q 388 -13 508 -13 z "},"":{"ha":884,"x_min":62,"x_max":734,"o":"m 388 -13 q 210 15 294 -13 q 62 101 126 43 l 115 172 q 243 94 170 121 q 398 67 316 67 q 542 98 481 67 q 614 197 604 129 q 577 288 622 259 q 399 338 532 317 q 199 410 259 361 q 152 552 139 458 q 249 712 167 654 q 442 770 332 770 q 600 741 527 770 q 734 659 673 711 l 683 590 q 568 662 631 634 q 431 691 504 691 q 303 659 356 691 q 241 563 250 628 q 276 469 232 499 q 452 419 319 439 q 655 347 595 396 q 702 206 715 297 q 597 44 687 101 q 388 -13 508 -13 z "},"ś":{"ha":884,"x_min":62,"x_max":735,"o":"m 62 0 m 388 -13 q 210 15 294 -13 q 62 101 126 43 l 115 172 q 243 94 170 121 q 398 67 316 67 q 542 98 481 67 q 614 197 604 129 q 577 288 622 259 q 399 338 532 317 q 199 410 259 361 q 152 552 139 458 q 249 712 167 654 q 442 770 332 770 q 600 741 527 770 q 734 659 673 711 l 683 590 q 568 662 631 634 q 431 691 504 691 q 303 659 356 691 q 241 563 250 628 q 276 469 232 499 q 452 419 319 439 q 655 347 595 396 q 702 206 715 297 q 597 44 687 101 q 388 -13 508 -13 m 384 884 l 598 1136 l 735 1136 l 461 884 l 384 884 z "},"ŝ":{"ha":884,"x_min":62,"x_max":753,"o":"m 62 0 m 388 -13 q 210 15 294 -13 q 62 101 126 43 l 115 172 q 243 94 170 121 q 398 67 316 67 q 542 98 481 67 q 614 197 604 129 q 577 288 622 259 q 399 338 532 317 q 199 410 259 361 q 152 552 139 458 q 249 712 167 654 q 442 770 332 770 q 600 741 527 770 q 734 659 673 711 l 683 590 q 568 662 631 634 q 431 691 504 691 q 303 659 356 691 q 241 563 250 628 q 276 469 232 499 q 452 419 319 439 q 655 347 595 396 q 702 206 715 297 q 597 44 687 101 q 388 -13 508 -13 m 279 903 l 253 956 l 500 1158 l 561 1158 l 753 956 l 710 903 l 518 1073 l 279 903 z "},"ş":{"ha":884,"x_min":62,"x_max":734,"o":"m 62 0 m 388 -13 q 210 15 294 -13 q 62 101 126 43 l 115 172 q 243 94 170 121 q 398 67 316 67 q 542 98 481 67 q 614 197 604 129 q 577 288 622 259 q 399 338 532 317 q 199 410 259 361 q 152 552 139 458 q 249 712 167 654 q 442 770 332 770 q 600 741 527 770 q 734 659 673 711 l 683 590 q 568 662 631 634 q 431 691 504 691 q 303 659 356 691 q 241 563 250 628 q 276 469 232 499 q 452 419 319 439 q 655 347 595 396 q 702 206 715 297 q 597 44 687 101 q 388 -13 508 -13 m 331 0 l 354 38 q 459 -14 420 25 q 487 -122 497 -53 q 422 -234 477 -196 q 290 -273 367 -273 q 170 -241 215 -273 q 131 -135 126 -210 l 213 -128 q 230 -183 212 -167 q 294 -199 249 -199 q 373 -181 347 -199 q 405 -112 399 -162 q 395 -39 413 -64 q 331 0 378 -14 z "},"š":{"ha":884,"x_min":62,"x_max":771,"o":"m 62 0 m 388 -13 q 210 15 294 -13 q 62 101 126 43 l 115 172 q 243 94 170 121 q 398 67 316 67 q 542 98 481 67 q 614 197 604 129 q 577 288 622 259 q 399 338 532 317 q 199 410 259 361 q 152 552 139 458 q 249 712 167 654 q 442 770 332 770 q 600 741 527 770 q 734 659 673 711 l 683 590 q 568 662 631 634 q 431 691 504 691 q 303 659 356 691 q 241 563 250 628 q 276 469 232 499 q 452 419 319 439 q 655 347 595 396 q 702 206 715 297 q 597 44 687 101 q 388 -13 508 -13 m 463 889 l 271 1091 l 313 1144 l 505 973 l 744 1144 l 771 1091 l 524 889 l 463 889 z "},"ș":{"ha":884,"x_min":62,"x_max":734,"o":"m 62 0 m 388 -13 q 210 15 294 -13 q 62 101 126 43 l 115 172 q 243 94 170 121 q 398 67 316 67 q 542 98 481 67 q 614 197 604 129 q 577 288 622 259 q 399 338 532 317 q 199 410 259 361 q 152 552 139 458 q 249 712 167 654 q 442 770 332 770 q 600 741 527 770 q 734 659 673 711 l 683 590 q 568 662 631 634 q 431 691 504 691 q 303 659 356 691 q 241 563 250 628 q 276 469 232 499 q 452 419 319 439 q 655 347 595 396 q 702 206 715 297 q 597 44 687 101 q 388 -13 508 -13 m 139 -379 l 295 -126 l 432 -126 l 216 -379 l 139 -379 z "},"t":{"ha":884,"x_min":131,"x_max":774,"o":"m 503 -11 q 326 52 384 -11 q 284 237 268 116 l 346 678 l 131 678 l 143 758 l 357 758 l 393 1010 l 481 1010 l 446 758 l 774 758 l 763 678 l 434 678 l 375 249 q 398 114 362 158 q 521 71 434 71 q 598 79 558 71 q 678 100 639 87 l 684 20 q 596 -3 643 5 q 503 -11 549 -11 z "},"ţ":{"ha":884,"x_min":131,"x_max":774,"o":"m 131 0 m 503 -11 q 326 52 384 -11 q 284 237 268 116 l 346 678 l 131 678 l 143 758 l 357 758 l 393 1010 l 481 1010 l 446 758 l 774 758 l 763 678 l 434 678 l 375 249 q 398 114 362 158 q 521 71 434 71 q 598 79 558 71 q 678 100 639 87 l 684 20 q 596 -3 643 5 q 503 -11 549 -11 m 415 0 l 438 38 q 544 -14 505 25 q 572 -122 582 -53 q 507 -234 562 -196 q 375 -273 452 -273 q 255 -241 299 -273 q 216 -135 211 -210 l 298 -128 q 315 -183 297 -167 q 379 -199 333 -199 q 458 -181 432 -199 q 490 -112 484 -162 q 480 -39 497 -64 q 415 0 462 -14 z "},"ť":{"ha":884,"x_min":131,"x_max":871,"o":"m 131 0 m 503 -11 q 326 52 384 -11 q 284 237 268 116 l 346 678 l 131 678 l 143 758 l 357 758 l 393 1010 l 481 1010 l 446 758 l 774 758 l 763 678 l 434 678 l 375 249 q 398 114 362 158 q 521 71 434 71 q 598 79 558 71 q 678 100 639 87 l 684 20 q 596 -3 643 5 q 503 -11 549 -11 m 597 928 l 746 1263 l 871 1263 l 665 928 l 597 928 z "},"ț":{"ha":884,"x_min":131,"x_max":774,"o":"m 131 0 m 503 -11 q 326 52 384 -11 q 284 237 268 116 l 346 678 l 131 678 l 143 758 l 357 758 l 393 1010 l 481 1010 l 446 758 l 774 758 l 763 678 l 434 678 l 375 249 q 398 114 362 158 q 521 71 434 71 q 598 79 558 71 q 678 100 639 87 l 684 20 q 596 -3 643 5 q 503 -11 549 -11 m 164 -379 l 321 -126 l 457 -126 l 241 -379 l 164 -379 z "},"u":{"ha":884,"x_min":92,"x_max":774,"o":"m 314 -13 q 148 58 205 -13 q 109 246 92 129 l 181 758 l 269 758 l 201 271 q 222 120 187 170 q 341 69 258 69 q 471 103 404 69 q 609 206 538 136 l 686 758 l 774 758 l 668 0 l 580 0 l 597 126 l 574 126 q 459 23 527 59 q 314 -13 391 -13 z "},"ù":{"ha":884,"x_min":92,"x_max":774,"o":"m 92 0 m 314 -13 q 148 58 205 -13 q 109 246 92 129 l 181 758 l 269 758 l 201 271 q 222 120 187 170 q 341 69 258 69 q 471 103 404 69 q 609 206 538 136 l 686 758 l 774 758 l 668 0 l 580 0 l 597 126 l 574 126 q 459 23 527 59 q 314 -13 391 -13 m 477 884 l 274 1136 l 410 1136 l 554 884 l 477 884 z "},"ú":{"ha":884,"x_min":92,"x_max":788,"o":"m 92 0 m 314 -13 q 148 58 205 -13 q 109 246 92 129 l 181 758 l 269 758 l 201 271 q 222 120 187 170 q 341 69 258 69 q 471 103 404 69 q 609 206 538 136 l 686 758 l 774 758 l 668 0 l 580 0 l 597 126 l 574 126 q 459 23 527 59 q 314 -13 391 -13 m 437 884 l 652 1136 l 788 1136 l 514 884 l 437 884 z "},"û":{"ha":884,"x_min":92,"x_max":774,"o":"m 92 0 m 314 -13 q 148 58 205 -13 q 109 246 92 129 l 181 758 l 269 758 l 201 271 q 222 120 187 170 q 341 69 258 69 q 471 103 404 69 q 609 206 538 136 l 686 758 l 774 758 l 668 0 l 580 0 l 597 126 l 574 126 q 459 23 527 59 q 314 -13 391 -13 m 282 903 l 255 956 l 503 1158 l 563 1158 l 755 956 l 712 903 l 520 1073 l 282 903 z "},"ü":{"ha":884,"x_min":92,"x_max":774,"o":"m 92 0 m 314 -13 q 148 58 205 -13 q 109 246 92 129 l 181 758 l 269 758 l 201 271 q 222 120 187 170 q 341 69 258 69 q 471 103 404 69 q 609 206 538 136 l 686 758 l 774 758 l 668 0 l 580 0 l 597 126 l 574 126 q 459 23 527 59 q 314 -13 391 -13 m 361 912 q 314 924 331 912 q 303 968 298 936 l 304 977 q 329 1024 309 1011 q 379 1037 348 1037 q 426 1024 409 1037 q 438 977 443 1011 l 437 968 q 411 924 432 936 q 361 912 390 912 m 636 912 q 590 924 606 912 q 578 968 573 936 l 580 977 q 604 1024 585 1011 q 654 1037 624 1037 q 701 1024 684 1037 q 713 977 718 1011 l 712 968 q 686 924 707 936 q 636 912 665 912 z "},"ũ":{"ha":884,"x_min":92,"x_max":777,"o":"m 92 0 m 314 -13 q 148 58 205 -13 q 109 246 92 129 l 181 758 l 269 758 l 201 271 q 222 120 187 170 q 341 69 258 69 q 471 103 404 69 q 609 206 538 136 l 686 758 l 774 758 l 668 0 l 580 0 l 597 126 l 574 126 q 459 23 527 59 q 314 -13 391 -13 m 604 896 q 535 920 561 896 q 485 994 509 943 q 450 1056 466 1035 q 413 1076 434 1076 q 357 1041 380 1076 q 326 923 335 1006 l 323 909 l 253 909 l 255 928 q 314 1090 270 1032 q 427 1149 359 1149 q 498 1126 472 1149 q 544 1056 524 1102 q 582 991 567 1013 q 617 970 597 970 q 671 1004 649 970 q 705 1122 693 1039 l 706 1136 l 777 1136 l 774 1117 q 716 955 760 1014 q 604 896 672 896 z "},"ū":{"ha":884,"x_min":92,"x_max":774,"o":"m 92 0 m 314 -13 q 148 58 205 -13 q 109 246 92 129 l 181 758 l 269 758 l 201 271 q 222 120 187 170 q 341 69 258 69 q 471 103 404 69 q 609 206 538 136 l 686 758 l 774 758 l 668 0 l 580 0 l 597 126 l 574 126 q 459 23 527 59 q 314 -13 391 -13 m 274 972 l 285 1052 l 753 1052 l 741 972 l 274 972 z "},"ŭ":{"ha":884,"x_min":92,"x_max":802,"o":"m 92 0 m 314 -13 q 148 58 205 -13 q 109 246 92 129 l 181 758 l 269 758 l 201 271 q 222 120 187 170 q 341 69 258 69 q 471 103 404 69 q 609 206 538 136 l 686 758 l 774 758 l 668 0 l 580 0 l 597 126 l 574 126 q 459 23 527 59 q 314 -13 391 -13 m 494 875 q 307 940 370 875 q 261 1140 244 1005 l 350 1140 q 376 994 338 1038 q 505 949 413 949 q 647 994 597 949 q 713 1140 697 1038 l 802 1140 q 699 940 782 1005 q 494 875 617 875 z "},"ů":{"ha":884,"x_min":92,"x_max":774,"o":"m 92 0 m 314 -13 q 148 58 205 -13 q 109 246 92 129 l 181 758 l 269 758 l 201 271 q 222 120 187 170 q 341 69 258 69 q 471 103 404 69 q 609 206 538 136 l 686 758 l 774 758 l 668 0 l 580 0 l 597 126 l 574 126 q 459 23 527 59 q 314 -13 391 -13 m 492 865 q 362 911 405 865 q 332 1048 319 957 l 337 1088 q 407 1228 350 1181 q 551 1275 463 1275 q 681 1228 638 1275 q 711 1088 723 1181 l 706 1048 q 636 911 693 957 q 492 865 580 865 m 503 932 q 591 959 561 932 q 630 1048 621 986 l 635 1088 q 621 1179 644 1150 q 540 1208 598 1208 q 452 1179 482 1208 q 413 1088 422 1150 l 408 1048 q 422 959 399 986 q 503 932 444 932 z "},"ű":{"ha":884,"x_min":92,"x_max":836,"o":"m 92 0 m 314 -13 q 148 58 205 -13 q 109 246 92 129 l 181 758 l 269 758 l 201 271 q 222 120 187 170 q 341 69 258 69 q 471 103 404 69 q 609 206 538 136 l 686 758 l 774 758 l 668 0 l 580 0 l 597 126 l 574 126 q 459 23 527 59 q 314 -13 391 -13 m 591 884 l 697 1136 l 836 1136 l 658 884 l 591 884 m 331 884 l 437 1136 l 576 1136 l 398 884 l 331 884 z "},"ų":{"ha":884,"x_min":92,"x_max":774,"o":"m 92 0 m 314 -13 q 148 58 205 -13 q 109 246 92 129 l 181 758 l 269 758 l 201 271 q 222 120 187 170 q 341 69 258 69 q 471 103 404 69 q 609 206 538 136 l 686 758 l 774 758 l 668 0 l 580 0 l 597 126 l 574 126 q 459 23 527 59 q 314 -13 391 -13 m 630 -271 q 509 -233 554 -271 q 475 -129 465 -194 q 533 -23 482 -71 q 650 49 583 24 l 670 29 q 592 -34 619 0 q 561 -105 566 -68 q 577 -170 554 -149 q 652 -192 600 -192 q 703 -189 676 -192 q 754 -181 730 -186 l 742 -260 q 686 -268 717 -265 q 630 -271 654 -271 z "},"v":{"ha":884,"x_min":148,"x_max":806,"o":"m 423 0 l 318 0 l 148 758 l 242 758 l 384 77 l 715 758 l 806 758 l 423 0 z "},"w":{"ha":884,"x_min":92,"x_max":862,"o":"m 505 0 l 443 523 l 242 0 l 144 0 l 92 758 l 179 758 l 208 91 l 405 631 l 509 631 l 566 107 l 775 758 l 862 758 l 598 0 l 505 0 z "},"":{"ha":884,"x_min":92,"x_max":862,"o":"m 505 0 l 443 523 l 242 0 l 144 0 l 92 758 l 179 758 l 208 91 l 405 631 l 509 631 l 566 107 l 775 758 l 862 758 l 598 0 l 505 0 z "},"ŵ":{"ha":884,"x_min":92,"x_max":862,"o":"m 92 0 m 505 0 l 443 523 l 242 0 l 144 0 l 92 758 l 179 758 l 208 91 l 405 631 l 509 631 l 566 107 l 775 758 l 862 758 l 598 0 l 505 0 m 282 903 l 255 956 l 503 1158 l 563 1158 l 755 956 l 712 903 l 520 1073 l 282 903 z "},"ẁ":{"ha":884,"x_min":92,"x_max":862,"o":"m 92 0 m 505 0 l 443 523 l 242 0 l 144 0 l 92 758 l 179 758 l 208 91 l 405 631 l 509 631 l 566 107 l 775 758 l 862 758 l 598 0 l 505 0 m 515 884 l 312 1136 l 448 1136 l 592 884 l 515 884 z "},"ẃ":{"ha":884,"x_min":92,"x_max":862,"o":"m 92 0 m 505 0 l 443 523 l 242 0 l 144 0 l 92 758 l 179 758 l 208 91 l 405 631 l 509 631 l 566 107 l 775 758 l 862 758 l 598 0 l 505 0 m 386 884 l 601 1136 l 737 1136 l 463 884 l 386 884 z "},"ẅ":{"ha":884,"x_min":92,"x_max":862,"o":"m 92 0 m 505 0 l 443 523 l 242 0 l 144 0 l 92 758 l 179 758 l 208 91 l 405 631 l 509 631 l 566 107 l 775 758 l 862 758 l 598 0 l 505 0 m 361 912 q 314 924 331 912 q 303 968 298 936 l 304 977 q 329 1024 309 1011 q 379 1037 348 1037 q 426 1024 409 1037 q 438 977 443 1011 l 437 968 q 411 924 432 936 q 361 912 390 912 m 636 912 q 590 924 606 912 q 578 968 573 936 l 580 977 q 604 1024 585 1011 q 654 1037 624 1037 q 701 1024 684 1037 q 713 977 718 1011 l 712 968 q 686 924 707 936 q 636 912 665 912 z "},"x":{"ha":884,"x_min":57,"x_max":792,"o":"m 583 0 l 412 318 l 155 0 l 57 0 l 372 385 l 172 758 l 269 758 l 436 448 l 693 758 l 792 758 l 475 383 l 681 0 l 583 0 z "},"y":{"ha":884,"x_min":11,"x_max":806,"o":"m 111 -260 q 64 -258 88 -260 q 11 -249 40 -255 l 37 -170 q 86 -179 63 -177 q 136 -182 109 -182 q 244 -148 198 -182 q 332 -29 289 -115 l 348 0 l 321 0 l 148 758 l 242 758 l 388 81 l 715 758 l 806 758 l 405 -44 q 278 -210 348 -159 q 111 -260 207 -260 z "},"":{"ha":884,"x_min":11,"x_max":806,"o":"m 111 -260 q 64 -258 88 -260 q 11 -249 40 -255 l 37 -170 q 86 -179 63 -177 q 136 -182 109 -182 q 244 -148 198 -182 q 332 -29 289 -115 l 348 0 l 321 0 l 148 758 l 242 758 l 388 81 l 715 758 l 806 758 l 405 -44 q 278 -210 348 -159 q 111 -260 207 -260 z "},"ý":{"ha":884,"x_min":11,"x_max":806,"o":"m 11 0 m 111 -260 q 64 -258 88 -260 q 11 -249 40 -255 l 37 -170 q 86 -179 63 -177 q 136 -182 109 -182 q 244 -148 198 -182 q 332 -29 289 -115 l 348 0 l 321 0 l 148 758 l 242 758 l 388 81 l 715 758 l 806 758 l 405 -44 q 278 -210 348 -159 q 111 -260 207 -260 m 386 884 l 601 1136 l 737 1136 l 463 884 l 386 884 z "},"ÿ":{"ha":884,"x_min":11,"x_max":806,"o":"m 11 0 m 111 -260 q 64 -258 88 -260 q 11 -249 40 -255 l 37 -170 q 86 -179 63 -177 q 136 -182 109 -182 q 244 -148 198 -182 q 332 -29 289 -115 l 348 0 l 321 0 l 148 758 l 242 758 l 388 81 l 715 758 l 806 758 l 405 -44 q 278 -210 348 -159 q 111 -260 207 -260 m 361 912 q 314 924 331 912 q 303 968 298 936 l 304 977 q 329 1024 309 1011 q 379 1037 348 1037 q 426 1024 409 1037 q 438 977 443 1011 l 437 968 q 411 924 432 936 q 361 912 390 912 m 636 912 q 590 924 606 912 q 578 968 573 936 l 580 977 q 604 1024 585 1011 q 654 1037 624 1037 q 701 1024 684 1037 q 713 977 718 1011 l 712 968 q 686 924 707 936 q 636 912 665 912 z "},"ŷ":{"ha":884,"x_min":11,"x_max":806,"o":"m 11 0 m 111 -260 q 64 -258 88 -260 q 11 -249 40 -255 l 37 -170 q 86 -179 63 -177 q 136 -182 109 -182 q 244 -148 198 -182 q 332 -29 289 -115 l 348 0 l 321 0 l 148 758 l 242 758 l 388 81 l 715 758 l 806 758 l 405 -44 q 278 -210 348 -159 q 111 -260 207 -260 m 282 903 l 255 956 l 503 1158 l 563 1158 l 755 956 l 712 903 l 520 1073 l 282 903 z "},"ỳ":{"ha":884,"x_min":11,"x_max":806,"o":"m 11 0 m 111 -260 q 64 -258 88 -260 q 11 -249 40 -255 l 37 -170 q 86 -179 63 -177 q 136 -182 109 -182 q 244 -148 198 -182 q 332 -29 289 -115 l 348 0 l 321 0 l 148 758 l 242 758 l 388 81 l 715 758 l 806 758 l 405 -44 q 278 -210 348 -159 q 111 -260 207 -260 m 515 884 l 312 1136 l 448 1136 l 592 884 l 515 884 z "},"z":{"ha":884,"x_min":100,"x_max":749,"o":"m 643 0 l 100 0 l 111 80 l 633 678 l 196 678 l 206 758 l 749 758 l 739 678 l 215 80 l 654 80 l 643 0 z "},"ź":{"ha":884,"x_min":100,"x_max":749,"o":"m 100 0 m 643 0 l 100 0 l 111 80 l 633 678 l 196 678 l 206 758 l 749 758 l 739 678 l 215 80 l 654 80 l 643 0 m 386 884 l 601 1136 l 737 1136 l 463 884 l 386 884 z "},"ż":{"ha":884,"x_min":100,"x_max":749,"o":"m 100 0 m 643 0 l 100 0 l 111 80 l 633 678 l 196 678 l 206 758 l 749 758 l 739 678 l 215 80 l 654 80 l 643 0 m 499 912 q 443 924 463 912 q 427 968 422 936 l 428 977 q 457 1024 433 1011 q 516 1037 481 1037 q 573 1024 552 1037 q 590 977 595 1011 l 588 968 q 559 924 583 936 q 499 912 534 912 z "},"ž":{"ha":884,"x_min":100,"x_max":774,"o":"m 100 0 m 643 0 l 100 0 l 111 80 l 633 678 l 196 678 l 206 758 l 749 758 l 739 678 l 215 80 l 654 80 l 643 0 m 466 889 l 274 1091 l 316 1144 l 508 973 l 746 1144 l 774 1091 l 527 889 l 466 889 z "},"ª":{"ha":884,"x_min":154,"x_max":740,"o":"m 362 475 q 470 496 422 475 q 553 558 519 518 l 568 669 l 380 669 q 285 648 319 669 q 245 580 251 628 q 265 501 237 527 q 362 475 293 475 m 335 405 q 203 448 251 405 q 165 573 154 491 q 232 688 176 646 q 357 730 289 730 l 577 730 l 588 812 q 566 916 598 879 q 460 953 533 953 q 354 932 390 953 q 289 845 318 912 l 223 866 q 313 984 253 946 q 472 1023 372 1023 q 628 972 574 1023 q 668 824 682 922 l 633 572 q 647 496 624 513 q 740 489 670 480 l 730 412 q 615 426 653 405 q 582 515 577 446 l 568 515 q 469 436 529 467 q 335 405 409 405 z "},"º":{"ha":884,"x_min":187,"x_max":754,"o":"m 428 405 q 247 465 307 405 q 203 639 187 524 l 223 783 q 317 961 240 900 q 515 1023 394 1023 q 695 961 636 1023 q 737 783 754 900 l 717 639 q 624 465 701 524 q 428 405 548 405 m 438 479 q 576 517 528 479 q 636 639 625 556 l 657 783 q 632 909 669 869 q 505 949 595 949 q 366 909 414 949 q 304 783 317 869 l 284 639 q 310 517 273 556 q 438 479 347 479 z "},"ß":{"ha":884,"x_min":-24,"x_max":813,"o":"m 513 -8 q 372 19 437 -8 q 268 95 307 45 l 323 164 q 414 97 362 121 q 528 72 466 72 q 652 102 602 72 q 710 197 701 133 q 683 289 718 260 q 554 338 648 318 q 383 405 443 362 q 336 545 322 448 q 434 691 348 636 q 638 749 520 745 q 597 891 646 845 q 446 938 547 938 q 282 883 347 938 q 199 711 216 828 l 64 -253 l -24 -253 l 114 727 q 230 944 134 869 q 460 1020 327 1020 q 671 943 600 1020 q 725 735 742 865 l 717 681 q 508 652 583 681 q 424 553 433 622 q 457 467 415 494 q 602 419 499 441 q 759 350 705 396 q 799 203 813 303 q 703 46 784 100 q 513 -8 622 -8 z "},"æ":{"ha":884,"x_min":-4,"x_max":851,"o":"m 779 165 q 698 31 750 74 q 551 -13 645 -13 q 444 17 486 -13 q 385 101 402 47 l 372 101 q 282 20 332 52 q 167 -13 231 -13 q 42 42 88 -13 q 11 203 -4 96 q 83 350 24 295 q 218 405 143 405 l 393 405 l 409 525 q 395 650 420 604 q 303 696 369 696 q 215 670 244 696 q 155 574 186 645 l 86 597 q 171 725 115 679 q 317 770 227 770 q 419 742 376 770 q 472 663 461 715 q 551 742 501 713 q 655 770 600 770 q 802 708 753 770 q 832 514 851 645 l 812 365 l 466 365 l 447 230 q 460 99 433 139 q 554 59 487 59 q 650 85 619 59 q 703 178 681 110 l 779 165 m 487 523 l 475 429 l 737 429 l 749 511 q 736 654 763 610 q 644 698 710 698 q 540 655 580 698 q 487 523 500 612 m 356 148 l 384 342 l 245 342 q 144 311 183 342 q 95 211 105 279 q 107 96 85 135 q 191 57 129 57 q 279 82 237 57 q 356 148 321 107 z "},"ǽ":{"ha":884,"x_min":-4,"x_max":851,"o":"m 0 0 m 779 165 q 698 31 750 74 q 551 -13 645 -13 q 444 17 486 -13 q 385 101 402 47 l 372 101 q 282 20 332 52 q 167 -13 231 -13 q 42 42 88 -13 q 11 203 -4 96 q 83 350 24 295 q 218 405 143 405 l 393 405 l 409 525 q 395 650 420 604 q 303 696 369 696 q 215 670 244 696 q 155 574 186 645 l 86 597 q 171 725 115 679 q 317 770 227 770 q 419 742 376 770 q 472 663 461 715 q 551 742 501 713 q 655 770 600 770 q 802 708 753 770 q 832 514 851 645 l 812 365 l 466 365 l 447 230 q 460 99 433 139 q 554 59 487 59 q 650 85 619 59 q 703 178 681 110 l 779 165 m 487 523 l 475 429 l 737 429 l 749 511 q 736 654 763 610 q 644 698 710 698 q 540 655 580 698 q 487 523 500 612 m 356 148 l 384 342 l 245 342 q 144 311 183 342 q 95 211 105 279 q 107 96 85 135 q 191 57 129 57 q 279 82 237 57 q 356 148 321 107 m 451 884 l 665 1136 l 802 1136 l 528 884 l 451 884 z "},"ð":{"ha":884,"x_min":93,"x_max":870,"o":"m 370 -13 q 165 59 237 -13 q 114 278 93 131 l 126 369 q 232 561 144 490 q 447 631 321 631 q 583 602 532 631 q 648 530 634 572 l 665 530 q 659 686 673 616 q 609 809 645 755 l 362 705 l 372 775 l 566 857 q 470 925 528 896 q 338 973 413 953 l 371 1037 q 529 975 462 1013 q 641 890 596 938 l 870 987 l 860 917 l 682 841 q 739 682 726 773 q 735 476 751 591 l 708 285 q 594 59 686 130 q 370 -13 503 -13 m 381 67 q 547 117 491 67 q 619 275 604 168 l 629 355 q 602 503 644 456 q 449 551 559 551 q 285 503 340 551 q 215 355 230 456 l 205 275 q 230 117 189 168 q 381 67 271 67 z "},"ø":{"ha":884,"x_min":71,"x_max":779,"o":"m 201 274 q 200 186 194 223 q 225 124 206 148 l 574 670 q 527 686 554 681 q 468 691 500 691 q 304 640 362 691 q 230 479 245 588 l 201 274 m 380 67 q 544 116 486 67 q 617 274 602 164 l 646 479 q 648 568 654 529 q 624 631 641 606 l 275 86 q 322 72 295 77 q 380 67 348 67 m 370 -13 q 296 -6 331 -13 q 231 13 261 0 l 157 -107 l 71 -107 l 170 49 q 117 141 133 85 q 112 274 102 197 l 141 479 q 254 698 163 626 q 481 770 346 770 q 554 764 520 770 q 617 745 588 758 l 693 865 l 779 865 l 678 708 q 731 615 716 673 q 735 479 746 557 l 706 274 q 595 57 686 128 q 370 -13 505 -13 z "},"ǿ":{"ha":884,"x_min":71,"x_max":779,"o":"m 71 0 m 201 274 q 200 186 194 223 q 225 124 206 148 l 574 670 q 527 686 554 681 q 468 691 500 691 q 304 640 362 691 q 230 479 245 588 l 201 274 m 380 67 q 544 116 486 67 q 617 274 602 164 l 646 479 q 648 568 654 529 q 624 631 641 606 l 275 86 q 322 72 295 77 q 380 67 348 67 m 370 -13 q 296 -6 331 -13 q 231 13 261 0 l 157 -107 l 71 -107 l 170 49 q 117 141 133 85 q 112 274 102 197 l 141 479 q 254 698 163 626 q 481 770 346 770 q 554 764 520 770 q 617 745 588 758 l 693 865 l 779 865 l 678 708 q 731 615 716 673 q 735 479 746 557 l 706 274 q 595 57 686 128 q 370 -13 505 -13 m 386 884 l 601 1136 l 737 1136 l 463 884 l 386 884 z "},"þ":{"ha":884,"x_min":39,"x_max":755,"o":"m 369 64 q 543 117 482 64 q 619 279 604 169 l 648 484 q 628 639 663 590 q 506 688 593 688 q 372 655 437 688 q 240 552 307 622 l 179 120 q 268 78 222 92 q 369 64 314 64 m 360 -13 q 265 -1 317 -13 q 167 30 212 10 l 128 -253 l 39 -253 l 216 1010 l 304 1010 l 251 631 l 274 631 q 387 734 317 698 q 534 770 457 770 q 701 693 646 770 q 736 482 755 616 l 707 277 q 595 64 688 141 q 360 -13 503 -13 z "},"đ":{"ha":884,"x_min":92,"x_max":918,"o":"m 343 69 q 478 102 414 69 q 609 206 542 135 l 660 574 q 571 616 616 602 q 471 630 525 630 q 298 582 357 630 q 225 431 239 534 l 202 265 q 222 117 187 164 q 343 69 256 69 m 573 119 q 460 22 525 57 q 312 -13 394 -13 q 145 59 198 -13 q 111 260 92 130 l 135 433 q 244 635 154 563 q 481 707 335 707 q 578 695 528 707 q 673 662 629 683 l 693 809 l 441 809 l 451 884 l 703 884 l 721 1010 l 809 1010 l 792 884 l 918 884 l 908 809 l 782 809 l 668 0 l 580 0 l 596 119 l 573 119 z "},"ħ":{"ha":884,"x_min":62,"x_max":750,"o":"m 231 485 l 163 0 l 74 0 l 188 809 l 62 809 l 72 884 l 198 884 l 216 1010 l 304 1010 l 287 884 l 539 884 l 529 809 l 277 809 l 242 568 l 265 568 q 384 672 317 636 q 530 707 451 707 q 692 644 634 707 q 734 468 750 581 l 668 0 l 580 0 l 643 448 q 616 581 655 537 q 500 625 577 625 q 369 591 434 625 q 231 485 303 557 z "},"ı":{"ha":884,"x_min":74,"x_max":679,"o":"m 74 0 l 86 80 l 338 80 l 422 678 l 169 678 l 181 758 l 521 758 l 427 80 l 679 80 l 668 0 l 74 0 z "},"ĳ":{"ha":884,"x_min":100,"x_max":841,"o":"m 271 912 q 215 924 236 912 q 199 968 194 937 l 201 977 q 229 1023 205 1010 q 289 1037 254 1037 q 345 1023 324 1037 q 362 977 366 1010 l 361 968 q 331 924 356 937 q 271 912 307 912 m 746 912 q 689 924 710 912 q 674 968 669 937 l 676 977 q 703 1023 679 1010 q 764 1037 727 1037 q 820 1023 799 1037 q 837 977 841 1010 l 836 968 q 806 924 831 937 q 746 912 782 912 m 188 0 l 100 0 l 206 758 l 294 758 l 188 0 m 386 -263 q 309 -256 347 -263 q 235 -236 271 -250 l 265 -154 q 330 -174 298 -169 q 394 -179 362 -179 q 520 -134 471 -179 q 582 5 568 -90 l 676 678 l 510 678 l 521 758 l 775 758 l 668 -8 q 574 -198 650 -133 q 386 -263 497 -263 z "},"ĸ":{"ha":884,"x_min":138,"x_max":793,"o":"m 138 0 m 277 360 l 226 0 l 138 0 l 244 758 l 332 758 l 288 437 l 390 437 l 686 758 l 793 758 l 457 404 l 683 0 l 582 0 l 380 360 l 277 360 z "},"ŀ":{"ha":884,"x_min":74,"x_max":999,"o":"m 74 0 m 74 0 l 86 80 l 338 80 l 458 931 l 206 931 l 216 1010 l 557 1010 l 427 80 l 679 80 l 668 0 l 74 0 m 903 407 q 847 419 867 407 q 831 463 826 431 l 832 472 q 861 519 837 506 q 920 532 885 532 q 977 519 956 532 q 994 472 999 506 l 992 463 q 963 419 987 431 q 903 407 938 407 z "},"ł":{"ha":884,"x_min":74,"x_max":711,"o":"m 176 407 l 187 481 l 711 620 l 701 545 l 176 407 m 74 0 l 86 80 l 338 80 l 458 931 l 206 931 l 216 1010 l 557 1010 l 427 80 l 679 80 l 668 0 l 74 0 z "},"ŉ":{"ha":884,"x_min":71,"x_max":758,"o":"m 71 0 m 74 0 l 181 758 l 269 758 l 251 631 l 274 631 q 386 733 314 696 q 535 770 457 770 q 702 703 646 770 q 741 519 758 635 l 668 0 l 580 0 l 650 501 q 626 640 663 592 q 508 687 590 687 q 375 653 442 687 q 240 552 308 619 l 163 0 l 74 0 m 71 884 l 285 1136 l 422 1136 l 148 884 l 71 884 z "},"ŋ":{"ha":884,"x_min":74,"x_max":758,"o":"m 394 -263 q 328 -256 362 -263 q 256 -239 293 -250 l 288 -155 q 350 -174 319 -168 q 409 -179 381 -179 q 521 -135 475 -179 q 581 9 567 -91 l 652 510 q 628 643 663 597 q 509 688 592 688 q 375 655 441 688 q 240 552 309 621 l 163 0 l 74 0 l 181 758 l 269 758 l 251 631 l 274 631 q 387 734 316 697 q 545 770 458 770 q 705 704 653 770 q 741 523 758 638 l 667 -8 q 573 -200 649 -138 q 394 -263 496 -263 z "},"œ":{"ha":884,"x_min":1,"x_max":848,"o":"m 779 158 q 689 30 744 73 q 547 -13 634 -13 q 439 19 484 -13 q 385 109 395 51 q 302 19 354 51 q 191 -13 250 -13 q 47 59 92 -13 q 20 274 1 131 l 49 479 q 136 696 69 622 q 302 770 203 770 q 405 741 361 770 q 462 654 449 711 q 544 740 494 710 q 652 770 593 770 q 801 699 754 770 q 828 487 848 628 l 812 365 l 462 365 l 447 256 q 458 105 432 152 q 551 59 484 59 q 642 85 611 59 q 702 173 673 110 l 779 158 m 480 496 l 471 429 l 737 429 l 745 485 q 734 646 760 596 q 640 697 708 697 q 535 648 576 697 q 480 496 495 598 m 206 62 q 314 111 274 62 q 370 274 355 160 l 399 479 q 389 643 415 590 q 294 696 362 696 q 189 643 229 696 q 133 479 149 590 l 104 274 q 114 111 88 160 q 206 62 140 62 z "},"ŧ":{"ha":884,"x_min":109,"x_max":774,"o":"m 109 372 l 120 452 l 712 452 l 701 372 l 109 372 m 503 -11 q 326 52 384 -11 q 284 237 268 116 l 346 678 l 131 678 l 143 758 l 357 758 l 393 1010 l 481 1010 l 446 758 l 774 758 l 763 678 l 434 678 l 375 249 q 398 114 362 158 q 521 71 434 71 q 598 79 558 71 q 678 100 639 87 l 684 20 q 596 -3 643 5 q 503 -11 549 -11 z "},"ſ":{"ha":884,"x_min":270,"x_max":811,"o":"m 292 -253 l 422 678 l 270 678 l 282 758 l 433 758 l 441 808 q 521 967 455 910 q 670 1023 587 1023 q 745 1014 706 1023 q 811 992 784 1005 l 783 918 q 727 936 758 928 q 663 943 696 943 q 574 912 610 943 q 529 809 539 880 l 380 -253 l 292 -253 z "},"ȷ":{"ha":884,"x_min":42,"x_max":648,"o":"m 226 -263 q 133 -256 179 -263 q 42 -236 86 -249 l 72 -153 q 153 -174 112 -168 q 234 -179 194 -179 q 385 -131 328 -179 q 456 20 442 -82 l 548 678 l 194 678 l 206 758 l 648 758 l 543 8 q 438 -193 524 -124 q 226 -263 352 -263 z "},"":{"ha":884,"x_min":42,"x_max":648,"o":"m 226 -263 q 133 -256 179 -263 q 42 -236 86 -249 l 72 -153 q 153 -174 112 -168 q 234 -179 194 -179 q 385 -131 328 -179 q 456 20 442 -82 l 548 678 l 194 678 l 206 758 l 648 758 l 543 8 q 438 -193 524 -124 q 226 -263 352 -263 z "},"α":{"ha":884,"x_min":82,"x_max":775,"o":"m 326 71 q 448 105 390 71 q 571 206 506 139 l 619 552 q 525 653 574 619 q 412 687 476 687 q 282 633 330 687 q 218 470 234 578 l 193 288 q 211 125 178 179 q 326 71 245 71 m 583 139 l 561 139 q 443 27 508 66 q 298 -13 379 -13 q 135 64 188 -13 q 101 275 82 140 l 130 482 q 223 694 149 617 q 408 770 298 770 q 527 733 476 770 q 607 631 578 696 l 630 631 l 648 758 l 736 758 l 658 202 q 673 90 646 115 q 775 78 699 66 l 764 -4 q 622 16 667 -16 q 583 139 577 49 z "},"ά":{"ha":884,"x_min":82,"x_max":775,"o":"m 82 0 m 326 71 q 448 105 390 71 q 571 206 506 139 l 619 552 q 525 653 574 619 q 412 687 476 687 q 282 633 330 687 q 218 470 234 578 l 193 288 q 211 125 178 179 q 326 71 245 71 m 583 139 l 561 139 q 443 27 508 66 q 298 -13 379 -13 q 135 64 188 -13 q 101 275 82 140 l 130 482 q 223 694 149 617 q 408 770 298 770 q 527 733 476 770 q 607 631 578 696 l 630 631 l 648 758 l 736 758 l 658 202 q 673 90 646 115 q 775 78 699 66 l 764 -4 q 622 16 667 -16 q 583 139 577 49 m 480 884 l 619 1136 l 750 1136 l 552 884 l 480 884 z "},"β":{"ha":884,"x_min":39,"x_max":753,"o":"m 369 64 q 540 115 480 64 q 615 271 600 165 l 622 324 q 592 458 635 415 q 442 501 548 501 l 378 501 l 388 578 l 444 578 q 585 617 535 578 q 645 736 634 655 l 648 759 q 624 898 662 854 q 491 943 586 943 q 335 890 390 943 q 265 727 280 837 l 179 114 q 265 76 218 88 q 369 64 311 64 m 360 -13 q 257 -2 308 -13 q 167 27 206 9 l 128 -253 l 39 -253 l 177 723 q 286 946 197 870 q 503 1023 375 1023 q 688 957 624 1023 q 736 774 753 891 l 731 741 q 677 618 721 668 q 561 556 634 568 l 557 534 q 684 468 643 525 q 715 328 725 412 l 706 269 q 588 59 686 130 q 360 -13 490 -13 z "},"γ":{"ha":884,"x_min":148,"x_max":806,"o":"m 386 -253 l 285 -253 l 331 19 l 148 758 l 245 758 l 391 130 l 708 758 l 806 758 l 417 19 l 386 -253 z "},"δ":{"ha":884,"x_min":93,"x_max":739,"o":"m 370 -13 q 162 59 231 -13 q 112 274 93 131 l 129 390 q 195 528 140 467 q 346 628 250 588 q 245 706 274 660 q 225 821 216 753 q 307 963 239 915 q 494 1010 376 1010 l 723 1010 l 713 931 l 484 931 q 362 906 407 931 q 309 822 318 881 q 338 732 302 764 q 506 658 375 701 q 693 557 646 612 q 725 403 739 503 l 706 274 q 598 59 687 131 q 370 -13 509 -13 m 380 67 q 545 116 487 67 q 617 274 602 164 l 636 403 q 602 519 646 480 q 408 602 558 558 q 276 513 324 567 q 217 390 227 460 l 201 274 q 229 116 186 164 q 380 67 273 67 z "},"ε":{"ha":884,"x_min":64,"x_max":750,"o":"m 375 -13 q 136 42 208 -13 q 80 211 64 96 l 82 223 q 143 345 92 293 q 285 402 194 396 l 287 415 q 179 458 216 420 q 152 561 143 496 l 154 578 q 247 723 168 677 q 477 770 326 770 q 686 719 621 770 q 744 559 750 668 l 655 552 q 614 660 658 628 q 466 692 571 692 q 302 665 352 692 q 242 571 251 638 l 240 553 q 275 471 231 495 q 429 447 318 447 l 500 447 l 490 375 l 419 375 q 237 345 290 375 q 172 236 183 316 l 170 223 q 207 102 158 138 q 385 66 256 66 q 554 101 497 66 q 631 220 610 136 l 718 212 q 610 42 693 96 q 375 -13 527 -13 z "},"έ":{"ha":884,"x_min":64,"x_max":750,"o":"m 64 0 m 375 -13 q 136 42 208 -13 q 80 211 64 96 l 82 223 q 143 345 92 293 q 285 402 194 396 l 287 415 q 179 458 216 420 q 152 561 143 496 l 154 578 q 247 723 168 677 q 477 770 326 770 q 686 719 621 770 q 744 559 750 668 l 655 552 q 614 660 658 628 q 466 692 571 692 q 302 665 352 692 q 242 571 251 638 l 240 553 q 275 471 231 495 q 429 447 318 447 l 500 447 l 490 375 l 419 375 q 237 345 290 375 q 172 236 183 316 l 170 223 q 207 102 158 138 q 385 66 256 66 q 554 101 497 66 q 631 220 610 136 l 718 212 q 610 42 693 96 q 375 -13 527 -13 m 417 884 l 556 1136 l 687 1136 l 489 884 l 417 884 z "},"ζ":{"ha":884,"x_min":96,"x_max":832,"o":"m 426 -253 l 292 -253 l 303 -173 l 442 -173 q 535 -148 501 -173 q 577 -64 568 -122 q 558 19 585 -6 q 472 44 532 44 l 365 44 q 159 122 222 44 q 114 319 96 199 q 160 458 124 391 q 264 591 197 524 l 494 824 l 490 838 q 282 878 357 826 q 196 1020 206 929 l 277 1038 q 367 924 283 957 q 576 926 452 890 l 808 1028 l 832 929 l 621 860 l 324 552 q 240 441 268 490 q 202 326 212 393 q 234 177 189 231 q 376 124 278 124 l 482 124 q 624 76 577 124 q 659 -64 672 28 q 584 -203 646 -154 q 426 -253 521 -253 z "},"η":{"ha":884,"x_min":74,"x_max":758,"o":"m 544 -253 l 652 511 q 628 643 664 598 q 508 687 591 687 q 374 653 441 687 q 240 552 308 620 l 163 0 l 74 0 l 181 758 l 269 758 l 251 631 l 274 631 q 387 733 314 696 q 539 770 460 770 q 703 705 648 770 q 742 530 758 640 l 633 -253 l 544 -253 z "},"ή":{"ha":884,"x_min":74,"x_max":758,"o":"m 74 0 m 544 -253 l 652 511 q 628 643 664 598 q 508 687 591 687 q 374 653 441 687 q 240 552 308 620 l 163 0 l 74 0 l 181 758 l 269 758 l 251 631 l 274 631 q 387 733 314 696 q 539 770 460 770 q 703 705 648 770 q 742 530 758 640 l 633 -253 l 544 -253 m 417 884 l 556 1136 l 687 1136 l 489 884 l 417 884 z "},"θ":{"ha":884,"x_min":93,"x_max":790,"o":"m 370 -13 q 162 60 231 -13 q 112 274 93 133 l 177 731 q 287 948 197 874 q 516 1023 378 1023 q 722 948 654 1023 q 770 731 790 874 l 706 274 q 598 60 687 133 q 370 -13 509 -13 m 265 731 l 241 553 l 658 553 l 682 731 q 653 891 697 838 q 504 943 610 943 q 339 891 398 943 q 265 731 280 838 m 380 67 q 545 118 486 67 q 617 274 604 169 l 646 473 l 230 473 l 201 274 q 230 118 187 169 q 380 67 274 67 z "},"ι":{"ha":884,"x_min":144,"x_max":694,"o":"m 144 0 m 538 -6 q 391 61 438 -6 q 361 245 345 128 l 422 678 l 144 678 l 155 758 l 521 758 l 449 244 q 463 117 438 160 q 551 74 487 74 q 618 82 580 74 q 684 101 657 90 l 694 24 q 622 3 662 11 q 538 -6 582 -6 z "},"ΐ":{"ha":884,"x_min":144,"x_max":774,"o":"m 144 0 m 538 -6 q 391 61 438 -6 q 361 245 345 128 l 422 678 l 144 678 l 155 758 l 521 758 l 449 244 q 463 117 438 160 q 551 74 487 74 q 618 82 580 74 q 684 101 657 90 l 694 24 q 622 3 662 11 q 538 -6 582 -6 m 409 884 l 518 1136 l 624 1136 l 471 884 l 409 884 m 264 899 q 227 911 240 899 q 217 956 213 923 l 218 965 q 241 1011 223 999 q 282 1024 258 1024 q 319 1011 306 1024 q 327 965 332 999 l 326 956 q 305 911 322 923 q 264 899 288 899 m 706 899 q 669 911 682 899 q 659 956 655 923 l 660 965 q 682 1011 665 999 q 723 1024 699 1024 q 761 1011 747 1024 q 769 965 774 999 l 768 956 q 747 911 764 923 q 706 899 730 899 z "},"ί":{"ha":884,"x_min":144,"x_max":694,"o":"m 144 0 m 538 -6 q 391 61 438 -6 q 361 245 345 128 l 422 678 l 144 678 l 155 758 l 521 758 l 449 244 q 463 117 438 160 q 551 74 487 74 q 618 82 580 74 q 684 101 657 90 l 694 24 q 622 3 662 11 q 538 -6 582 -6 m 410 884 l 549 1136 l 681 1136 l 482 884 l 410 884 z "},"ϊ":{"ha":884,"x_min":144,"x_max":712,"o":"m 144 0 m 538 -6 q 391 61 438 -6 q 361 245 345 128 l 422 678 l 144 678 l 155 758 l 521 758 l 449 244 q 463 117 438 160 q 551 74 487 74 q 618 82 580 74 q 684 101 657 90 l 694 24 q 622 3 662 11 q 538 -6 582 -6 m 355 912 q 308 924 324 912 q 297 968 292 936 l 298 977 q 323 1024 303 1011 q 372 1037 342 1037 q 420 1024 403 1037 q 432 977 437 1011 l 431 968 q 405 924 426 936 q 355 912 384 912 m 630 912 q 583 924 600 912 q 572 968 567 936 l 573 977 q 598 1024 578 1011 q 648 1037 617 1037 q 695 1024 678 1037 q 707 977 712 1011 l 706 968 q 680 924 701 936 q 630 912 659 912 z "},"κ":{"ha":884,"x_min":138,"x_max":793,"o":"m 277 360 l 226 0 l 138 0 l 244 758 l 332 758 l 288 437 l 390 437 l 686 758 l 793 758 l 457 404 l 683 0 l 582 0 l 380 360 l 277 360 z "},"λ":{"ha":884,"x_min":42,"x_max":699,"o":"m 606 0 l 468 677 l 134 0 l 42 0 l 427 758 l 452 758 l 443 794 q 393 905 426 871 q 294 939 361 939 q 244 936 268 939 q 191 927 220 933 l 188 1006 q 242 1015 216 1011 q 292 1018 268 1018 q 439 973 383 1018 q 519 823 496 928 l 699 0 l 606 0 z "},"μ":{"ha":884,"x_min":30,"x_max":755,"o":"m 167 25 l 136 -253 l 30 -253 l 78 25 l 181 758 l 269 758 l 198 247 q 225 115 186 159 q 341 71 264 71 q 455 96 404 71 q 553 168 506 121 l 635 758 l 723 758 l 645 202 q 658 90 634 115 q 755 78 683 66 l 744 -4 q 618 14 658 -16 q 582 119 578 44 l 564 119 q 464 29 528 71 q 321 -13 400 -13 q 233 9 270 -13 q 173 71 196 32 l 167 25 z "},"ν":{"ha":884,"x_min":148,"x_max":806,"o":"m 410 0 l 331 0 l 148 758 l 241 758 l 393 72 q 600 420 515 245 q 721 758 684 595 l 806 758 q 658 376 758 562 q 410 0 558 191 z "},"ξ":{"ha":884,"x_min":97,"x_max":817,"o":"m 684 -64 q 610 -205 672 -157 q 449 -253 549 -253 l 298 -253 l 309 -173 l 467 -173 q 561 -149 528 -173 q 602 -64 593 -125 q 584 20 610 -5 q 497 44 558 44 l 365 44 q 167 104 236 44 q 111 261 97 163 l 116 295 q 195 440 128 380 q 369 508 263 500 l 371 523 q 269 564 303 523 q 244 669 235 605 q 289 766 251 722 q 388 832 326 809 l 388 848 q 215 896 280 850 q 140 1020 149 942 l 221 1038 q 313 937 231 967 q 518 927 395 907 l 793 1028 l 817 929 l 533 854 l 442 811 q 367 752 394 787 q 333 672 340 717 q 353 582 324 611 q 436 553 381 553 l 658 553 l 646 473 l 427 473 q 273 431 328 473 q 207 314 217 388 l 202 280 q 235 165 192 207 q 376 124 279 124 l 508 124 q 652 77 606 124 q 684 -64 697 30 z "},"ο":{"ha":884,"x_min":93,"x_max":755,"o":"m 93 0 m 370 -13 q 160 61 227 -13 q 112 274 93 135 l 141 479 q 250 695 162 620 q 481 770 338 770 q 689 695 624 770 q 735 479 755 620 l 706 274 q 600 61 687 135 q 370 -13 513 -13 m 380 67 q 545 117 486 67 q 617 274 604 168 l 646 479 q 618 639 662 587 q 468 691 574 691 q 304 639 362 691 q 230 479 245 587 l 201 274 q 230 117 187 168 q 380 67 274 67 z "},"ό":{"ha":884,"x_min":93,"x_max":755,"o":"m 93 0 m 370 -13 q 160 61 227 -13 q 112 274 93 135 l 141 479 q 250 695 162 620 q 481 770 338 770 q 689 695 624 770 q 735 479 755 620 l 706 274 q 600 61 687 135 q 370 -13 513 -13 m 380 67 q 545 117 486 67 q 617 274 604 168 l 646 479 q 618 639 662 587 q 468 691 574 691 q 304 639 362 691 q 230 479 245 587 l 201 274 q 230 117 187 168 q 380 67 274 67 m 417 884 l 556 1136 l 687 1136 l 489 884 l 417 884 z "},"π":{"ha":884,"x_min":93,"x_max":812,"o":"m 812 758 l 801 678 l 649 678 l 578 174 q 598 86 569 106 q 717 78 628 67 l 706 -4 q 527 21 578 -18 q 489 158 475 59 l 561 678 l 308 678 l 213 0 l 125 0 l 220 678 l 93 678 l 105 758 l 812 758 z "},"ρ":{"ha":884,"x_min":39,"x_max":755,"o":"m 419 73 q 556 126 506 73 q 620 288 605 179 l 646 479 q 618 638 662 586 q 468 691 574 691 q 304 638 362 691 q 230 479 245 586 l 192 206 q 292 105 236 138 q 419 73 348 73 m 39 -253 l 141 479 q 252 696 162 621 q 481 770 342 770 q 687 696 619 770 q 735 479 755 621 l 707 275 q 611 62 687 138 q 420 -13 535 -13 q 289 24 345 -13 q 203 126 234 61 l 181 126 l 128 -253 l 39 -253 z "},"ς":{"ha":884,"x_min":98,"x_max":739,"o":"m 278 -253 l 289 -173 l 447 -173 q 541 -152 509 -173 q 581 -72 573 -130 q 563 4 588 -18 q 475 25 537 25 l 367 25 q 158 100 217 25 q 120 324 98 174 l 141 476 q 245 696 162 622 q 484 770 328 770 q 682 710 625 770 q 729 516 739 650 l 649 511 q 617 650 658 610 q 471 689 577 689 q 302 642 357 689 q 231 484 246 595 l 207 312 q 230 153 191 201 q 379 106 270 106 l 486 106 q 630 62 585 106 q 663 -72 676 19 q 591 -208 650 -163 q 432 -253 532 -253 l 278 -253 z "},"σ":{"ha":884,"x_min":93,"x_max":900,"o":"m 355 67 q 499 117 446 67 q 567 274 553 168 l 591 441 q 569 619 607 561 q 441 678 532 678 q 297 626 350 678 q 229 466 244 573 l 201 274 q 225 117 187 168 q 355 67 264 67 m 345 -13 q 157 61 220 -13 q 112 274 93 135 l 140 466 q 244 681 159 605 q 453 758 328 758 l 900 758 l 888 665 l 614 683 q 675 588 659 652 q 679 441 691 525 l 655 274 q 553 61 636 135 q 345 -13 470 -13 z "},"τ":{"ha":884,"x_min":169,"x_max":787,"o":"m 567 -4 q 386 20 437 -16 q 348 152 335 57 l 422 678 l 169 678 l 181 758 l 787 758 l 775 678 l 510 678 l 439 174 q 458 86 431 106 q 578 78 486 67 l 567 -4 z "},"υ":{"ha":884,"x_min":93,"x_max":774,"o":"m 370 -13 q 160 61 226 -13 q 112 274 93 135 l 181 758 l 269 758 l 201 274 q 230 116 186 164 q 380 67 274 67 q 544 116 486 67 q 617 274 602 164 l 686 758 l 774 758 l 706 274 q 600 61 687 135 q 370 -13 514 -13 z "},"ΰ":{"ha":884,"x_min":93,"x_max":787,"o":"m 93 0 m 370 -13 q 160 61 226 -13 q 112 274 93 135 l 181 758 l 269 758 l 201 274 q 230 116 186 164 q 380 67 274 67 q 544 116 486 67 q 617 274 602 164 l 686 758 l 774 758 l 706 274 q 600 61 687 135 q 370 -13 514 -13 m 422 884 l 530 1136 l 636 1136 l 484 884 l 422 884 m 277 899 q 239 911 253 899 q 230 956 226 923 l 231 965 q 253 1011 236 999 q 294 1024 270 1024 q 331 1011 318 1024 q 340 965 345 999 l 338 956 q 318 911 335 923 q 277 899 301 899 m 718 899 q 681 911 694 899 q 672 956 668 923 l 673 965 q 695 1011 678 999 q 736 1024 712 1024 q 773 1011 760 1024 q 782 965 787 999 l 780 956 q 759 911 777 923 q 718 899 742 899 z "},"ϋ":{"ha":884,"x_min":93,"x_max":774,"o":"m 93 0 m 370 -13 q 160 61 226 -13 q 112 274 93 135 l 181 758 l 269 758 l 201 274 q 230 116 186 164 q 380 67 274 67 q 544 116 486 67 q 617 274 602 164 l 686 758 l 774 758 l 706 274 q 600 61 687 135 q 370 -13 514 -13 m 361 912 q 314 924 331 912 q 303 968 298 936 l 304 977 q 329 1024 309 1011 q 379 1037 348 1037 q 426 1024 409 1037 q 438 977 443 1011 l 437 968 q 411 924 432 936 q 361 912 390 912 m 636 912 q 590 924 606 912 q 578 968 573 936 l 580 977 q 604 1024 585 1011 q 654 1037 624 1037 q 701 1024 684 1037 q 713 977 718 1011 l 712 968 q 686 924 707 936 q 636 912 665 912 z "},"ύ":{"ha":884,"x_min":93,"x_max":774,"o":"m 93 0 m 370 -13 q 160 61 226 -13 q 112 274 93 135 l 181 758 l 269 758 l 201 274 q 230 116 186 164 q 380 67 274 67 q 544 116 486 67 q 617 274 602 164 l 686 758 l 774 758 l 706 274 q 600 61 687 135 q 370 -13 514 -13 m 417 884 l 556 1136 l 687 1136 l 489 884 l 417 884 z "},"φ":{"ha":884,"x_min":42,"x_max":807,"o":"m 378 -253 l 294 -253 l 328 -10 q 114 92 187 3 q 64 340 42 182 l 78 441 q 128 624 92 543 q 223 774 164 706 l 299 745 q 211 610 247 686 q 163 441 176 534 l 149 340 q 179 146 131 216 q 338 64 226 77 l 436 758 l 521 758 q 737 667 667 758 q 783 403 807 577 l 774 340 q 653 92 751 182 q 412 -10 556 3 l 378 -253 m 509 683 l 422 64 q 605 146 538 77 q 689 340 672 216 l 698 403 q 670 616 718 548 q 509 683 622 683 z "},"χ":{"ha":884,"x_min":28,"x_max":785,"o":"m 537 -253 l 389 178 l 122 -253 l 28 -253 l 359 255 l 183 758 l 275 758 l 422 335 l 691 758 l 785 758 l 453 255 l 629 -253 l 537 -253 z "},"ψ":{"ha":884,"x_min":40,"x_max":832,"o":"m 378 -253 l 294 -253 l 328 -10 q 106 86 172 1 q 61 314 40 170 l 122 758 l 207 758 l 145 314 q 174 137 129 196 q 340 69 220 78 l 436 758 l 519 758 l 423 69 q 607 137 545 78 q 686 314 669 196 l 747 758 l 832 758 l 770 314 q 660 86 750 170 q 412 -10 571 1 l 378 -253 z "},"ω":{"ha":884,"x_min":38,"x_max":799,"o":"m 201 -13 q 76 69 115 -13 q 59 302 38 152 l 73 408 q 128 622 90 520 q 205 771 167 723 l 278 742 q 211 605 250 699 q 158 408 173 511 l 144 302 q 146 124 126 181 q 225 67 165 67 q 318 114 283 67 q 366 264 352 160 l 412 581 l 495 581 l 449 264 q 456 114 436 160 q 535 67 477 67 q 631 124 595 67 q 684 302 667 181 l 698 408 q 701 605 713 511 q 674 742 689 699 l 755 771 q 789 621 778 722 q 783 408 799 520 l 769 302 q 686 69 747 152 q 539 -13 625 -13 q 443 28 482 -13 q 395 149 404 69 l 388 149 q 307 28 356 69 q 201 -13 258 -13 z "},"ώ":{"ha":884,"x_min":38,"x_max":799,"o":"m 38 0 m 201 -13 q 76 69 115 -13 q 59 302 38 152 l 73 408 q 128 622 90 520 q 205 771 167 723 l 278 742 q 211 605 250 699 q 158 408 173 511 l 144 302 q 146 124 126 181 q 225 67 165 67 q 318 114 283 67 q 366 264 352 160 l 412 581 l 495 581 l 449 264 q 456 114 436 160 q 535 67 477 67 q 631 124 595 67 q 684 302 667 181 l 698 408 q 701 605 713 511 q 674 742 689 699 l 755 771 q 789 621 778 722 q 783 408 799 520 l 769 302 q 686 69 747 152 q 539 -13 625 -13 q 443 28 482 -13 q 395 149 404 69 l 388 149 q 307 28 356 69 q 201 -13 258 -13 m 429 884 l 568 1136 l 699 1136 l 501 884 l 429 884 z "},"а":{"ha":884,"x_min":51,"x_max":768,"o":"m 51 0 m 297 62 q 427 89 366 62 q 542 178 487 116 l 564 337 l 311 337 q 204 310 247 337 q 150 211 160 283 q 176 101 141 140 q 297 62 210 62 m 277 -13 q 111 42 172 -13 q 66 203 51 97 q 145 352 78 298 q 306 407 211 407 l 573 407 l 591 534 q 563 646 601 601 q 433 691 524 691 q 296 662 342 691 q 212 551 250 634 l 138 572 q 252 722 178 674 q 443 770 326 770 q 631 711 564 770 q 681 540 697 653 l 633 202 q 652 90 621 115 q 768 78 682 64 l 756 -4 q 619 11 670 -16 q 572 122 567 38 l 554 122 q 435 25 508 63 q 277 -13 362 -13 z "},"б":{"ha":884,"x_min":93,"x_max":760,"o":"m 370 -13 q 163 62 232 -13 q 115 285 93 138 l 167 653 q 273 878 187 799 q 500 981 360 957 l 756 1025 l 760 948 l 509 907 q 321 824 384 886 q 239 630 258 761 l 232 581 l 249 581 q 342 654 279 626 q 495 682 405 682 q 684 612 625 682 q 727 419 744 543 l 707 278 q 597 61 687 135 q 370 -13 508 -13 m 379 67 q 545 117 489 67 q 616 275 601 168 l 634 405 q 606 554 648 506 q 455 601 564 601 q 289 554 345 601 q 220 405 234 506 l 202 275 q 228 117 187 168 q 379 67 269 67 z "},"в":{"ha":884,"x_min":74,"x_max":763,"o":"m 74 0 l 181 758 l 472 758 q 695 713 628 758 q 750 572 763 668 l 747 554 q 693 449 737 485 q 568 408 648 413 l 567 393 q 696 343 658 386 q 723 222 734 299 l 721 211 q 620 51 706 102 q 366 0 534 0 l 74 0 m 223 434 l 437 434 q 602 458 554 434 q 658 545 649 482 l 660 563 q 627 655 669 630 q 462 681 585 681 l 259 681 l 223 434 m 174 77 l 378 77 q 568 106 513 77 q 634 215 622 135 l 635 227 q 602 333 646 304 q 427 362 557 362 l 213 362 l 174 77 z "},"г":{"ha":884,"x_min":138,"x_max":787,"o":"m 138 0 l 244 758 l 787 758 l 775 678 l 321 678 l 226 0 l 138 0 z "},"ѓ":{"ha":884,"x_min":138,"x_max":832,"o":"m 138 0 m 138 0 l 244 758 l 787 758 l 775 678 l 321 678 l 226 0 l 138 0 m 481 884 l 696 1136 l 832 1136 l 558 884 l 481 884 z "},"д":{"ha":884,"x_min":-28,"x_max":755,"o":"m 192 98 l 189 80 l 548 80 l 631 678 l 345 678 l 292 327 q 257 188 279 239 q 192 98 235 136 m 87 0 l 61 -189 l -28 -189 l 10 80 l 88 80 q 166 171 138 112 q 210 335 194 230 l 273 758 l 731 758 l 636 80 l 755 80 l 717 -189 l 629 -189 l 655 0 l 87 0 z "},"е":{"ha":884,"x_min":93,"x_max":755,"o":"m 93 0 m 686 157 q 570 27 641 67 q 371 -13 499 -13 q 162 60 231 -13 q 114 275 93 133 l 141 479 q 256 698 163 625 q 481 770 348 770 q 685 696 615 770 q 734 470 755 622 l 720 365 l 215 365 l 201 274 q 230 114 186 163 q 380 64 275 64 q 523 92 476 64 q 604 183 571 120 l 686 157 m 230 479 l 223 434 l 640 434 l 645 467 q 617 638 662 585 q 468 692 572 692 q 305 640 365 692 q 230 479 245 588 z "},"ѐ":{"ha":884,"x_min":93,"x_max":755,"o":"m 93 0 m 686 157 q 570 27 641 67 q 371 -13 499 -13 q 162 60 231 -13 q 114 275 93 133 l 141 479 q 256 698 163 625 q 481 770 348 770 q 685 696 615 770 q 734 470 755 622 l 720 365 l 215 365 l 201 274 q 230 114 186 163 q 380 64 275 64 q 523 92 476 64 q 604 183 571 120 l 686 157 m 230 479 l 223 434 l 640 434 l 645 467 q 617 638 662 585 q 468 692 572 692 q 305 640 365 692 q 230 479 245 588 m 516 884 l 313 1136 l 449 1136 l 593 884 l 516 884 z "},"ё":{"ha":884,"x_min":93,"x_max":755,"o":"m 93 0 m 686 157 q 570 27 641 67 q 371 -13 499 -13 q 162 60 231 -13 q 114 275 93 133 l 141 479 q 256 698 163 625 q 481 770 348 770 q 685 696 615 770 q 734 470 755 622 l 720 365 l 215 365 l 201 274 q 230 114 186 163 q 380 64 275 64 q 523 92 476 64 q 604 183 571 120 l 686 157 m 230 479 l 223 434 l 640 434 l 645 467 q 617 638 662 585 q 468 692 572 692 q 305 640 365 692 q 230 479 245 588 m 362 912 q 316 924 332 912 q 304 968 299 936 l 306 977 q 330 1024 311 1011 q 380 1037 350 1037 q 427 1024 410 1037 q 439 977 444 1011 l 438 968 q 412 924 433 936 q 362 912 391 912 m 638 912 q 591 924 607 912 q 580 968 574 936 l 581 977 q 605 1024 586 1011 q 655 1037 625 1037 q 703 1024 686 1037 q 715 977 720 1011 l 713 968 q 688 924 708 936 q 638 912 667 912 z "},"ж":{"ha":884,"x_min":-19,"x_max":874,"o":"m 326 370 l 73 0 l -19 0 l 264 407 l 81 758 l 173 758 l 332 439 l 395 439 l 441 758 l 516 758 l 471 439 l 530 439 l 782 758 l 874 758 l 593 409 l 761 0 l 669 0 l 521 370 l 462 370 l 410 0 l 335 0 l 386 370 l 326 370 z "},"з":{"ha":884,"x_min":74,"x_max":764,"o":"m 372 -13 q 143 44 211 -13 q 83 230 74 101 l 172 239 q 215 103 170 140 q 375 66 260 66 q 564 98 506 66 q 634 215 622 131 l 635 227 q 602 335 646 304 q 436 365 557 365 l 372 365 l 383 438 l 446 438 q 602 464 553 438 q 659 554 650 490 l 662 572 q 626 665 670 639 q 463 692 581 692 q 309 658 360 692 q 235 533 259 624 l 149 543 q 254 717 176 664 q 482 770 332 770 q 694 723 625 770 q 750 573 764 676 l 747 556 q 693 450 737 487 q 571 408 648 413 l 569 393 q 696 341 658 386 q 722 220 734 295 l 721 207 q 622 44 706 100 q 372 -13 539 -13 z "},"и":{"ha":884,"x_min":74,"x_max":774,"o":"m 582 0 l 670 634 l 178 0 l 74 0 l 181 758 l 266 758 l 177 119 l 674 758 l 774 758 l 668 0 l 582 0 z "},"й":{"ha":884,"x_min":74,"x_max":790,"o":"m 74 0 m 582 0 l 670 634 l 178 0 l 74 0 l 181 758 l 266 758 l 177 119 l 674 758 l 774 758 l 668 0 l 582 0 m 494 875 q 318 932 385 875 q 270 1131 251 990 l 360 1140 q 381 992 347 1037 q 505 948 414 948 q 641 992 596 948 q 703 1140 686 1037 l 790 1131 q 686 932 769 990 q 494 875 602 875 z "},"ѝ":{"ha":884,"x_min":74,"x_max":774,"o":"m 74 0 m 582 0 l 670 634 l 178 0 l 74 0 l 181 758 l 266 758 l 177 119 l 674 758 l 774 758 l 668 0 l 582 0 m 515 884 l 312 1136 l 448 1136 l 592 884 l 515 884 z "},"к":{"ha":884,"x_min":138,"x_max":793,"o":"m 277 360 l 226 0 l 138 0 l 244 758 l 332 758 l 288 437 l 390 437 l 686 758 l 793 758 l 457 404 l 683 0 l 582 0 l 380 360 l 277 360 z "},"ќ":{"ha":884,"x_min":138,"x_max":817,"o":"m 138 0 m 277 360 l 226 0 l 138 0 l 244 758 l 332 758 l 288 437 l 390 437 l 686 758 l 793 758 l 457 404 l 683 0 l 582 0 l 380 360 l 277 360 m 466 884 l 681 1136 l 817 1136 l 543 884 l 466 884 z "},"л":{"ha":884,"x_min":-33,"x_max":774,"o":"m 580 0 l 674 678 l 357 678 l 301 297 q 215 64 278 140 q 53 -13 152 -13 q 7 -9 29 -13 q -33 1 -15 -5 l -5 78 q 27 70 13 73 q 58 67 42 67 q 163 122 126 67 q 220 313 199 178 l 285 758 l 774 758 l 668 0 l 580 0 z "},"м":{"ha":884,"x_min":54,"x_max":794,"o":"m 351 189 l 230 653 l 138 0 l 54 0 l 160 758 l 289 758 l 412 273 l 669 758 l 794 758 l 688 0 l 605 0 l 696 652 l 444 189 l 351 189 z "},"н":{"ha":884,"x_min":74,"x_max":774,"o":"m 74 0 l 181 758 l 269 758 l 230 477 l 646 477 l 686 758 l 774 758 l 668 0 l 580 0 l 635 398 l 218 398 l 163 0 l 74 0 z "},"о":{"ha":884,"x_min":93,"x_max":755,"o":"m 93 0 m 370 -13 q 160 61 227 -13 q 112 274 93 135 l 141 479 q 250 695 162 620 q 481 770 338 770 q 689 695 624 770 q 735 479 755 620 l 706 274 q 600 61 687 135 q 370 -13 513 -13 m 380 67 q 545 117 486 67 q 617 274 604 168 l 646 479 q 618 639 662 587 q 468 691 574 691 q 304 639 362 691 q 230 479 245 587 l 201 274 q 230 117 187 168 q 380 67 274 67 z "},"п":{"ha":884,"x_min":74,"x_max":774,"o":"m 74 0 l 181 758 l 774 758 l 668 0 l 580 0 l 674 678 l 258 678 l 163 0 l 74 0 z "},"р":{"ha":884,"x_min":39,"x_max":755,"o":"m 39 0 m 369 64 q 543 116 482 64 q 619 279 604 168 l 648 484 q 628 639 663 590 q 506 688 593 688 q 372 656 437 688 q 240 552 308 624 l 179 120 q 268 78 221 92 q 369 64 314 64 m 360 -13 q 265 -1 317 -13 q 167 30 213 10 l 128 -253 l 39 -253 l 181 758 l 269 758 l 251 631 l 274 631 q 387 734 317 698 q 534 770 457 770 q 701 693 648 770 q 736 482 755 616 l 707 277 q 595 64 688 141 q 360 -13 503 -13 z "},"с":{"ha":884,"x_min":93,"x_max":764,"o":"m 93 0 m 388 -13 q 164 61 234 -13 q 112 274 93 134 l 141 479 q 252 696 162 621 q 496 770 342 770 q 701 710 638 770 q 756 529 764 650 l 669 523 q 631 652 673 614 q 484 691 590 691 q 307 639 370 691 q 230 479 245 587 l 201 274 q 235 117 187 168 q 398 66 283 66 q 557 99 504 66 q 625 210 610 133 l 711 203 q 608 40 687 93 q 388 -13 529 -13 z "},"т":{"ha":884,"x_min":131,"x_max":812,"o":"m 327 0 l 422 678 l 131 678 l 143 758 l 812 758 l 801 678 l 510 678 l 415 0 l 327 0 z "},"у":{"ha":884,"x_min":11,"x_max":806,"o":"m 11 0 m 111 -260 q 64 -258 88 -260 q 11 -249 40 -255 l 37 -170 q 86 -179 63 -177 q 136 -182 109 -182 q 244 -148 198 -182 q 332 -29 289 -115 l 348 0 l 321 0 l 148 758 l 242 758 l 388 81 l 715 758 l 806 758 l 405 -44 q 278 -210 348 -159 q 111 -260 207 -260 z "},"ў":{"ha":884,"x_min":11,"x_max":806,"o":"m 11 0 m 111 -260 q 64 -258 88 -260 q 11 -249 40 -255 l 37 -170 q 86 -179 63 -177 q 136 -182 109 -182 q 244 -148 198 -182 q 332 -29 289 -115 l 348 0 l 321 0 l 148 758 l 242 758 l 388 81 l 715 758 l 806 758 l 405 -44 q 278 -210 348 -159 q 111 -260 207 -260 m 494 875 q 318 932 385 875 q 270 1131 251 990 l 360 1140 q 381 992 347 1037 q 505 948 414 948 q 641 992 596 948 q 703 1140 686 1037 l 790 1131 q 686 932 769 990 q 494 875 602 875 z "},"ф":{"ha":884,"x_min":38,"x_max":811,"o":"m 487 0 l 413 0 l 378 -253 l 294 -253 l 330 0 l 255 0 q 90 76 143 0 q 57 287 38 152 l 82 471 q 175 682 101 606 q 361 758 249 758 l 436 758 l 471 1010 l 554 1010 l 519 758 l 593 758 q 758 682 706 758 q 792 471 811 606 l 766 287 q 674 76 747 152 q 487 0 600 0 m 280 77 l 343 77 l 428 681 l 365 681 q 231 627 280 681 q 167 466 182 573 l 141 289 q 161 130 126 183 q 280 77 196 77 m 569 681 l 506 681 l 422 77 l 485 77 q 618 130 569 77 q 682 289 667 183 l 707 466 q 688 627 722 573 q 569 681 654 681 z "},"х":{"ha":884,"x_min":57,"x_max":792,"o":"m 57 0 m 583 0 l 412 318 l 155 0 l 57 0 l 372 385 l 172 758 l 269 758 l 436 448 l 693 758 l 792 758 l 475 383 l 681 0 l 583 0 z "},"ц":{"ha":884,"x_min":74,"x_max":742,"o":"m 622 -189 l 649 0 l 74 0 l 181 758 l 269 758 l 174 80 l 528 80 l 622 758 l 711 758 l 616 80 l 742 80 l 705 -189 l 622 -189 z "},"ч":{"ha":884,"x_min":102,"x_max":711,"o":"m 711 758 l 605 0 l 516 0 l 554 273 q 470 249 515 259 q 375 240 426 240 q 165 309 227 240 q 122 519 102 378 l 155 758 l 244 758 l 211 521 q 239 365 196 412 q 386 317 283 318 q 485 327 438 316 q 567 359 532 338 l 622 758 l 711 758 z "},"ш":{"ha":884,"x_min":16,"x_max":832,"o":"m 16 0 l 122 758 l 207 758 l 111 76 l 340 76 l 436 758 l 519 758 l 423 76 l 652 76 l 747 758 l 832 758 l 726 0 l 16 0 z "},"щ":{"ha":884,"x_min":16,"x_max":832,"o":"m 765 -189 l 687 -189 l 713 0 l 16 0 l 122 758 l 207 758 l 111 76 l 340 76 l 436 758 l 519 758 l 423 76 l 652 76 l 747 758 l 832 758 l 737 80 l 803 80 l 765 -189 z "},"ъ":{"ha":884,"x_min":43,"x_max":759,"o":"m 461 0 l 138 0 l 232 678 l 43 678 l 54 758 l 332 758 l 295 490 l 529 490 q 701 436 644 490 q 745 282 759 381 l 736 213 q 648 56 721 111 q 461 0 574 0 m 237 80 l 446 80 q 590 111 543 80 q 648 213 638 143 l 657 282 q 628 381 667 351 q 492 412 590 412 l 284 412 l 237 80 z "},"ы":{"ha":884,"x_min":45,"x_max":803,"o":"m 45 0 l 152 758 l 236 758 l 199 490 l 331 490 q 475 435 428 490 q 509 282 523 380 l 500 213 q 422 56 486 112 q 263 0 359 0 l 45 0 m 612 0 l 718 758 l 803 758 l 697 0 l 612 0 m 141 77 l 247 77 q 366 109 327 77 q 415 213 405 141 l 424 282 q 404 383 434 352 q 294 413 374 413 l 188 413 l 141 77 z "},"ь":{"ha":884,"x_min":74,"x_max":759,"o":"m 74 0 l 181 758 l 269 758 l 232 490 l 529 490 q 701 434 644 490 q 745 282 759 379 l 736 213 q 648 57 722 114 q 461 0 574 0 l 74 0 m 174 80 l 446 80 q 590 111 543 80 q 648 213 638 143 l 657 282 q 628 381 667 351 q 492 412 590 412 l 221 412 l 174 80 z "},"э":{"ha":884,"x_min":81,"x_max":755,"o":"m 352 -13 q 146 40 211 -13 q 90 203 81 93 l 176 208 q 215 98 173 130 q 362 67 256 67 q 540 116 479 67 q 617 274 602 165 l 630 356 l 324 356 l 335 431 l 640 431 l 648 481 q 615 641 663 592 q 453 691 567 691 q 294 653 346 691 q 220 523 242 616 l 135 529 q 241 711 162 653 q 463 770 321 770 q 690 695 625 770 q 735 477 755 620 l 707 282 q 601 62 687 138 q 352 -13 515 -13 z "},"ю":{"ha":884,"x_min":24,"x_max":806,"o":"m 486 -13 q 323 59 371 -13 q 293 264 275 131 l 309 378 l 165 378 l 112 0 l 24 0 l 130 758 l 218 758 l 177 457 l 321 457 l 326 490 q 413 698 345 625 q 597 770 481 770 q 759 697 713 770 q 787 489 806 624 l 755 264 q 670 59 737 131 q 486 -13 602 -13 m 496 67 q 616 113 574 67 q 672 264 658 159 l 703 489 q 691 643 718 596 q 585 691 663 691 q 465 643 506 691 q 408 489 423 596 l 376 264 q 390 113 362 159 q 496 67 418 67 z "},"я":{"ha":884,"x_min":63,"x_max":774,"o":"m 356 342 l 628 342 l 676 678 l 404 678 q 287 643 326 678 q 237 529 249 609 l 234 501 q 250 379 221 417 q 356 342 279 342 m 617 265 l 448 265 l 169 0 l 63 0 l 340 265 q 178 328 227 268 q 144 496 129 388 l 148 524 q 231 698 164 639 q 413 758 298 758 l 774 758 l 668 0 l 580 0 l 617 265 z "},"ђ":{"ha":884,"x_min":62,"x_max":749,"o":"m 403 -263 q 333 -256 369 -263 q 264 -236 297 -249 l 294 -154 q 351 -173 322 -167 q 410 -179 380 -179 q 523 -134 480 -179 q 581 5 567 -90 l 643 448 q 617 578 654 532 q 500 625 580 625 q 367 588 438 625 q 231 485 297 552 l 163 0 l 74 0 l 188 809 l 62 809 l 72 884 l 198 884 l 216 1010 l 304 1010 l 287 884 l 539 884 l 529 809 l 277 809 l 242 568 l 265 568 q 386 669 312 631 q 534 707 460 707 q 694 642 640 707 q 734 468 749 577 l 667 -8 q 578 -198 649 -133 q 403 -263 506 -263 z "},"є":{"ha":884,"x_min":92,"x_max":764,"o":"m 710 203 q 607 41 687 95 q 386 -13 527 -13 q 160 61 229 -13 q 112 282 92 134 l 140 477 q 249 698 162 625 q 495 770 337 770 q 699 710 635 770 q 756 529 764 650 l 669 523 q 631 653 673 615 q 482 691 588 691 q 306 641 366 691 q 230 481 245 591 l 222 431 l 528 431 l 518 356 l 212 356 l 199 274 q 232 116 184 165 q 396 67 279 67 q 553 99 501 67 q 625 208 605 131 l 710 203 z "},"ѕ":{"ha":884,"x_min":62,"x_max":734,"o":"m 62 0 m 388 -13 q 210 15 294 -13 q 62 101 126 43 l 115 172 q 243 94 170 121 q 398 67 316 67 q 542 98 481 67 q 614 197 604 129 q 577 288 622 259 q 399 338 532 317 q 199 410 259 361 q 152 552 139 458 q 249 712 167 654 q 442 770 332 770 q 600 741 527 770 q 734 659 673 711 l 683 590 q 568 662 631 634 q 431 691 504 691 q 303 659 356 691 q 241 563 250 628 q 276 469 232 499 q 452 419 319 439 q 655 347 595 396 q 702 206 715 297 q 597 44 687 101 q 388 -13 508 -13 z "},"і":{"ha":884,"x_min":74,"x_max":679,"o":"m 74 0 m 74 0 l 86 80 l 338 80 l 422 678 l 169 678 l 181 758 l 521 758 l 427 80 l 679 80 l 668 0 l 74 0 m 499 912 q 443 924 463 912 q 427 968 422 936 l 428 977 q 457 1024 433 1011 q 516 1037 481 1037 q 573 1024 552 1037 q 590 977 595 1011 l 588 968 q 559 924 583 936 q 499 912 534 912 z "},"ї":{"ha":884,"x_min":74,"x_max":718,"o":"m 74 0 m 74 0 l 86 80 l 338 80 l 422 678 l 169 678 l 181 758 l 521 758 l 427 80 l 679 80 l 668 0 l 74 0 m 361 912 q 314 924 331 912 q 303 968 298 936 l 304 977 q 329 1024 309 1011 q 379 1037 348 1037 q 426 1024 409 1037 q 438 977 443 1011 l 437 968 q 411 924 432 936 q 361 912 390 912 m 636 912 q 590 924 606 912 q 578 968 573 936 l 580 977 q 604 1024 585 1011 q 654 1037 624 1037 q 701 1024 684 1037 q 713 977 718 1011 l 712 968 q 686 924 707 936 q 636 912 665 912 z "},"ј":{"ha":884,"x_min":42,"x_max":717,"o":"m 42 0 m 226 -263 q 133 -256 179 -263 q 42 -236 86 -249 l 72 -153 q 153 -174 112 -168 q 234 -179 194 -179 q 385 -131 328 -179 q 456 20 442 -82 l 548 678 l 194 678 l 206 758 l 648 758 l 543 8 q 438 -193 524 -124 q 226 -263 352 -263 m 621 912 q 565 924 586 912 q 549 968 544 936 l 551 977 q 580 1024 556 1011 q 639 1037 604 1037 q 696 1024 674 1037 q 712 977 717 1011 l 711 968 q 681 924 706 936 q 621 912 657 912 z "},"љ":{"ha":884,"x_min":-61,"x_max":782,"o":"m 270 678 l 196 197 q 129 39 179 87 q 16 -9 78 -9 q -23 -5 -4 -9 q -61 5 -42 -1 l -29 92 q -4 84 -16 87 q 20 81 9 81 q 76 106 51 81 q 114 210 102 131 l 201 758 l 532 758 l 496 505 l 588 505 q 735 451 689 505 q 768 297 782 396 l 755 206 q 680 54 741 107 q 519 0 619 0 l 342 0 l 437 678 l 270 678 m 437 77 l 519 77 q 623 109 583 78 q 673 215 663 140 l 684 294 q 664 398 694 367 q 568 428 633 428 l 486 428 l 437 77 z "},"њ":{"ha":884,"x_min":21,"x_max":777,"o":"m 424 77 l 514 77 q 617 107 577 77 q 667 205 657 136 l 678 290 q 657 391 688 362 q 562 420 625 420 l 472 420 l 424 77 m 162 408 l 105 0 l 21 0 l 128 758 l 211 758 l 173 485 l 398 485 l 436 758 l 519 758 l 482 497 l 582 497 q 730 444 683 497 q 763 293 777 391 l 749 202 q 676 52 736 105 q 514 0 615 0 l 330 0 l 386 408 l 162 408 z "},"ћ":{"ha":884,"x_min":62,"x_max":750,"o":"m 62 0 m 231 485 l 163 0 l 74 0 l 188 809 l 62 809 l 72 884 l 198 884 l 216 1010 l 304 1010 l 287 884 l 539 884 l 529 809 l 277 809 l 242 568 l 265 568 q 384 672 317 636 q 530 707 451 707 q 692 644 634 707 q 734 468 750 581 l 668 0 l 580 0 l 643 448 q 616 581 655 537 q 500 625 577 625 q 369 591 434 625 q 231 485 303 557 z "},"џ":{"ha":884,"x_min":74,"x_max":774,"o":"m 302 -189 l 328 0 l 74 0 l 181 758 l 269 758 l 174 80 l 591 80 l 686 758 l 774 758 l 668 0 l 414 0 l 388 -189 l 302 -189 z "},"ґ":{"ha":884,"x_min":138,"x_max":811,"o":"m 138 0 l 244 758 l 705 758 l 729 928 l 811 928 l 775 678 l 321 678 l 226 0 l 138 0 z "},"ⁿ":{"ha":884,"x_min":188,"x_max":736,"o":"m 188 383 l 277 1013 l 351 1013 l 336 908 l 355 908 q 449 995 394 967 q 558 1023 504 1023 q 689 965 643 1023 q 722 808 736 907 l 663 383 l 588 383 l 645 794 q 628 914 657 874 q 535 953 598 953 q 430 924 481 953 q 327 843 379 894 l 263 383 l 188 383 z "},"̀":{"ha":0,"x_min":-130,"x_max":150,"o":"m 73 884 l -130 1136 l 6 1136 l 150 884 l 73 884 z "},"́":{"ha":0,"x_min":-56,"x_max":295,"o":"m -56 884 l 159 1136 l 295 1136 l 21 884 l -56 884 z "},"̂":{"ha":0,"x_min":-187,"x_max":313,"o":"m -160 903 l -187 956 l 61 1158 l 121 1158 l 313 956 l 270 903 l 78 1073 l -160 903 z "},"̃":{"ha":0,"x_min":-189,"x_max":335,"o":"m 162 896 q 93 920 119 896 q 43 994 67 943 q 8 1056 24 1035 q -29 1076 -8 1076 q -85 1041 -62 1076 q -116 923 -107 1006 l -119 909 l -189 909 l -187 928 q -128 1090 -172 1032 q -15 1149 -83 1149 q 56 1126 30 1149 q 102 1056 82 1102 q 140 991 125 1013 q 176 970 155 970 q 229 1004 207 970 q 263 1122 251 1039 l 264 1136 l 335 1136 l 332 1117 q 274 955 318 1014 q 162 896 230 896 z "},"̄":{"ha":0,"x_min":-168,"x_max":311,"o":"m -168 972 l -157 1052 l 311 1052 l 299 972 l -168 972 z "},"̆":{"ha":0,"x_min":-198,"x_max":360,"o":"m 52 875 q -135 940 -72 875 q -181 1140 -198 1005 l -92 1140 q -66 994 -104 1038 q 63 949 -29 949 q 205 994 155 949 q 271 1140 255 1038 l 360 1140 q 258 940 340 1005 q 52 875 176 875 z "},"̇":{"ha":0,"x_min":-20,"x_max":153,"o":"m 57 912 q 1 924 21 912 q -15 968 -20 936 l -14 977 q 15 1024 -9 1011 q 74 1037 39 1037 q 131 1024 110 1037 q 148 977 153 1011 l 146 968 q 117 924 141 936 q 57 912 92 912 z "},"̈":{"ha":0,"x_min":-144,"x_max":277,"o":"m -81 912 q -128 924 -111 912 q -139 968 -144 936 l -138 977 q -113 1024 -133 1011 q -63 1037 -93 1037 q -16 1024 -33 1037 q -4 977 1 1011 l -5 968 q -31 924 -10 936 q -81 912 -52 912 m 194 912 q 148 924 164 912 q 136 968 131 936 l 138 977 q 162 1024 143 1011 q 212 1037 182 1037 q 259 1024 242 1037 q 271 977 277 1011 l 270 968 q 244 924 265 936 q 194 912 223 912 z "},"̊":{"ha":0,"x_min":-122,"x_max":282,"o":"m 51 865 q -80 911 -37 865 q -110 1048 -122 957 l -105 1088 q -35 1228 -92 1181 q 109 1275 21 1275 q 239 1228 196 1275 q 269 1088 282 1181 l 264 1048 q 194 911 251 957 q 51 865 138 865 m 61 932 q 149 959 119 932 q 188 1048 179 986 l 193 1088 q 179 1179 202 1150 q 98 1208 157 1208 q 10 1179 40 1208 q -29 1088 -20 1150 l -34 1048 q -20 959 -43 986 q 61 932 3 932 z "},"̋":{"ha":0,"x_min":-111,"x_max":394,"o":"m 149 884 l 255 1136 l 394 1136 l 216 884 l 149 884 m -111 884 l -5 1136 l 134 1136 l -44 884 l -111 884 z "},"̌":{"ha":0,"x_min":-168,"x_max":332,"o":"m 24 889 l -168 1091 l -126 1144 l 66 973 l 304 1144 l 332 1091 l 85 889 l 24 889 z "},"̒":{"ha":0,"x_min":-78,"x_max":215,"o":"m -78 884 l 138 1136 l 215 1136 l 58 884 l -78 884 z "},"̦":{"ha":0,"x_min":-278,"x_max":15,"o":"m -278 -379 l -121 -126 l 15 -126 l -201 -379 l -278 -379 z "},"̧":{"ha":0,"x_min":-313,"x_max":58,"o":"m -109 0 l -86 38 q 20 -14 -19 25 q 48 -122 58 -53 q -17 -234 38 -196 q -149 -273 -72 -273 q -269 -241 -225 -273 q -308 -135 -313 -210 l -226 -128 q -209 -183 -227 -167 q -145 -199 -191 -199 q -66 -181 -92 -199 q -34 -112 -40 -162 q -44 -39 -27 -64 q -109 0 -62 -14 z "},"̨":{"ha":0,"x_min":-205,"x_max":85,"o":"m -39 -271 q -160 -233 -115 -271 q -194 -129 -205 -194 q -136 -23 -187 -71 q -19 49 -86 24 l 1 29 q -77 -34 -51 0 q -109 -105 -104 -68 q -92 -170 -115 -149 q -18 -192 -69 -192 q 33 -189 6 -192 q 85 -181 61 -186 l 73 -260 q 16 -268 48 -265 q -39 -271 -15 -271 z "},"¼":{"ha":884,"x_min":-24,"x_max":872,"o":"m 247 518 l 256 585 l 428 585 l 473 910 l 462 910 q 389 830 441 860 q 278 798 337 799 l 280 867 q 402 906 340 870 q 491 1018 465 942 l 568 1018 l 508 585 l 664 585 l 655 518 l 247 518 m -24 333 l -11 424 l 388 408 l 380 350 l -24 333 m 860 333 l 479 350 l 486 408 l 872 424 l 860 333 m 492 -265 l 413 -265 l 432 -133 l 104 -133 l 114 -67 l 465 273 l 568 273 l 521 -67 l 639 -67 l 629 -133 l 511 -133 l 492 -265 m 194 -67 l 442 -67 l 480 206 l 194 -67 z "},"½":{"ha":884,"x_min":-24,"x_max":872,"o":"m 247 518 l 256 585 l 428 585 l 473 910 l 462 910 q 389 830 441 860 q 278 798 337 799 l 280 867 q 402 906 340 870 q 491 1018 465 942 l 568 1018 l 508 585 l 664 585 l 655 518 l 247 518 m -24 333 l -11 424 l 388 408 l 380 350 l -24 333 m 860 333 l 479 350 l 486 408 l 872 424 l 860 333 m 569 -266 l 98 -266 l 114 -160 q 160 -63 122 -100 q 282 -10 198 -27 l 423 18 q 504 44 481 29 q 533 92 528 58 l 537 116 q 513 181 543 160 q 399 201 482 201 q 283 181 316 201 q 240 109 251 162 l 159 115 q 233 230 176 193 q 409 266 290 266 q 578 229 530 266 q 615 120 625 192 l 610 77 q 562 -4 602 25 q 448 -49 521 -34 l 307 -77 q 225 -108 251 -87 q 188 -198 198 -129 l 580 -198 l 569 -266 z "},"¾":{"ha":884,"x_min":-24,"x_max":872,"o":"m 441 509 q 263 544 312 509 q 218 650 215 580 l 301 655 q 325 593 299 611 q 449 576 351 576 q 576 595 539 576 q 620 655 614 614 l 622 676 q 595 729 628 712 q 476 745 563 745 l 405 745 l 414 812 l 485 812 q 595 824 561 812 q 635 867 630 836 l 638 893 q 609 943 643 928 q 499 957 574 957 q 393 943 428 957 q 350 891 357 928 l 269 898 q 341 995 284 966 q 508 1024 398 1024 q 672 996 617 1024 q 717 900 727 968 l 715 880 q 677 816 708 840 q 601 788 646 793 l 598 773 q 679 741 650 769 q 702 670 707 713 l 699 653 q 626 544 688 578 q 441 509 564 509 m -24 333 l -11 424 l 388 408 l 380 350 l -24 333 m 860 333 l 479 350 l 486 408 l 872 424 l 860 333 m 492 -265 l 413 -265 l 432 -133 l 104 -133 l 114 -67 l 465 273 l 568 273 l 521 -67 l 639 -67 l 629 -133 l 511 -133 l 492 -265 m 194 -67 l 442 -67 l 480 206 l 194 -67 z "},"⅛":{"ha":884,"x_min":-24,"x_max":872,"o":"m 247 518 l 256 585 l 428 585 l 473 910 l 462 910 q 389 830 441 860 q 278 798 337 799 l 280 867 q 402 906 340 870 q 491 1018 465 942 l 568 1018 l 508 585 l 664 585 l 655 518 l 247 518 m -24 333 l -11 424 l 388 408 l 380 350 l -24 333 m 860 333 l 479 350 l 486 408 l 872 424 l 860 333 m 336 -273 q 156 -232 201 -273 q 121 -120 111 -191 l 122 -107 q 163 -28 130 -58 q 249 6 196 3 l 250 21 q 187 51 211 27 q 169 114 163 74 l 172 131 q 244 235 182 203 q 412 268 306 268 q 571 237 518 268 q 614 131 624 206 l 611 114 q 574 51 605 74 q 503 21 544 27 l 501 6 q 578 -29 553 3 q 596 -107 602 -61 l 595 -120 q 528 -232 585 -192 q 336 -273 471 -273 m 380 45 q 490 60 456 45 q 529 109 524 74 l 532 128 q 508 184 538 168 q 402 201 477 201 q 293 184 327 201 q 253 128 259 168 l 250 109 q 275 60 245 74 q 380 45 306 45 m 345 -206 q 471 -183 436 -206 q 513 -114 506 -160 l 515 -102 q 491 -40 520 -59 q 371 -20 462 -20 q 246 -40 280 -20 q 206 -102 211 -59 l 203 -114 q 225 -183 197 -160 q 345 -206 254 -206 z "},"⅜":{"ha":884,"x_min":-24,"x_max":872,"o":"m 441 509 q 263 544 312 509 q 218 650 215 580 l 301 655 q 325 593 299 611 q 449 576 351 576 q 576 595 539 576 q 620 655 614 614 l 622 676 q 595 729 628 712 q 476 745 563 745 l 405 745 l 414 812 l 485 812 q 595 824 561 812 q 635 867 630 836 l 638 893 q 609 943 643 928 q 499 957 574 957 q 393 943 428 957 q 350 891 357 928 l 269 898 q 341 995 284 966 q 508 1024 398 1024 q 672 996 617 1024 q 717 900 727 968 l 715 880 q 677 816 708 840 q 601 788 646 793 l 598 773 q 679 741 650 769 q 702 670 707 713 l 699 653 q 626 544 688 578 q 441 509 564 509 m -24 333 l -11 424 l 388 408 l 380 350 l -24 333 m 860 333 l 479 350 l 486 408 l 872 424 l 860 333 m 336 -273 q 156 -232 201 -273 q 121 -120 111 -191 l 122 -107 q 163 -28 130 -58 q 249 6 196 3 l 250 21 q 187 51 211 27 q 169 114 163 74 l 172 131 q 244 235 182 203 q 412 268 306 268 q 571 237 518 268 q 614 131 624 206 l 611 114 q 574 51 605 74 q 503 21 544 27 l 501 6 q 578 -29 553 3 q 596 -107 602 -61 l 595 -120 q 528 -232 585 -192 q 336 -273 471 -273 m 380 45 q 490 60 456 45 q 529 109 524 74 l 532 128 q 508 184 538 168 q 402 201 477 201 q 293 184 327 201 q 253 128 259 168 l 250 109 q 275 60 245 74 q 380 45 306 45 m 345 -206 q 471 -183 436 -206 q 513 -114 506 -160 l 515 -102 q 491 -40 520 -59 q 371 -20 462 -20 q 246 -40 280 -20 q 206 -102 211 -59 l 203 -114 q 225 -183 197 -160 q 345 -206 254 -206 z "},"⅝":{"ha":884,"x_min":-24,"x_max":872,"o":"m 443 509 q 264 541 314 509 q 221 657 213 573 l 302 664 q 330 592 299 610 q 452 574 361 574 q 576 594 539 574 q 620 657 614 614 l 625 688 q 598 746 630 727 q 484 764 567 764 l 258 764 l 293 1016 l 723 1016 l 715 951 l 366 951 l 350 832 l 505 832 q 664 798 611 832 q 706 696 716 764 l 701 654 q 625 547 691 586 q 443 509 559 509 m -24 333 l -11 424 l 388 408 l 380 350 l -24 333 m 860 333 l 479 350 l 486 408 l 872 424 l 860 333 m 336 -273 q 156 -232 201 -273 q 121 -120 111 -191 l 122 -107 q 163 -28 130 -58 q 249 6 196 3 l 250 21 q 187 51 211 27 q 169 114 163 74 l 172 131 q 244 235 182 203 q 412 268 306 268 q 571 237 518 268 q 614 131 624 206 l 611 114 q 574 51 605 74 q 503 21 544 27 l 501 6 q 578 -29 553 3 q 596 -107 602 -61 l 595 -120 q 528 -232 585 -192 q 336 -273 471 -273 m 380 45 q 490 60 456 45 q 529 109 524 74 l 532 128 q 508 184 538 168 q 402 201 477 201 q 293 184 327 201 q 253 128 259 168 l 250 109 q 275 60 245 74 q 380 45 306 45 m 345 -206 q 471 -183 436 -206 q 513 -114 506 -160 l 515 -102 q 491 -40 520 -59 q 371 -20 462 -20 q 246 -40 280 -20 q 206 -102 211 -59 l 203 -114 q 225 -183 197 -160 q 345 -206 254 -206 z "},"⅞":{"ha":884,"x_min":-24,"x_max":872,"o":"m 369 518 q 488 752 423 659 q 660 949 553 845 l 269 949 l 278 1018 l 751 1018 l 742 949 q 565 735 635 835 q 455 518 495 635 l 369 518 m -24 333 l -11 424 l 388 408 l 380 350 l -24 333 m 860 333 l 479 350 l 486 408 l 872 424 l 860 333 m 336 -273 q 156 -232 201 -273 q 121 -120 111 -191 l 122 -107 q 163 -28 130 -58 q 249 6 196 3 l 250 21 q 187 51 211 27 q 169 114 163 74 l 172 131 q 244 235 182 203 q 412 268 306 268 q 571 237 518 268 q 614 131 624 206 l 611 114 q 574 51 605 74 q 503 21 544 27 l 501 6 q 578 -29 553 3 q 596 -107 602 -61 l 595 -120 q 528 -232 585 -192 q 336 -273 471 -273 m 380 45 q 490 60 456 45 q 529 109 524 74 l 532 128 q 508 184 538 168 q 402 201 477 201 q 293 184 327 201 q 253 128 259 168 l 250 109 q 275 60 245 74 q 380 45 306 45 m 345 -206 q 471 -183 436 -206 q 513 -114 506 -160 l 515 -102 q 491 -40 520 -59 q 371 -20 462 -20 q 246 -40 280 -20 q 206 -102 211 -59 l 203 -114 q 225 -183 197 -160 q 345 -206 254 -206 z "},"_":{"ha":884,"x_min":-15,"x_max":705,"o":"m -15 -234 l -3 -145 l 705 -145 l 692 -234 l -15 -234 z "},"-":{"ha":884,"x_min":73,"x_max":793,"o":"m 73 398 l 86 486 l 793 486 l 780 398 l 73 398 z "},"­":{"ha":884,"x_min":73,"x_max":793,"o":"m 73 398 l 86 486 l 793 486 l 780 398 l 73 398 z "},"‐":{"ha":884,"x_min":73,"x_max":793,"o":"m 73 398 l 86 486 l 793 486 l 780 398 l 73 398 z "},"‑":{"ha":884,"x_min":73,"x_max":793,"o":"m 73 398 l 86 486 l 793 486 l 780 398 l 73 398 z "},"–":{"ha":884,"x_min":111,"x_max":755,"o":"m 111 398 l 124 486 l 755 486 l 742 398 l 111 398 z "},"—":{"ha":884,"x_min":-15,"x_max":881,"o":"m -15 398 l -3 486 l 881 486 l 869 398 l -15 398 z "},"―":{"ha":884,"x_min":-15,"x_max":881,"o":"m -15 398 l -3 486 l 881 486 l 869 398 l -15 398 z "},"(":{"ha":884,"x_min":217,"x_max":749,"o":"m 567 -265 q 303 -50 389 -221 q 254 379 217 121 q 424 807 290 636 q 749 1023 558 979 l 749 952 q 477 757 581 908 q 342 379 374 606 q 371 1 311 152 q 587 -194 432 -149 l 567 -265 z "},")":{"ha":884,"x_min":100,"x_max":631,"o":"m 100 -265 l 100 -194 q 371 2 268 -149 q 506 379 475 153 q 477 756 538 605 q 261 952 417 908 l 282 1023 q 545 807 460 979 q 595 379 631 636 q 424 -50 558 121 q 100 -265 290 -221 z "},"[":{"ha":884,"x_min":165,"x_max":746,"o":"m 165 -253 l 342 1010 l 746 1010 l 736 931 l 420 931 l 264 -179 l 580 -179 l 569 -253 l 165 -253 z "},"]":{"ha":884,"x_min":102,"x_max":683,"o":"m 102 -253 l 112 -179 l 428 -179 l 585 931 l 269 931 l 279 1010 l 683 1010 l 506 -253 l 102 -253 z "},"{":{"ha":884,"x_min":62,"x_max":749,"o":"m 567 -265 q 218 -217 321 -269 q 130 -56 115 -165 q 165 39 138 -1 q 242 125 193 80 q 308 190 284 164 q 336 244 332 216 q 285 333 345 307 q 62 364 226 360 l 71 424 q 302 454 235 428 q 378 542 369 480 q 364 590 381 567 q 316 645 347 614 q 261 723 278 684 q 253 816 245 761 q 388 975 268 924 q 749 1023 508 1027 l 737 943 q 439 915 529 947 q 340 809 350 884 q 350 749 336 778 q 405 679 364 721 q 458 608 444 638 q 466 543 471 578 q 395 437 457 472 q 222 398 332 403 l 222 391 q 380 340 328 381 q 423 230 432 299 q 395 166 418 197 q 317 88 371 135 q 246 18 268 48 q 220 -48 225 -13 q 289 -159 208 -126 q 578 -188 370 -192 l 567 -265 z "},"}":{"ha":884,"x_min":100,"x_max":790,"o":"m 597 -56 q 464 -217 582 -165 q 100 -265 346 -269 l 111 -188 q 409 -159 319 -192 q 510 -48 499 -126 q 501 18 515 -13 q 451 88 487 48 q 395 166 409 135 q 385 230 380 197 q 457 340 394 299 q 631 391 520 381 l 631 398 q 472 437 524 403 q 428 543 419 472 q 455 608 433 578 q 529 679 477 638 q 604 749 581 721 q 630 809 626 778 q 559 915 640 884 q 270 943 479 947 l 282 1023 q 629 975 523 1027 q 720 816 735 924 q 684 723 712 761 q 609 645 657 684 q 544 590 567 614 q 516 542 520 567 q 568 454 508 480 q 790 424 629 428 l 782 364 q 551 333 617 360 q 475 244 484 307 q 487 190 471 216 q 535 125 504 164 q 588 39 572 80 q 597 -56 605 -1 z "},"#":{"ha":884,"x_min":49,"x_max":836,"o":"m 519 351 l 578 663 l 367 663 l 308 351 l 519 351 m 451 0 l 503 271 l 292 271 l 240 0 l 160 0 l 212 271 l 49 271 l 61 351 l 229 351 l 288 663 l 105 663 l 116 742 l 303 742 l 352 1010 l 432 1010 l 383 742 l 593 742 l 643 1010 l 722 1010 l 673 742 l 836 742 l 824 663 l 658 663 l 598 351 l 780 351 l 769 271 l 582 271 l 530 0 l 451 0 z "},"%":{"ha":884,"x_min":24,"x_max":869,"o":"m 255 566 q 133 614 176 566 q 104 761 90 662 l 114 837 q 184 987 128 938 q 321 1035 241 1035 q 443 987 400 1035 q 471 837 485 938 l 461 761 q 391 614 447 662 q 255 566 335 566 m 265 638 q 340 666 311 638 q 379 759 370 694 l 390 840 q 378 934 400 904 q 311 963 356 963 q 235 934 265 963 q 194 840 205 904 l 183 759 q 197 666 174 694 q 265 638 220 638 m 24 203 l 824 871 l 869 816 l 66 148 l 24 203 m 564 -28 q 442 20 485 -28 q 413 168 399 68 l 423 244 q 494 393 437 345 q 630 442 551 442 q 752 393 710 442 q 780 244 794 345 l 770 168 q 700 20 756 68 q 564 -28 644 -28 m 574 44 q 650 73 620 44 q 688 165 679 101 l 699 246 q 688 340 710 311 q 620 370 665 370 q 544 340 574 370 q 504 246 514 311 l 492 165 q 506 73 484 101 q 574 44 529 44 z "},"‰":{"ha":884,"x_min":-14,"x_max":835,"o":"m 230 566 q 124 610 160 566 q 100 749 87 655 l 115 850 q 177 990 128 944 q 295 1035 227 1035 q 401 990 365 1035 q 424 850 437 944 l 409 749 q 347 610 396 655 q 230 566 298 566 m 183 746 q 191 663 176 688 q 240 638 207 638 q 296 663 274 638 q 326 746 318 688 l 341 852 q 334 937 348 910 q 285 963 319 963 q 229 937 253 963 q 198 852 206 910 l 183 746 m 831 816 l 28 148 l -14 203 l 787 871 l 831 816 m 650 -28 q 592 -11 616 -28 q 557 39 568 5 q 507 -11 537 5 q 444 -28 477 -28 q 355 17 385 -28 q 337 155 324 62 l 352 256 q 408 396 365 351 q 510 442 452 442 q 568 425 544 442 q 605 374 592 408 q 653 425 624 408 q 716 442 683 442 q 805 396 775 442 q 822 256 835 351 l 807 155 q 751 17 794 62 q 650 -28 708 -28 m 414 148 q 419 64 407 90 q 458 39 431 39 q 505 64 486 39 q 532 148 524 90 l 548 264 q 545 348 557 322 q 506 375 534 375 q 459 348 479 375 q 431 264 439 322 l 414 148 m 610 148 q 614 64 602 90 q 654 39 626 39 q 701 64 682 39 q 727 148 720 90 l 744 264 q 741 348 753 322 q 702 375 730 375 q 655 348 674 375 q 626 264 635 322 l 610 148 z "},"'":{"ha":884,"x_min":407,"x_max":583,"o":"m 407 543 l 442 1010 l 583 1010 l 487 543 l 407 543 z "},"\"":{"ha":884,"x_min":217,"x_max":773,"o":"m 596 543 l 631 1010 l 773 1010 l 677 543 l 596 543 m 217 543 l 253 1010 l 394 1010 l 298 543 l 217 543 z "},"ʻ":{"ha":884,"x_min":304,"x_max":692,"o":"m 304 543 l 616 1010 l 692 1010 l 480 543 l 304 543 z "},"‘":{"ha":884,"x_min":304,"x_max":692,"o":"m 304 543 l 616 1010 l 692 1010 l 480 543 l 304 543 z "},"’":{"ha":884,"x_min":268,"x_max":655,"o":"m 268 543 l 480 1010 l 655 1010 l 343 543 l 268 543 z "},"“":{"ha":884,"x_min":115,"x_max":869,"o":"m 494 543 l 798 1010 l 869 1010 l 657 543 l 494 543 m 115 543 l 419 1010 l 490 1010 l 278 543 l 115 543 z "},"”":{"ha":884,"x_min":91,"x_max":845,"o":"m 470 543 l 682 1010 l 845 1010 l 540 543 l 470 543 m 91 543 l 303 1010 l 466 1010 l 162 543 l 91 543 z "},"‛":{"ha":884,"x_min":331,"x_max":587,"o":"m 331 543 m 511 543 l 331 1010 l 506 1010 l 587 543 l 511 543 z "},"‚":{"ha":884,"x_min":162,"x_max":539,"o":"m 162 0 m 162 -253 l 364 215 l 539 215 l 237 -253 l 162 -253 z "},"„":{"ha":884,"x_min":-35,"x_max":718,"o":"m 0 0 m 343 -253 l 556 215 l 718 215 l 414 -253 l 343 -253 m -35 -253 l 177 215 l 340 215 l 35 -253 l -35 -253 z "},"‹":{"ha":884,"x_min":240,"x_max":665,"o":"m 581 141 l 240 409 l 249 475 l 665 742 l 653 653 l 322 442 l 593 231 l 581 141 z "},"›":{"ha":884,"x_min":202,"x_max":628,"o":"m 202 141 l 215 231 l 544 442 l 274 653 l 287 742 l 628 475 l 619 409 l 202 141 z "},"«":{"ha":884,"x_min":76,"x_max":830,"o":"m 745 141 l 455 409 l 463 475 l 830 742 l 817 653 l 525 442 l 758 231 l 745 141 m 366 141 l 76 409 l 85 475 l 451 742 l 438 653 l 146 442 l 379 231 l 366 141 z "},"»":{"ha":884,"x_min":38,"x_max":792,"o":"m 38 141 l 51 231 l 342 442 l 110 653 l 122 742 l 413 475 l 404 409 l 38 141 m 417 141 l 429 231 l 721 442 l 489 653 l 501 742 l 792 475 l 783 409 l 417 141 z "},"*":{"ha":884,"x_min":106,"x_max":819,"o":"m 712 410 l 481 606 l 462 298 l 361 298 l 428 605 l 145 410 l 106 497 l 417 655 l 152 813 l 213 900 l 442 705 l 461 1010 l 562 1010 l 495 703 l 780 900 l 819 813 l 509 655 l 774 497 l 712 410 z "},"†":{"ha":884,"x_min":102,"x_max":761,"o":"m 292 -253 l 422 678 l 258 678 l 173 379 l 102 379 l 193 758 l 433 758 l 460 1010 l 566 1010 l 521 758 l 761 758 l 746 379 l 676 379 l 674 678 l 510 678 l 380 -253 l 292 -253 z "},"‡":{"ha":884,"x_min":87,"x_max":761,"o":"m 279 -253 l 323 0 l 87 0 l 90 290 l 160 290 l 174 80 l 338 80 l 422 678 l 258 678 l 186 467 l 115 467 l 193 758 l 433 758 l 460 1010 l 566 1010 l 521 758 l 761 758 l 759 467 l 688 467 l 674 678 l 510 678 l 427 80 l 591 80 l 663 290 l 734 290 l 655 0 l 419 0 l 393 -253 l 279 -253 z "},".":{"ha":884,"x_min":273,"x_max":497,"o":"m 371 -13 q 299 9 324 -13 q 279 76 273 30 l 284 111 q 323 180 292 158 q 400 202 354 202 q 472 180 447 202 q 490 111 497 158 l 485 76 q 448 9 479 30 q 371 -13 417 -13 z "},",":{"ha":884,"x_min":162,"x_max":539,"o":"m 162 -253 l 364 215 l 539 215 l 237 -253 l 162 -253 z "},":":{"ha":884,"x_min":273,"x_max":577,"o":"m 451 553 q 378 573 404 553 q 359 636 352 593 l 365 682 q 402 747 371 726 q 480 768 433 768 q 552 747 527 768 q 571 682 577 726 l 564 636 q 527 573 558 593 q 451 553 496 553 m 371 -13 q 299 8 324 -13 q 279 71 273 28 l 285 116 q 323 181 292 160 q 400 202 354 202 q 472 181 447 202 q 491 116 497 160 l 485 71 q 448 8 479 28 q 371 -13 417 -13 z "},";":{"ha":884,"x_min":162,"x_max":577,"o":"m 451 553 q 378 573 404 553 q 359 636 352 593 l 365 682 q 402 747 371 726 q 480 768 433 768 q 552 747 527 768 q 571 682 577 726 l 564 636 q 527 573 558 593 q 451 553 496 553 m 162 -253 l 364 215 l 539 215 l 237 -253 l 162 -253 z "},"…":{"ha":884,"x_min":-3,"x_max":771,"o":"m 673 -13 q 621 8 639 -13 q 609 71 602 28 l 615 116 q 645 181 621 160 q 702 202 668 202 q 753 181 735 202 q 765 116 771 160 l 759 71 q 729 8 753 28 q 673 -13 705 -13 m 371 -13 q 319 8 337 -13 q 307 71 301 28 l 313 116 q 343 181 319 160 q 400 202 366 202 q 451 181 433 202 q 463 116 470 160 l 457 71 q 427 8 451 28 q 371 -13 403 -13 m 68 -13 q 16 8 35 -13 q 4 71 -3 28 l 10 116 q 40 181 16 160 q 97 202 64 202 q 149 181 131 202 q 160 116 167 160 l 154 71 q 124 8 148 28 q 68 -13 101 -13 z "},"!":{"ha":884,"x_min":273,"x_max":571,"o":"m 389 379 l 455 1010 l 571 1010 l 460 379 l 389 379 m 371 -13 q 297 8 321 -13 q 279 71 273 28 l 284 106 q 319 171 290 150 q 399 192 348 192 q 473 171 449 192 q 490 106 496 150 l 485 71 q 449 8 479 28 q 371 -13 419 -13 z "},"¡":{"ha":884,"x_min":314,"x_max":612,"o":"m 516 1021 q 589 1001 566 1021 q 606 937 612 981 l 601 902 q 566 838 596 859 q 487 817 537 817 q 414 838 437 817 q 395 902 390 859 l 400 937 q 437 1001 407 981 q 516 1021 467 1021 m 496 631 l 431 0 l 314 0 l 426 631 l 496 631 z "},"‼":{"ha":884,"x_min":96,"x_max":747,"o":"m 566 379 l 631 1010 l 747 1010 l 636 379 l 566 379 m 212 379 l 278 1010 l 394 1010 l 283 379 l 212 379 m 548 -13 q 473 8 497 -13 q 456 71 449 28 l 461 106 q 496 171 467 150 q 576 192 525 192 q 650 171 626 192 q 667 106 673 150 l 662 71 q 626 8 655 28 q 548 -13 596 -13 m 194 -13 q 120 8 144 -13 q 102 71 96 28 l 107 106 q 143 171 114 150 q 222 192 172 192 q 296 171 273 192 q 313 106 319 150 l 308 71 q 272 8 302 28 q 194 -13 242 -13 z "},"?":{"ha":884,"x_min":114,"x_max":842,"o":"m 326 395 l 318 466 q 625 552 535 500 q 729 697 715 605 l 734 735 q 699 891 747 840 q 504 943 652 943 q 288 895 346 943 q 201 716 230 847 l 114 725 q 232 957 145 891 q 514 1023 319 1023 q 770 950 697 1023 q 823 750 842 878 l 816 692 q 684 497 797 561 q 326 395 571 433 m 311 -13 q 236 8 260 -13 q 218 71 212 28 l 223 106 q 259 171 230 150 q 338 192 288 192 q 412 171 388 192 q 429 106 436 150 l 424 71 q 388 8 418 28 q 311 -13 359 -13 z "},"¿":{"ha":884,"x_min":43,"x_max":771,"o":"m 574 1023 q 648 1003 625 1023 q 667 939 672 982 l 662 904 q 626 839 655 860 q 545 818 596 818 q 473 839 496 818 q 456 904 449 860 l 461 939 q 496 1003 466 982 q 574 1023 527 1023 m 558 615 l 567 544 q 259 458 350 510 q 157 313 169 405 l 152 275 q 184 119 136 170 q 380 67 232 67 q 596 115 538 67 q 684 294 654 163 l 771 285 q 652 53 739 119 q 371 -13 566 -13 q 116 60 188 -13 q 61 260 43 133 l 68 318 q 199 513 87 449 q 558 615 312 577 z "},"/":{"ha":884,"x_min":39,"x_max":809,"o":"m 39 -253 l 721 1010 l 809 1010 l 128 -253 l 39 -253 z "},"\\":{"ha":884,"x_min":216,"x_max":633,"o":"m 544 -253 l 216 1010 l 304 1010 l 633 -253 l 544 -253 z "},"⁄":{"ha":884,"x_min":74,"x_max":809,"o":"m 74 0 l 721 1010 l 809 1010 l 163 0 l 74 0 z "},"∕":{"ha":884,"x_min":74,"x_max":809,"o":"m 74 0 l 721 1010 l 809 1010 l 163 0 l 74 0 z "},"|":{"ha":884,"x_min":298,"x_max":551,"o":"m 298 -253 l 475 1010 l 551 1010 l 374 -253 l 298 -253 z "},"¦":{"ha":884,"x_min":298,"x_max":551,"o":"m 404 505 l 475 1010 l 551 1010 l 480 505 l 404 505 m 298 -253 l 369 253 l 444 253 l 374 -253 l 298 -253 z "},"@":{"ha":884,"x_min":68,"x_max":797,"o":"m 429 -139 q 153 -34 237 -139 q 95 264 68 71 l 148 640 q 271 922 173 821 q 527 1023 369 1023 q 733 924 669 1023 q 773 653 797 826 l 729 345 q 650 189 707 239 q 500 139 593 139 q 363 196 402 139 q 340 356 324 254 l 361 510 q 434 672 375 611 q 568 732 494 732 q 641 712 615 732 q 678 663 667 692 l 698 663 q 674 883 718 806 q 516 960 630 960 q 313 880 385 960 q 218 640 241 801 l 165 264 q 208 13 143 98 q 438 -72 273 -72 q 556 -62 503 -72 q 658 -39 609 -53 l 648 -107 q 543 -130 596 -121 q 429 -139 490 -139 m 513 210 q 608 244 573 210 q 654 359 643 279 l 674 500 q 660 622 686 582 q 577 662 635 662 q 484 622 519 662 q 436 497 448 582 l 418 369 q 431 248 407 287 q 513 210 455 210 z "},"&":{"ha":884,"x_min":8,"x_max":789,"o":"m 763 -8 q 633 61 696 24 q 515 144 569 97 q 375 31 451 74 q 216 -13 299 -13 q 61 58 114 -13 q 25 254 8 129 q 100 422 38 345 q 247 544 162 499 q 217 672 223 612 q 215 774 210 732 q 301 956 231 888 q 472 1024 370 1024 q 609 963 563 1024 q 644 816 655 903 q 554 652 630 717 q 332 525 477 586 q 355 477 342 503 q 384 423 369 451 q 444 328 410 376 q 520 240 479 280 q 607 363 564 295 q 693 510 650 431 l 761 475 q 658 321 710 388 q 554 197 606 255 l 789 71 l 763 -8 m 299 773 q 298 676 293 726 q 317 574 303 626 q 491 680 427 622 q 566 808 556 737 q 544 906 574 867 q 462 944 514 944 q 352 898 393 944 q 299 773 311 852 m 236 66 q 352 98 290 66 q 468 186 414 130 q 390 278 427 226 q 322 385 354 331 q 294 438 307 412 q 268 490 280 465 q 162 388 205 451 q 111 259 120 326 q 131 118 98 170 q 236 66 164 66 z "},"§":{"ha":884,"x_min":80,"x_max":775,"o":"m 391 236 q 414 231 403 234 q 436 226 424 229 q 572 263 516 227 q 638 371 628 299 q 602 467 646 436 q 463 518 558 497 q 441 523 452 520 q 419 528 429 525 q 283 491 338 527 q 217 383 227 455 q 252 287 207 318 q 391 236 297 256 m 357 -261 q 201 -232 274 -261 q 80 -150 129 -203 l 135 -78 q 246 -157 191 -131 q 375 -182 302 -182 q 519 -145 460 -182 q 588 -38 578 -109 q 542 86 600 45 q 365 153 485 128 q 173 231 232 181 q 128 376 114 282 q 189 496 138 449 q 314 562 241 542 q 209 646 245 593 q 184 783 173 699 q 290 956 201 896 q 497 1015 380 1015 q 653 986 581 1015 q 775 904 726 957 l 718 833 q 607 910 663 885 q 480 934 552 934 q 335 896 393 934 q 266 792 277 859 q 313 668 255 708 q 490 601 370 628 q 682 523 622 573 q 727 379 741 473 q 665 258 717 304 q 539 189 612 211 q 646 105 611 155 q 670 -24 682 54 q 568 -199 655 -138 q 357 -261 480 -261 z "}}}
